G04 Layer: BottomSolderMaskLayer*
G04 EasyEDA v6.3.53, 2020-07-19T22:27:28+02:00*
G04 3120cfb910ab4567be944433c0d318a6,a54f91b67bf74260adec70c9c35cfc8e,10*
G04 Gerber Generator version 0.2*
G04 Scale: 100 percent, Rotated: No, Reflected: No *
G04 Dimensions in millimeters *
G04 leading zeros omitted , absolute positions ,3 integer and 3 decimal *
%FSLAX33Y33*%
%MOMM*%
G90*
G71D02*

%ADD26C,1.778000*%
%ADD28C,1.203198*%
%ADD29C,0.803199*%

%LPD*%
G54D29*
G01X17334Y19496D02*
G01X17334Y18096D01*
G01X16064Y19496D02*
G01X16064Y18096D01*
G01X14794Y19496D02*
G01X14794Y18096D01*
G01X13524Y19496D02*
G01X13524Y18096D01*
G01X12254Y19496D02*
G01X12254Y18096D01*
G01X10984Y19496D02*
G01X10984Y18096D01*
G01X9714Y19496D02*
G01X9714Y18096D01*
G01X8444Y19496D02*
G01X8444Y18096D01*
G01X7174Y19496D02*
G01X7174Y18096D01*
G01X5904Y19496D02*
G01X5904Y18096D01*
G01X4634Y19496D02*
G01X4634Y18096D01*
G01X3364Y19496D02*
G01X3364Y18096D01*
G01X3364Y10096D02*
G01X3364Y8696D01*
G01X4634Y10096D02*
G01X4634Y8696D01*
G01X5904Y10096D02*
G01X5904Y8696D01*
G01X7174Y10096D02*
G01X7174Y8696D01*
G01X8444Y10096D02*
G01X8444Y8696D01*
G01X9714Y10096D02*
G01X9714Y8696D01*
G01X10984Y10096D02*
G01X10984Y8696D01*
G01X12254Y10096D02*
G01X12254Y8696D01*
G01X13524Y10096D02*
G01X13524Y8696D01*
G01X14794Y10096D02*
G01X14794Y8696D01*
G01X16064Y10096D02*
G01X16064Y8696D01*
G01X17334Y10096D02*
G01X17334Y8696D01*
G36*
G01X6920Y20701D02*
G01X6920Y22479D01*
G01X8698Y22479D01*
G01X8698Y20701D01*
G01X6920Y20701D01*
G37*
G36*
G01X9460Y20701D02*
G01X9460Y22479D01*
G01X11238Y22479D01*
G01X11238Y20701D01*
G01X9460Y20701D01*
G37*
G54D26*
G01X12889Y21589D03*
G01X7809Y1269D03*
G01X10349Y1269D03*
G01X12889Y1269D03*
G36*
G01X17883Y6286D02*
G01X17883Y7688D01*
G01X19986Y7688D01*
G01X19986Y6286D01*
G01X17883Y6286D01*
G37*
G36*
G01X17883Y3086D02*
G01X17883Y4488D01*
G01X19986Y4488D01*
G01X19986Y3086D01*
G01X17883Y3086D01*
G37*
G36*
G01X14703Y6286D02*
G01X14703Y7688D01*
G01X16806Y7688D01*
G01X16806Y6286D01*
G01X14703Y6286D01*
G37*
G36*
G01X14703Y3086D02*
G01X14703Y4488D01*
G01X16806Y4488D01*
G01X16806Y3086D01*
G01X14703Y3086D01*
G37*
G54D28*
G01X3353Y4637D03*
G01X3353Y6138D03*
M00*
M02*
