G04 Layer: BottomSilkLayer*
G04 EasyEDA v6.3.53, 2020-07-19T22:27:28+02:00*
G04 3120cfb910ab4567be944433c0d318a6,a54f91b67bf74260adec70c9c35cfc8e,10*
G04 Gerber Generator version 0.2*
G04 Scale: 100 percent, Rotated: No, Reflected: No *
G04 Dimensions in millimeters *
G04 leading zeros omitted , absolute positions ,3 integer and 3 decimal *
%FSLAX33Y33*%
%MOMM*%
G90*
G71D02*

%ADD10C,0.254000*%
%ADD21C,0.203200*%
%ADD22C,0.202999*%

%LPD*%
G54D21*
G01X12254Y22860D02*
G01X14159Y22860D01*
G01X14159Y20320D01*
G01X6539Y20320D01*
G01X6539Y22860D01*
G54D22*
G01X6539Y22860D02*
G01X12254Y22860D01*
G54D21*
G01X12254Y2540D02*
G01X14159Y2540D01*
G01X14159Y0D01*
G01X6539Y0D01*
G01X6539Y2540D01*
G54D22*
G01X6539Y2540D02*
G01X12254Y2540D01*
G54D10*
G01X17936Y2887D02*
G01X19936Y2887D01*
G01X17736Y6387D02*
G01X17736Y7587D01*
G01X20136Y6387D02*
G01X20136Y7587D01*
G01X17736Y4387D02*
G01X17736Y3188D01*
G01X20136Y4387D02*
G01X20136Y3188D01*
G01X17936Y7887D02*
G01X19936Y7887D01*
G01X17736Y7687D02*
G01X17736Y7587D01*
G01X20136Y7687D02*
G01X20136Y7587D01*
G01X17736Y3087D02*
G01X17736Y3188D01*
G01X20136Y3087D02*
G01X20136Y3188D01*
G01X16955Y2887D02*
G01X14556Y2887D01*
G01X14556Y6387D02*
G01X14556Y7887D01*
G01X16955Y6387D02*
G01X16955Y7887D01*
G01X14556Y4387D02*
G01X14556Y2887D01*
G01X16955Y4387D02*
G01X16955Y2887D01*
G01X16955Y7887D02*
G01X14556Y7887D01*
G01X2158Y5590D02*
G01X2158Y6390D01*
G01X2539Y5997D02*
G01X1739Y5997D01*
G01X18150Y14977D02*
G01X18150Y17386D01*
G01X2549Y17386D01*
G01X2549Y17386D02*
G01X2549Y10744D01*
G01X2549Y10744D02*
G01X18119Y10744D01*
G01X18119Y13080D01*

%LPD*%
G36*
G01X4226Y22088D02*
G01X4048Y22088D01*
G01X4004Y22082D01*
G01X3966Y22065D01*
G01X3935Y22038D01*
G01X3911Y21999D01*
G01X3809Y21793D01*
G01X3798Y21768D01*
G01X3790Y21742D01*
G01X3785Y21717D01*
G01X3784Y21691D01*
G01X3785Y21662D01*
G01X3790Y21633D01*
G01X3798Y21607D01*
G01X3809Y21582D01*
G01X3913Y21374D01*
G01X3938Y21336D01*
G01X3970Y21309D01*
G01X4010Y21293D01*
G01X4058Y21287D01*
G01X4226Y21287D01*
G01X4256Y21291D01*
G01X4277Y21300D01*
G01X4290Y21316D01*
G01X4294Y21338D01*
G01X4290Y21361D01*
G01X4277Y21376D01*
G01X4256Y21386D01*
G01X4226Y21389D01*
G01X4190Y21389D01*
G01X4190Y21986D01*
G01X4226Y21986D01*
G01X4256Y21989D01*
G01X4277Y21999D01*
G01X4290Y22014D01*
G01X4294Y22037D01*
G01X4290Y22059D01*
G01X4277Y22075D01*
G01X4256Y22085D01*
G01X4226Y22088D01*
G37*

%LPC*%
G36*
G01X4088Y21986D02*
G01X4058Y21986D01*
G01X4040Y21984D01*
G01X4025Y21978D01*
G01X4014Y21967D01*
G01X4005Y21953D01*
G01X3906Y21757D01*
G01X3897Y21738D01*
G01X3890Y21719D01*
G01X3887Y21702D01*
G01X3885Y21686D01*
G01X3886Y21672D01*
G01X3889Y21658D01*
G01X3894Y21643D01*
G01X3900Y21628D01*
G01X4002Y21422D01*
G01X4011Y21408D01*
G01X4023Y21397D01*
G01X4038Y21391D01*
G01X4055Y21389D01*
G01X4088Y21389D01*
G01X4088Y21986D01*
G37*

%LPD*%
G36*
G01X4601Y22084D02*
G01X4579Y22088D01*
G01X4556Y22084D01*
G01X4541Y22070D01*
G01X4531Y22049D01*
G01X4528Y22019D01*
G01X4528Y21287D01*
G01X4662Y21287D01*
G01X4934Y21905D01*
G01X4934Y21356D01*
G01X4937Y21326D01*
G01X4947Y21305D01*
G01X4963Y21292D01*
G01X4985Y21287D01*
G01X5007Y21292D01*
G01X5023Y21305D01*
G01X5033Y21326D01*
G01X5036Y21356D01*
G01X5036Y22088D01*
G01X4901Y22088D01*
G01X4629Y21463D01*
G01X4629Y22019D01*
G01X4626Y22049D01*
G01X4617Y22070D01*
G01X4601Y22084D01*
G37*

%LPD*%
G36*
G01X5473Y22088D02*
G01X5341Y22088D01*
G01X5311Y22085D01*
G01X5289Y22075D01*
G01X5276Y22059D01*
G01X5272Y22037D01*
G01X5276Y22014D01*
G01X5289Y21999D01*
G01X5311Y21989D01*
G01X5341Y21986D01*
G01X5457Y21986D01*
G01X5471Y21985D01*
G01X5483Y21984D01*
G01X5492Y21983D01*
G01X5498Y21981D01*
G01X5503Y21978D01*
G01X5508Y21973D01*
G01X5515Y21964D01*
G01X5523Y21953D01*
G01X5650Y21788D01*
G01X5662Y21772D01*
G01X5670Y21753D01*
G01X5674Y21733D01*
G01X5676Y21712D01*
G01X5676Y21450D01*
G01X5672Y21423D01*
G01X5661Y21404D01*
G01X5643Y21393D01*
G01X5617Y21389D01*
G01X5430Y21389D01*
G01X5404Y21393D01*
G01X5386Y21404D01*
G01X5375Y21423D01*
G01X5371Y21450D01*
G01X5371Y21549D01*
G01X5457Y21549D01*
G01X5487Y21552D01*
G01X5509Y21561D01*
G01X5522Y21576D01*
G01X5526Y21597D01*
G01X5522Y21621D01*
G01X5509Y21637D01*
G01X5487Y21647D01*
G01X5457Y21651D01*
G01X5269Y21651D01*
G01X5269Y21437D01*
G01X5273Y21408D01*
G01X5281Y21380D01*
G01X5295Y21355D01*
G01X5315Y21331D01*
G01X5339Y21312D01*
G01X5365Y21298D01*
G01X5392Y21290D01*
G01X5422Y21287D01*
G01X5625Y21287D01*
G01X5657Y21290D01*
G01X5686Y21298D01*
G01X5711Y21312D01*
G01X5734Y21331D01*
G01X5753Y21355D01*
G01X5767Y21381D01*
G01X5775Y21410D01*
G01X5777Y21442D01*
G01X5777Y21724D01*
G01X5774Y21758D01*
G01X5766Y21791D01*
G01X5752Y21823D01*
G01X5732Y21854D01*
G01X5597Y22027D01*
G01X5571Y22054D01*
G01X5542Y22072D01*
G01X5509Y22084D01*
G01X5473Y22088D01*
G37*

%LPD*%

%LPD*%
G36*
G01X15153Y22088D02*
G01X14980Y22088D01*
G01X14951Y22085D01*
G01X14931Y22075D01*
G01X14918Y22059D01*
G01X14914Y22037D01*
G01X14918Y22014D01*
G01X14931Y21999D01*
G01X14951Y21989D01*
G01X14980Y21986D01*
G01X15150Y21986D01*
G01X15167Y21984D01*
G01X15181Y21978D01*
G01X15193Y21969D01*
G01X15203Y21955D01*
G01X15302Y21752D01*
G01X15309Y21737D01*
G01X15314Y21720D01*
G01X15317Y21704D01*
G01X15318Y21686D01*
G01X15317Y21671D01*
G01X15314Y21656D01*
G01X15309Y21641D01*
G01X15302Y21625D01*
G01X15203Y21425D01*
G01X15193Y21409D01*
G01X15180Y21398D01*
G01X15164Y21391D01*
G01X15145Y21389D01*
G01X14980Y21389D01*
G01X14951Y21386D01*
G01X14931Y21376D01*
G01X14918Y21361D01*
G01X14914Y21338D01*
G01X14918Y21316D01*
G01X14931Y21300D01*
G01X14951Y21291D01*
G01X14980Y21287D01*
G01X15160Y21287D01*
G01X15202Y21293D01*
G01X15238Y21309D01*
G01X15268Y21336D01*
G01X15292Y21374D01*
G01X15399Y21587D01*
G01X15409Y21611D01*
G01X15416Y21635D01*
G01X15420Y21660D01*
G01X15422Y21686D01*
G01X15420Y21714D01*
G01X15416Y21740D01*
G01X15409Y21764D01*
G01X15399Y21788D01*
G01X15292Y22001D01*
G01X15267Y22039D01*
G01X15236Y22066D01*
G01X15197Y22082D01*
G01X15153Y22088D01*
G37*

%LPD*%
G36*
G01X15897Y22088D02*
G01X15724Y22088D01*
G01X15695Y22085D01*
G01X15674Y22075D01*
G01X15662Y22059D01*
G01X15658Y22037D01*
G01X15662Y22014D01*
G01X15675Y21999D01*
G01X15695Y21989D01*
G01X15724Y21986D01*
G01X15894Y21986D01*
G01X15911Y21984D01*
G01X15925Y21978D01*
G01X15936Y21969D01*
G01X15945Y21955D01*
G01X16047Y21752D01*
G01X16053Y21737D01*
G01X16058Y21720D01*
G01X16061Y21704D01*
G01X16062Y21686D01*
G01X16061Y21671D01*
G01X16058Y21656D01*
G01X16053Y21641D01*
G01X16047Y21625D01*
G01X15948Y21425D01*
G01X15937Y21409D01*
G01X15924Y21398D01*
G01X15908Y21391D01*
G01X15889Y21389D01*
G01X15724Y21389D01*
G01X15695Y21386D01*
G01X15674Y21376D01*
G01X15662Y21361D01*
G01X15658Y21338D01*
G01X15662Y21316D01*
G01X15675Y21300D01*
G01X15695Y21291D01*
G01X15724Y21287D01*
G01X15902Y21287D01*
G01X15945Y21293D01*
G01X15981Y21309D01*
G01X16012Y21336D01*
G01X16037Y21374D01*
G01X16143Y21587D01*
G01X16153Y21611D01*
G01X16161Y21635D01*
G01X16165Y21660D01*
G01X16166Y21686D01*
G01X16165Y21714D01*
G01X16161Y21740D01*
G01X16153Y21764D01*
G01X16143Y21788D01*
G01X16037Y22001D01*
G01X16012Y22039D01*
G01X15980Y22066D01*
G01X15942Y22082D01*
G01X15897Y22088D01*
G37*

%LPD*%
G36*
G01X16474Y22084D02*
G01X16451Y22088D01*
G01X16429Y22084D01*
G01X16415Y22071D01*
G01X16405Y22050D01*
G01X16402Y22022D01*
G01X16402Y21879D01*
G01X16403Y21867D01*
G01X16404Y21854D01*
G01X16406Y21841D01*
G01X16410Y21828D01*
G01X16606Y21320D01*
G01X16614Y21306D01*
G01X16625Y21296D01*
G01X16639Y21290D01*
G01X16654Y21287D01*
G01X16671Y21290D01*
G01X16684Y21296D01*
G01X16696Y21306D01*
G01X16705Y21320D01*
G01X16900Y21828D01*
G01X16902Y21834D01*
G01X16903Y21836D01*
G01X16903Y21839D01*
G01X16906Y21847D01*
G01X16908Y21856D01*
G01X16910Y21867D01*
G01X16910Y22019D01*
G01X16907Y22049D01*
G01X16898Y22070D01*
G01X16882Y22084D01*
G01X16860Y22088D01*
G01X16837Y22084D01*
G01X16821Y22070D01*
G01X16812Y22049D01*
G01X16809Y22019D01*
G01X16809Y21872D01*
G01X16656Y21481D01*
G01X16504Y21872D01*
G01X16504Y22022D01*
G01X16500Y22050D01*
G01X16491Y22071D01*
G01X16474Y22084D01*
G37*

%LPD*%

%LPD*%
G36*
G01X7917Y5698D02*
G01X7891Y5699D01*
G01X7861Y5698D01*
G01X7833Y5694D01*
G01X7807Y5687D01*
G01X7782Y5677D01*
G01X7574Y5572D01*
G01X7536Y5547D01*
G01X7509Y5515D01*
G01X7493Y5475D01*
G01X7487Y5428D01*
G01X7487Y5260D01*
G01X7490Y5230D01*
G01X7500Y5209D01*
G01X7516Y5196D01*
G01X7538Y5191D01*
G01X7560Y5196D01*
G01X7576Y5209D01*
G01X7585Y5230D01*
G01X7589Y5260D01*
G01X7589Y5293D01*
G01X8186Y5293D01*
G01X8186Y5260D01*
G01X8189Y5230D01*
G01X8199Y5209D01*
G01X8214Y5196D01*
G01X8237Y5191D01*
G01X8259Y5196D01*
G01X8275Y5209D01*
G01X8284Y5230D01*
G01X8288Y5260D01*
G01X8288Y5438D01*
G01X8282Y5481D01*
G01X8265Y5518D01*
G01X8237Y5549D01*
G01X8199Y5575D01*
G01X7993Y5677D01*
G01X7967Y5687D01*
G01X7942Y5694D01*
G01X7917Y5698D01*
G37*

%LPC*%
G36*
G01X7902Y5596D02*
G01X7886Y5598D01*
G01X7872Y5597D01*
G01X7857Y5595D01*
G01X7843Y5591D01*
G01X7828Y5585D01*
G01X7622Y5484D01*
G01X7607Y5474D01*
G01X7597Y5463D01*
G01X7591Y5448D01*
G01X7589Y5430D01*
G01X7589Y5395D01*
G01X8186Y5395D01*
G01X8186Y5428D01*
G01X8184Y5445D01*
G01X8177Y5460D01*
G01X8167Y5472D01*
G01X8153Y5481D01*
G01X7957Y5578D01*
G01X7938Y5586D01*
G01X7919Y5593D01*
G01X7902Y5596D01*
G37*

%LPD*%
G36*
G01X7542Y4957D02*
G01X7536Y4958D01*
G01X7526Y4957D01*
G01X7516Y4954D01*
G01X7508Y4949D01*
G01X7500Y4943D01*
G01X7495Y4934D01*
G01X7490Y4926D01*
G01X7488Y4917D01*
G01X7487Y4907D01*
G01X7490Y4889D01*
G01X7501Y4874D01*
G01X7517Y4863D01*
G01X7541Y4854D01*
G01X7660Y4818D01*
G01X7660Y4590D01*
G01X7541Y4554D01*
G01X7517Y4545D01*
G01X7501Y4533D01*
G01X7490Y4518D01*
G01X7487Y4501D01*
G01X7488Y4491D01*
G01X7490Y4481D01*
G01X7500Y4465D01*
G01X7508Y4458D01*
G01X7516Y4453D01*
G01X7526Y4451D01*
G01X7536Y4450D01*
G01X7542Y4450D01*
G01X7550Y4452D01*
G01X7559Y4454D01*
G01X7569Y4457D01*
G01X8247Y4656D01*
G01X8265Y4663D01*
G01X8277Y4674D01*
G01X8285Y4688D01*
G01X8288Y4704D01*
G01X8285Y4721D01*
G01X8277Y4735D01*
G01X8265Y4746D01*
G01X8247Y4755D01*
G01X7569Y4950D01*
G01X7559Y4954D01*
G01X7550Y4956D01*
G01X7542Y4957D01*
G37*

%LPC*%
G36*
G01X8051Y4704D02*
G01X7762Y4788D01*
G01X7762Y4620D01*
G01X8051Y4704D01*
G37*

%LPD*%
G36*
G01X7914Y4212D02*
G01X7886Y4214D01*
G01X7859Y4212D01*
G01X7831Y4206D01*
G01X7803Y4198D01*
G01X7774Y4186D01*
G01X7561Y4079D01*
G01X7546Y4070D01*
G01X7532Y4059D01*
G01X7519Y4046D01*
G01X7508Y4031D01*
G01X7499Y4014D01*
G01X7493Y3997D01*
G01X7488Y3978D01*
G01X7487Y3960D01*
G01X7492Y3921D01*
G01X7507Y3888D01*
G01X7532Y3861D01*
G01X7566Y3838D01*
G01X7777Y3731D01*
G01X7804Y3720D01*
G01X7831Y3712D01*
G01X7860Y3707D01*
G01X7889Y3706D01*
G01X7915Y3707D01*
G01X7940Y3711D01*
G01X7964Y3718D01*
G01X7988Y3728D01*
G01X8211Y3838D01*
G01X8244Y3860D01*
G01X8268Y3888D01*
G01X8282Y3922D01*
G01X8288Y3962D01*
G01X8286Y3980D01*
G01X8282Y3997D01*
G01X8276Y4014D01*
G01X8267Y4031D01*
G01X8256Y4046D01*
G01X8244Y4059D01*
G01X8231Y4070D01*
G01X8216Y4079D01*
G01X7988Y4193D01*
G01X7965Y4202D01*
G01X7941Y4209D01*
G01X7914Y4212D01*
G37*

%LPC*%
G36*
G01X7904Y4110D02*
G01X7889Y4112D01*
G01X7872Y4111D01*
G01X7857Y4109D01*
G01X7842Y4105D01*
G01X7828Y4099D01*
G01X7612Y3990D01*
G01X7603Y3984D01*
G01X7597Y3977D01*
G01X7593Y3969D01*
G01X7592Y3960D01*
G01X7593Y3950D01*
G01X7597Y3941D01*
G01X7604Y3933D01*
G01X7614Y3927D01*
G01X7815Y3828D01*
G01X7835Y3818D01*
G01X7854Y3812D01*
G01X7871Y3808D01*
G01X7886Y3807D01*
G01X7904Y3808D01*
G01X7923Y3812D01*
G01X7942Y3818D01*
G01X7962Y3828D01*
G01X8166Y3929D01*
G01X8174Y3934D01*
G01X8181Y3940D01*
G01X8184Y3949D01*
G01X8186Y3960D01*
G01X8184Y3969D01*
G01X8181Y3977D01*
G01X8174Y3983D01*
G01X8166Y3988D01*
G01X7957Y4092D01*
G01X7939Y4101D01*
G01X7921Y4107D01*
G01X7904Y4110D01*
G37*

%LPD*%
G36*
G01X7560Y3465D02*
G01X7538Y3469D01*
G01X7516Y3465D01*
G01X7500Y3452D01*
G01X7490Y3431D01*
G01X7487Y3401D01*
G01X7487Y2961D01*
G01X8219Y2961D01*
G01X8249Y2964D01*
G01X8270Y2974D01*
G01X8283Y2990D01*
G01X8288Y3012D01*
G01X8283Y3036D01*
G01X8270Y3052D01*
G01X8249Y3062D01*
G01X8219Y3066D01*
G01X7589Y3066D01*
G01X7589Y3401D01*
G01X7585Y3431D01*
G01X7576Y3452D01*
G01X7560Y3465D01*
G37*

%LPD*%

%LPD*%
G36*
G01X10094Y4958D02*
G01X10083Y4960D01*
G01X10073Y4959D01*
G01X10063Y4957D01*
G01X10054Y4952D01*
G01X10045Y4945D01*
G01X10038Y4937D01*
G01X10033Y4928D01*
G01X10030Y4919D01*
G01X10029Y4910D01*
G01X10031Y4900D01*
G01X10036Y4889D01*
G01X10044Y4876D01*
G01X10055Y4861D01*
G01X10322Y4551D01*
G01X10101Y4551D01*
G01X10071Y4548D01*
G01X10049Y4539D01*
G01X10036Y4523D01*
G01X10032Y4501D01*
G01X10036Y4478D01*
G01X10049Y4463D01*
G01X10071Y4453D01*
G01X10101Y4450D01*
G01X10764Y4450D01*
G01X10793Y4453D01*
G01X10815Y4463D01*
G01X10828Y4478D01*
G01X10832Y4501D01*
G01X10828Y4523D01*
G01X10815Y4539D01*
G01X10793Y4548D01*
G01X10764Y4551D01*
G01X10545Y4551D01*
G01X10807Y4864D01*
G01X10818Y4878D01*
G01X10826Y4890D01*
G01X10831Y4901D01*
G01X10832Y4910D01*
G01X10831Y4919D01*
G01X10829Y4928D01*
G01X10823Y4937D01*
G01X10817Y4945D01*
G01X10809Y4952D01*
G01X10801Y4957D01*
G01X10791Y4959D01*
G01X10781Y4960D01*
G01X10770Y4958D01*
G01X10757Y4953D01*
G01X10744Y4943D01*
G01X10730Y4930D01*
G01X10433Y4579D01*
G01X10131Y4930D01*
G01X10118Y4943D01*
G01X10106Y4953D01*
G01X10094Y4958D01*
G37*

%LPD*%
G36*
G01X10105Y4210D02*
G01X10083Y4214D01*
G01X10060Y4210D01*
G01X10045Y4196D01*
G01X10035Y4175D01*
G01X10032Y4145D01*
G01X10032Y3706D01*
G01X10761Y3706D01*
G01X10791Y3709D01*
G01X10812Y3718D01*
G01X10825Y3734D01*
G01X10830Y3756D01*
G01X10825Y3779D01*
G01X10812Y3794D01*
G01X10791Y3804D01*
G01X10761Y3807D01*
G01X10134Y3807D01*
G01X10134Y4145D01*
G01X10131Y4175D01*
G01X10121Y4196D01*
G01X10105Y4210D01*
G37*

%LPD*%
G36*
G01X10105Y3465D02*
G01X10083Y3469D01*
G01X10060Y3465D01*
G01X10045Y3453D01*
G01X10035Y3432D01*
G01X10032Y3403D01*
G01X10032Y3223D01*
G01X10038Y3180D01*
G01X10054Y3144D01*
G01X10081Y3113D01*
G01X10118Y3088D01*
G01X10332Y2984D01*
G01X10355Y2974D01*
G01X10379Y2967D01*
G01X10404Y2963D01*
G01X10431Y2961D01*
G01X10458Y2963D01*
G01X10484Y2967D01*
G01X10509Y2974D01*
G01X10532Y2984D01*
G01X10746Y3088D01*
G01X10783Y3113D01*
G01X10811Y3145D01*
G01X10827Y3184D01*
G01X10832Y3231D01*
G01X10832Y3403D01*
G01X10829Y3432D01*
G01X10819Y3453D01*
G01X10804Y3465D01*
G01X10781Y3469D01*
G01X10759Y3465D01*
G01X10743Y3453D01*
G01X10734Y3432D01*
G01X10730Y3403D01*
G01X10730Y3233D01*
G01X10728Y3215D01*
G01X10722Y3201D01*
G01X10712Y3189D01*
G01X10697Y3180D01*
G01X10497Y3081D01*
G01X10481Y3074D01*
G01X10464Y3069D01*
G01X10448Y3067D01*
G01X10431Y3066D01*
G01X10416Y3067D01*
G01X10400Y3069D01*
G01X10385Y3074D01*
G01X10370Y3081D01*
G01X10169Y3177D01*
G01X10153Y3188D01*
G01X10143Y3202D01*
G01X10136Y3218D01*
G01X10134Y3238D01*
G01X10134Y3403D01*
G01X10131Y3432D01*
G01X10121Y3453D01*
G01X10105Y3465D01*
G37*

%LPD*%

%LPD*%
G36*
G01X13309Y4958D02*
G01X12575Y4958D01*
G01X12575Y4823D01*
G01X13192Y4551D01*
G01X12643Y4551D01*
G01X12613Y4548D01*
G01X12592Y4539D01*
G01X12579Y4523D01*
G01X12575Y4501D01*
G01X12579Y4478D01*
G01X12592Y4463D01*
G01X12613Y4453D01*
G01X12643Y4450D01*
G01X13375Y4450D01*
G01X13375Y4584D01*
G01X12752Y4856D01*
G01X13309Y4856D01*
G01X13338Y4859D01*
G01X13358Y4869D01*
G01X13371Y4885D01*
G01X13375Y4907D01*
G01X13371Y4929D01*
G01X13358Y4945D01*
G01X13338Y4955D01*
G01X13309Y4958D01*
G37*

%LPD*%
G36*
G01X12650Y4210D02*
G01X12628Y4214D01*
G01X12605Y4210D01*
G01X12588Y4196D01*
G01X12578Y4175D01*
G01X12575Y4145D01*
G01X12575Y3777D01*
G01X12578Y3747D01*
G01X12588Y3725D01*
G01X12605Y3712D01*
G01X12628Y3708D01*
G01X12650Y3712D01*
G01X12666Y3725D01*
G01X12676Y3747D01*
G01X12679Y3777D01*
G01X12679Y3909D01*
G01X13273Y3909D01*
G01X13273Y3774D01*
G01X13277Y3744D01*
G01X13286Y3723D01*
G01X13303Y3710D01*
G01X13326Y3706D01*
G01X13348Y3710D01*
G01X13362Y3723D01*
G01X13372Y3744D01*
G01X13375Y3774D01*
G01X13375Y4145D01*
G01X13372Y4175D01*
G01X13362Y4196D01*
G01X13348Y4210D01*
G01X13326Y4214D01*
G01X13303Y4210D01*
G01X13286Y4196D01*
G01X13277Y4175D01*
G01X13273Y4145D01*
G01X13273Y4010D01*
G01X12679Y4010D01*
G01X12679Y4145D01*
G01X12676Y4175D01*
G01X12666Y4196D01*
G01X12650Y4210D01*
G37*

%LPD*%
G36*
G01X13004Y3468D02*
G01X12978Y3469D01*
G01X12949Y3468D01*
G01X12921Y3463D01*
G01X12896Y3455D01*
G01X12872Y3444D01*
G01X12661Y3340D01*
G01X12623Y3315D01*
G01X12596Y3283D01*
G01X12580Y3243D01*
G01X12575Y3195D01*
G01X12575Y3027D01*
G01X12578Y2997D01*
G01X12588Y2976D01*
G01X12605Y2963D01*
G01X12628Y2959D01*
G01X12650Y2963D01*
G01X12666Y2976D01*
G01X12676Y2997D01*
G01X12679Y3027D01*
G01X12679Y3063D01*
G01X13273Y3063D01*
G01X13273Y3027D01*
G01X13277Y2997D01*
G01X13286Y2976D01*
G01X13303Y2963D01*
G01X13326Y2959D01*
G01X13348Y2963D01*
G01X13362Y2976D01*
G01X13372Y2997D01*
G01X13375Y3027D01*
G01X13375Y3205D01*
G01X13369Y3249D01*
G01X13352Y3286D01*
G01X13325Y3317D01*
G01X13286Y3342D01*
G01X13080Y3444D01*
G01X13055Y3455D01*
G01X13029Y3463D01*
G01X13004Y3468D01*
G37*

%LPC*%
G36*
G01X12991Y3366D02*
G01X12976Y3368D01*
G01X12961Y3367D01*
G01X12946Y3364D01*
G01X12932Y3359D01*
G01X12917Y3353D01*
G01X12709Y3251D01*
G01X12696Y3242D01*
G01X12686Y3230D01*
G01X12681Y3215D01*
G01X12679Y3198D01*
G01X12679Y3165D01*
G01X13273Y3165D01*
G01X13273Y3195D01*
G01X13271Y3213D01*
G01X13265Y3228D01*
G01X13256Y3239D01*
G01X13243Y3248D01*
G01X13044Y3347D01*
G01X13025Y3356D01*
G01X13007Y3363D01*
G01X12991Y3366D01*
G37*

%LPD*%

%LPD*%
G36*
G01X19732Y18889D02*
G01X19582Y18889D01*
G01X19551Y18885D01*
G01X19529Y18875D01*
G01X19516Y18857D01*
G01X19511Y18833D01*
G01X19516Y18810D01*
G01X19529Y18795D01*
G01X19551Y18785D01*
G01X19582Y18782D01*
G01X19717Y18782D01*
G01X19746Y18778D01*
G01X19767Y18766D01*
G01X19779Y18746D01*
G01X19783Y18719D01*
G01X19783Y18632D01*
G01X19779Y18606D01*
G01X19767Y18586D01*
G01X19747Y18575D01*
G01X19720Y18571D01*
G01X19128Y18571D01*
G01X19097Y18568D01*
G01X19074Y18558D01*
G01X19061Y18541D01*
G01X19057Y18518D01*
G01X19061Y18494D01*
G01X19074Y18478D01*
G01X19097Y18468D01*
G01X19128Y18465D01*
G01X19720Y18465D01*
G01X19756Y18468D01*
G01X19788Y18476D01*
G01X19817Y18490D01*
G01X19841Y18510D01*
G01X19863Y18535D01*
G01X19878Y18563D01*
G01X19887Y18595D01*
G01X19890Y18630D01*
G01X19890Y18719D01*
G01X19887Y18754D01*
G01X19879Y18786D01*
G01X19864Y18815D01*
G01X19844Y18840D01*
G01X19821Y18862D01*
G01X19795Y18877D01*
G01X19765Y18886D01*
G01X19732Y18889D01*
G37*

%LPD*%
G36*
G01X19890Y18162D02*
G01X19128Y18162D01*
G01X19097Y18159D01*
G01X19074Y18150D01*
G01X19061Y18134D01*
G01X19057Y18111D01*
G01X19061Y18087D01*
G01X19074Y18070D01*
G01X19097Y18059D01*
G01X19128Y18056D01*
G01X19783Y18056D01*
G01X19783Y17708D01*
G01X19787Y17677D01*
G01X19796Y17654D01*
G01X19813Y17641D01*
G01X19836Y17636D01*
G01X19860Y17641D01*
G01X19877Y17654D01*
G01X19886Y17677D01*
G01X19890Y17708D01*
G01X19890Y18162D01*
G37*

%LPD*%
G36*
G01X19501Y17389D02*
G01X19473Y17390D01*
G01X19445Y17389D01*
G01X19418Y17384D01*
G01X19393Y17376D01*
G01X19369Y17365D01*
G01X19146Y17255D01*
G01X19106Y17229D01*
G01X19079Y17196D01*
G01X19062Y17155D01*
G01X19057Y17108D01*
G01X19057Y16928D01*
G01X19060Y16898D01*
G01X19069Y16877D01*
G01X19085Y16863D01*
G01X19107Y16859D01*
G01X19131Y16863D01*
G01X19148Y16877D01*
G01X19157Y16898D01*
G01X19161Y16928D01*
G01X19161Y17106D01*
G01X19163Y17123D01*
G01X19169Y17139D01*
G01X19180Y17151D01*
G01X19194Y17161D01*
G01X19405Y17266D01*
G01X19421Y17272D01*
G01X19439Y17277D01*
G01X19457Y17280D01*
G01X19476Y17281D01*
G01X19491Y17280D01*
G01X19507Y17277D01*
G01X19523Y17272D01*
G01X19539Y17266D01*
G01X19747Y17161D01*
G01X19763Y17151D01*
G01X19774Y17138D01*
G01X19781Y17120D01*
G01X19783Y17101D01*
G01X19783Y16928D01*
G01X19787Y16898D01*
G01X19796Y16877D01*
G01X19813Y16863D01*
G01X19836Y16859D01*
G01X19860Y16863D01*
G01X19877Y16877D01*
G01X19886Y16898D01*
G01X19890Y16928D01*
G01X19890Y17116D01*
G01X19884Y17160D01*
G01X19867Y17198D01*
G01X19838Y17230D01*
G01X19798Y17255D01*
G01X19577Y17365D01*
G01X19553Y17376D01*
G01X19527Y17384D01*
G01X19501Y17389D01*
G37*

%LPD*%
G36*
G01X19732Y16562D02*
G01X19582Y16562D01*
G01X19551Y16558D01*
G01X19529Y16549D01*
G01X19516Y16532D01*
G01X19511Y16509D01*
G01X19516Y16485D01*
G01X19529Y16469D01*
G01X19551Y16459D01*
G01X19582Y16455D01*
G01X19717Y16455D01*
G01X19746Y16452D01*
G01X19767Y16440D01*
G01X19779Y16421D01*
G01X19783Y16394D01*
G01X19783Y16308D01*
G01X19779Y16280D01*
G01X19767Y16260D01*
G01X19747Y16249D01*
G01X19720Y16245D01*
G01X19128Y16245D01*
G01X19097Y16242D01*
G01X19074Y16232D01*
G01X19061Y16216D01*
G01X19057Y16194D01*
G01X19061Y16169D01*
G01X19074Y16152D01*
G01X19097Y16141D01*
G01X19128Y16138D01*
G01X19720Y16138D01*
G01X19756Y16141D01*
G01X19788Y16150D01*
G01X19817Y16164D01*
G01X19841Y16184D01*
G01X19863Y16208D01*
G01X19878Y16236D01*
G01X19887Y16268D01*
G01X19890Y16303D01*
G01X19890Y16394D01*
G01X19887Y16429D01*
G01X19879Y16462D01*
G01X19864Y16490D01*
G01X19844Y16516D01*
G01X19821Y16536D01*
G01X19795Y16551D01*
G01X19765Y16559D01*
G01X19732Y16562D01*
G37*

%LPD*%
G36*
G01X19890Y15838D02*
G01X19128Y15838D01*
G01X19097Y15835D01*
G01X19074Y15825D01*
G01X19061Y15808D01*
G01X19057Y15785D01*
G01X19061Y15761D01*
G01X19074Y15745D01*
G01X19097Y15735D01*
G01X19128Y15731D01*
G01X19783Y15731D01*
G01X19783Y15381D01*
G01X19787Y15350D01*
G01X19796Y15328D01*
G01X19813Y15314D01*
G01X19836Y15310D01*
G01X19860Y15314D01*
G01X19877Y15328D01*
G01X19886Y15350D01*
G01X19890Y15381D01*
G01X19890Y15838D01*
G37*

%LPD*%
G36*
G01X19501Y15062D02*
G01X19473Y15063D01*
G01X19445Y15062D01*
G01X19418Y15058D01*
G01X19393Y15051D01*
G01X19369Y15041D01*
G01X19146Y14931D01*
G01X19106Y14905D01*
G01X19079Y14872D01*
G01X19062Y14831D01*
G01X19057Y14784D01*
G01X19057Y14604D01*
G01X19060Y14574D01*
G01X19069Y14552D01*
G01X19085Y14539D01*
G01X19107Y14535D01*
G01X19131Y14539D01*
G01X19148Y14552D01*
G01X19157Y14574D01*
G01X19161Y14604D01*
G01X19161Y14779D01*
G01X19163Y14798D01*
G01X19169Y14814D01*
G01X19180Y14826D01*
G01X19194Y14835D01*
G01X19405Y14939D01*
G01X19421Y14947D01*
G01X19439Y14952D01*
G01X19457Y14956D01*
G01X19476Y14957D01*
G01X19491Y14956D01*
G01X19507Y14952D01*
G01X19523Y14947D01*
G01X19539Y14939D01*
G01X19747Y14837D01*
G01X19763Y14827D01*
G01X19774Y14814D01*
G01X19781Y14796D01*
G01X19783Y14776D01*
G01X19783Y14604D01*
G01X19787Y14574D01*
G01X19796Y14552D01*
G01X19813Y14539D01*
G01X19836Y14535D01*
G01X19860Y14539D01*
G01X19877Y14552D01*
G01X19886Y14574D01*
G01X19890Y14604D01*
G01X19890Y14789D01*
G01X19884Y14834D01*
G01X19867Y14873D01*
G01X19838Y14905D01*
G01X19798Y14931D01*
G01X19577Y15041D01*
G01X19553Y15051D01*
G01X19527Y15058D01*
G01X19501Y15062D01*
G37*

%LPD*%
G36*
G01X19732Y14238D02*
G01X19582Y14238D01*
G01X19551Y14234D01*
G01X19529Y14225D01*
G01X19516Y14208D01*
G01X19511Y14185D01*
G01X19516Y14161D01*
G01X19529Y14144D01*
G01X19551Y14135D01*
G01X19582Y14131D01*
G01X19717Y14131D01*
G01X19746Y14127D01*
G01X19767Y14116D01*
G01X19779Y14096D01*
G01X19783Y14068D01*
G01X19783Y13984D01*
G01X19779Y13956D01*
G01X19767Y13936D01*
G01X19747Y13925D01*
G01X19720Y13920D01*
G01X19128Y13920D01*
G01X19097Y13917D01*
G01X19074Y13907D01*
G01X19061Y13890D01*
G01X19057Y13867D01*
G01X19061Y13844D01*
G01X19074Y13827D01*
G01X19097Y13817D01*
G01X19128Y13814D01*
G01X19720Y13814D01*
G01X19756Y13817D01*
G01X19788Y13825D01*
G01X19817Y13840D01*
G01X19841Y13859D01*
G01X19863Y13884D01*
G01X19878Y13912D01*
G01X19887Y13944D01*
G01X19890Y13979D01*
G01X19890Y14068D01*
G01X19887Y14104D01*
G01X19879Y14136D01*
G01X19864Y14165D01*
G01X19844Y14190D01*
G01X19821Y14211D01*
G01X19795Y14226D01*
G01X19765Y14235D01*
G01X19732Y14238D01*
G37*

%LPD*%
G36*
G01X19890Y13512D02*
G01X19128Y13512D01*
G01X19097Y13508D01*
G01X19074Y13499D01*
G01X19061Y13483D01*
G01X19057Y13461D01*
G01X19061Y13437D01*
G01X19074Y13421D01*
G01X19097Y13411D01*
G01X19128Y13407D01*
G01X19783Y13407D01*
G01X19783Y13057D01*
G01X19787Y13026D01*
G01X19796Y13004D01*
G01X19813Y12990D01*
G01X19836Y12986D01*
G01X19860Y12990D01*
G01X19877Y13004D01*
G01X19886Y13026D01*
G01X19890Y13057D01*
G01X19890Y13512D01*
G37*

%LPD*%
G36*
G01X19501Y12738D02*
G01X19473Y12739D01*
G01X19445Y12738D01*
G01X19418Y12734D01*
G01X19393Y12727D01*
G01X19369Y12716D01*
G01X19146Y12605D01*
G01X19106Y12578D01*
G01X19079Y12546D01*
G01X19062Y12506D01*
G01X19057Y12460D01*
G01X19057Y12280D01*
G01X19060Y12249D01*
G01X19069Y12226D01*
G01X19085Y12213D01*
G01X19107Y12208D01*
G01X19131Y12213D01*
G01X19148Y12226D01*
G01X19157Y12249D01*
G01X19161Y12280D01*
G01X19161Y12455D01*
G01X19163Y12473D01*
G01X19169Y12488D01*
G01X19180Y12501D01*
G01X19194Y12511D01*
G01X19405Y12615D01*
G01X19421Y12623D01*
G01X19439Y12628D01*
G01X19457Y12632D01*
G01X19476Y12633D01*
G01X19491Y12632D01*
G01X19507Y12628D01*
G01X19523Y12623D01*
G01X19539Y12615D01*
G01X19747Y12513D01*
G01X19763Y12502D01*
G01X19774Y12488D01*
G01X19781Y12472D01*
G01X19783Y12452D01*
G01X19783Y12280D01*
G01X19787Y12249D01*
G01X19796Y12226D01*
G01X19813Y12213D01*
G01X19836Y12208D01*
G01X19860Y12213D01*
G01X19877Y12226D01*
G01X19886Y12249D01*
G01X19890Y12280D01*
G01X19890Y12465D01*
G01X19884Y12509D01*
G01X19867Y12547D01*
G01X19838Y12579D01*
G01X19798Y12605D01*
G01X19577Y12716D01*
G01X19553Y12727D01*
G01X19527Y12734D01*
G01X19501Y12738D01*
G37*

%LPD*%
G36*
G01X19732Y11914D02*
G01X19582Y11914D01*
G01X19551Y11910D01*
G01X19529Y11900D01*
G01X19516Y11882D01*
G01X19511Y11858D01*
G01X19516Y11836D01*
G01X19529Y11820D01*
G01X19551Y11810D01*
G01X19582Y11807D01*
G01X19717Y11807D01*
G01X19746Y11803D01*
G01X19767Y11791D01*
G01X19779Y11772D01*
G01X19783Y11744D01*
G01X19783Y11657D01*
G01X19779Y11631D01*
G01X19767Y11612D01*
G01X19747Y11600D01*
G01X19720Y11596D01*
G01X19128Y11596D01*
G01X19097Y11593D01*
G01X19074Y11583D01*
G01X19061Y11566D01*
G01X19057Y11543D01*
G01X19061Y11520D01*
G01X19074Y11503D01*
G01X19097Y11493D01*
G01X19128Y11490D01*
G01X19720Y11490D01*
G01X19756Y11493D01*
G01X19788Y11501D01*
G01X19817Y11516D01*
G01X19841Y11535D01*
G01X19863Y11560D01*
G01X19878Y11588D01*
G01X19887Y11620D01*
G01X19890Y11655D01*
G01X19890Y11744D01*
G01X19887Y11779D01*
G01X19879Y11811D01*
G01X19864Y11840D01*
G01X19844Y11866D01*
G01X19821Y11887D01*
G01X19795Y11902D01*
G01X19765Y11911D01*
G01X19732Y11914D01*
G37*

%LPD*%
G36*
G01X19890Y11187D02*
G01X19128Y11187D01*
G01X19097Y11184D01*
G01X19074Y11174D01*
G01X19061Y11157D01*
G01X19057Y11134D01*
G01X19061Y11111D01*
G01X19074Y11094D01*
G01X19097Y11084D01*
G01X19128Y11081D01*
G01X19783Y11081D01*
G01X19783Y10733D01*
G01X19787Y10701D01*
G01X19796Y10677D01*
G01X19813Y10664D01*
G01X19836Y10659D01*
G01X19860Y10664D01*
G01X19877Y10677D01*
G01X19886Y10701D01*
G01X19890Y10733D01*
G01X19890Y11187D01*
G37*

%LPD*%
G36*
G01X19501Y10414D02*
G01X19473Y10415D01*
G01X19445Y10414D01*
G01X19418Y10409D01*
G01X19393Y10401D01*
G01X19369Y10390D01*
G01X19146Y10281D01*
G01X19106Y10254D01*
G01X19079Y10221D01*
G01X19062Y10181D01*
G01X19057Y10133D01*
G01X19057Y9953D01*
G01X19060Y9923D01*
G01X19069Y9902D01*
G01X19085Y9888D01*
G01X19107Y9884D01*
G01X19131Y9888D01*
G01X19148Y9902D01*
G01X19157Y9923D01*
G01X19161Y9953D01*
G01X19161Y10131D01*
G01X19163Y10149D01*
G01X19169Y10163D01*
G01X19180Y10175D01*
G01X19194Y10184D01*
G01X19405Y10291D01*
G01X19421Y10297D01*
G01X19439Y10302D01*
G01X19457Y10305D01*
G01X19476Y10306D01*
G01X19491Y10305D01*
G01X19507Y10302D01*
G01X19523Y10297D01*
G01X19539Y10291D01*
G01X19747Y10187D01*
G01X19763Y10176D01*
G01X19774Y10163D01*
G01X19781Y10146D01*
G01X19783Y10126D01*
G01X19783Y9953D01*
G01X19787Y9923D01*
G01X19796Y9902D01*
G01X19813Y9888D01*
G01X19836Y9884D01*
G01X19860Y9888D01*
G01X19877Y9902D01*
G01X19886Y9923D01*
G01X19890Y9953D01*
G01X19890Y10141D01*
G01X19884Y10185D01*
G01X19867Y10223D01*
G01X19838Y10255D01*
G01X19798Y10281D01*
G01X19577Y10390D01*
G01X19553Y10401D01*
G01X19527Y10409D01*
G01X19501Y10414D01*
G37*

%LPD*%

%LPD*%
G36*
G01X6217Y14402D02*
G01X6052Y14402D01*
G01X6014Y14398D01*
G01X5987Y14386D01*
G01X5971Y14366D01*
G01X5965Y14339D01*
G01X5971Y14311D01*
G01X5987Y14291D01*
G01X6014Y14279D01*
G01X6052Y14275D01*
G01X6218Y14275D01*
G01X6231Y14274D01*
G01X6242Y14272D01*
G01X6250Y14270D01*
G01X6256Y14265D01*
G01X6263Y14257D01*
G01X6272Y14247D01*
G01X6283Y14234D01*
G01X6443Y14029D01*
G01X6456Y14007D01*
G01X6466Y13984D01*
G01X6471Y13958D01*
G01X6473Y13930D01*
G01X6473Y13604D01*
G01X6469Y13571D01*
G01X6455Y13548D01*
G01X6432Y13533D01*
G01X6400Y13528D01*
G01X6164Y13528D01*
G01X6132Y13533D01*
G01X6110Y13548D01*
G01X6097Y13571D01*
G01X6092Y13604D01*
G01X6092Y13726D01*
G01X6199Y13726D01*
G01X6237Y13730D01*
G01X6264Y13743D01*
G01X6280Y13762D01*
G01X6285Y13790D01*
G01X6280Y13818D01*
G01X6264Y13838D01*
G01X6237Y13850D01*
G01X6199Y13853D01*
G01X5965Y13853D01*
G01X5965Y13587D01*
G01X5969Y13551D01*
G01X5979Y13518D01*
G01X5997Y13487D01*
G01X6021Y13457D01*
G01X6051Y13433D01*
G01X6084Y13416D01*
G01X6119Y13405D01*
G01X6156Y13401D01*
G01X6410Y13401D01*
G01X6449Y13405D01*
G01X6485Y13416D01*
G01X6518Y13433D01*
G01X6547Y13457D01*
G01X6570Y13487D01*
G01X6587Y13520D01*
G01X6597Y13556D01*
G01X6600Y13594D01*
G01X6600Y13947D01*
G01X6596Y13990D01*
G01X6586Y14031D01*
G01X6567Y14070D01*
G01X6542Y14107D01*
G01X6374Y14326D01*
G01X6341Y14359D01*
G01X6304Y14383D01*
G01X6263Y14397D01*
G01X6217Y14402D01*
G37*

%LPD*%
G36*
G01X6988Y14394D02*
G01X6959Y14399D01*
G01X6932Y14394D01*
G01X6913Y14379D01*
G01X6901Y14353D01*
G01X6898Y14316D01*
G01X6898Y13565D01*
G01X6900Y13556D01*
G01X6903Y13548D01*
G01X6908Y13538D01*
G01X6969Y13432D01*
G01X6978Y13419D01*
G01X6991Y13409D01*
G01X7005Y13403D01*
G01X7022Y13401D01*
G01X7154Y13401D01*
G01X7176Y13405D01*
G01X7193Y13416D01*
G01X7206Y13433D01*
G01X7215Y13457D01*
G01X7226Y13433D01*
G01X7241Y13416D01*
G01X7259Y13405D01*
G01X7281Y13401D01*
G01X7406Y13401D01*
G01X7423Y13403D01*
G01X7439Y13409D01*
G01X7451Y13419D01*
G01X7462Y13432D01*
G01X7528Y13544D01*
G01X7531Y13551D01*
G01X7533Y13558D01*
G01X7535Y13566D01*
G01X7535Y14316D01*
G01X7531Y14353D01*
G01X7518Y14379D01*
G01X7498Y14394D01*
G01X7469Y14399D01*
G01X7441Y14394D01*
G01X7421Y14379D01*
G01X7409Y14353D01*
G01X7406Y14316D01*
G01X7406Y13592D01*
G01X7370Y13528D01*
G01X7317Y13528D01*
G01X7281Y13592D01*
G01X7281Y13988D01*
G01X7277Y14025D01*
G01X7264Y14051D01*
G01X7244Y14067D01*
G01X7215Y14072D01*
G01X7188Y14067D01*
G01X7169Y14051D01*
G01X7158Y14025D01*
G01X7154Y13988D01*
G01X7154Y13592D01*
G01X7116Y13528D01*
G01X7063Y13528D01*
G01X7025Y13592D01*
G01X7025Y14316D01*
G01X7021Y14353D01*
G01X7008Y14379D01*
G01X6988Y14394D01*
G37*

%LPD*%
G36*
G01X8127Y14402D02*
G01X7911Y14402D01*
G01X7874Y14398D01*
G01X7848Y14386D01*
G01X7832Y14366D01*
G01X7827Y14339D01*
G01X7832Y14311D01*
G01X7848Y14291D01*
G01X7874Y14279D01*
G01X7911Y14275D01*
G01X8122Y14275D01*
G01X8143Y14272D01*
G01X8161Y14265D01*
G01X8176Y14252D01*
G01X8188Y14234D01*
G01X8315Y13980D01*
G01X8323Y13961D01*
G01X8328Y13941D01*
G01X8331Y13920D01*
G01X8333Y13899D01*
G01X8331Y13880D01*
G01X8328Y13861D01*
G01X8323Y13842D01*
G01X8315Y13823D01*
G01X8190Y13571D01*
G01X8177Y13553D01*
G01X8161Y13539D01*
G01X8140Y13531D01*
G01X8117Y13528D01*
G01X7911Y13528D01*
G01X7874Y13525D01*
G01X7848Y13513D01*
G01X7832Y13493D01*
G01X7827Y13465D01*
G01X7832Y13437D01*
G01X7848Y13418D01*
G01X7874Y13405D01*
G01X7911Y13401D01*
G01X8135Y13401D01*
G01X8188Y13408D01*
G01X8234Y13428D01*
G01X8272Y13462D01*
G01X8302Y13508D01*
G01X8434Y13777D01*
G01X8447Y13806D01*
G01X8455Y13837D01*
G01X8460Y13869D01*
G01X8462Y13902D01*
G01X8460Y13935D01*
G01X8455Y13967D01*
G01X8447Y13998D01*
G01X8434Y14026D01*
G01X8302Y14293D01*
G01X8271Y14341D01*
G01X8232Y14375D01*
G01X8183Y14395D01*
G01X8127Y14402D01*
G37*

%LPD*%
G36*
G01X9326Y14402D02*
G01X8823Y14402D01*
G01X8809Y14401D01*
G01X8797Y14397D01*
G01X8785Y14391D01*
G01X8775Y14382D01*
G01X8767Y14373D01*
G01X8761Y14361D01*
G01X8758Y14350D01*
G01X8757Y14336D01*
G01X8757Y13462D01*
G01X8758Y13450D01*
G01X8761Y13439D01*
G01X8767Y13429D01*
G01X8775Y13419D01*
G01X8784Y13411D01*
G01X8794Y13406D01*
G01X8806Y13403D01*
G01X8818Y13401D01*
G01X8884Y13401D01*
G01X8897Y13403D01*
G01X8909Y13406D01*
G01X8920Y13411D01*
G01X8930Y13419D01*
G01X8937Y13430D01*
G01X8943Y13441D01*
G01X8946Y13453D01*
G01X8947Y13465D01*
G01X8943Y13490D01*
G01X8931Y13509D01*
G01X8911Y13522D01*
G01X8884Y13528D01*
G01X8884Y13945D01*
G01X9331Y13945D01*
G01X9357Y13949D01*
G01X9377Y13962D01*
G01X9388Y13983D01*
G01X9392Y14013D01*
G01X9392Y14336D01*
G01X9388Y14365D01*
G01X9375Y14386D01*
G01X9355Y14398D01*
G01X9326Y14402D01*
G37*

%LPC*%
G36*
G01X9265Y14275D02*
G01X8884Y14275D01*
G01X8884Y14072D01*
G01X9265Y14072D01*
G01X9265Y14275D01*
G37*

%LPD*%
G36*
G01X10235Y14402D02*
G01X9941Y14402D01*
G01X9941Y13528D01*
G01X9814Y13528D01*
G01X9814Y13770D01*
G01X9809Y13807D01*
G01X9797Y13833D01*
G01X9776Y13848D01*
G01X9748Y13853D01*
G01X9720Y13848D01*
G01X9700Y13833D01*
G01X9688Y13807D01*
G01X9684Y13770D01*
G01X9684Y13470D01*
G01X9688Y13440D01*
G01X9699Y13419D01*
G01X9718Y13406D01*
G01X9745Y13401D01*
G01X10235Y13401D01*
G01X10273Y13405D01*
G01X10300Y13418D01*
G01X10316Y13437D01*
G01X10322Y13465D01*
G01X10316Y13493D01*
G01X10300Y13513D01*
G01X10273Y13525D01*
G01X10235Y13528D01*
G01X10068Y13528D01*
G01X10068Y14275D01*
G01X10235Y14275D01*
G01X10273Y14279D01*
G01X10300Y14291D01*
G01X10316Y14311D01*
G01X10322Y14339D01*
G01X10316Y14366D01*
G01X10300Y14386D01*
G01X10273Y14398D01*
G01X10235Y14402D01*
G37*

%LPD*%
G36*
G01X11167Y14402D02*
G01X10746Y14402D01*
G01X10719Y14400D01*
G01X10695Y14393D01*
G01X10673Y14381D01*
G01X10654Y14364D01*
G01X10638Y14344D01*
G01X10625Y14321D01*
G01X10618Y14295D01*
G01X10616Y14267D01*
G01X10616Y13965D01*
G01X10618Y13939D01*
G01X10625Y13914D01*
G01X10638Y13893D01*
G01X10654Y13874D01*
G01X10673Y13857D01*
G01X10695Y13845D01*
G01X10719Y13838D01*
G01X10746Y13836D01*
G01X11124Y13836D01*
G01X11124Y13528D01*
G01X10703Y13528D01*
G01X10664Y13525D01*
G01X10638Y13513D01*
G01X10621Y13493D01*
G01X10616Y13465D01*
G01X10621Y13437D01*
G01X10638Y13418D01*
G01X10664Y13405D01*
G01X10703Y13401D01*
G01X11254Y13401D01*
G01X11254Y13836D01*
G01X11251Y13863D01*
G01X11244Y13886D01*
G01X11232Y13908D01*
G01X11216Y13927D01*
G01X11196Y13944D01*
G01X11175Y13956D01*
G01X11151Y13963D01*
G01X11124Y13965D01*
G01X10746Y13965D01*
G01X10746Y14275D01*
G01X11167Y14275D01*
G01X11205Y14279D01*
G01X11232Y14291D01*
G01X11248Y14311D01*
G01X11254Y14339D01*
G01X11248Y14366D01*
G01X11232Y14386D01*
G01X11205Y14398D01*
G01X11167Y14402D01*
G37*

%LPD*%
G36*
G01X12115Y14402D02*
G01X11546Y14402D01*
G01X11546Y14013D01*
G01X11547Y13998D01*
G01X11552Y13984D01*
G01X11560Y13971D01*
G01X11571Y13960D01*
G01X11774Y13782D01*
G01X11786Y13772D01*
G01X11793Y13759D01*
G01X11798Y13746D01*
G01X11800Y13731D01*
G01X11800Y13488D01*
G01X11803Y13450D01*
G01X11815Y13423D01*
G01X11834Y13407D01*
G01X11861Y13401D01*
G01X11890Y13407D01*
G01X11910Y13423D01*
G01X11923Y13450D01*
G01X11927Y13488D01*
G01X11927Y13792D01*
G01X11925Y13807D01*
G01X11921Y13820D01*
G01X11914Y13831D01*
G01X11904Y13841D01*
G01X11703Y14013D01*
G01X11691Y14027D01*
G01X11682Y14043D01*
G01X11677Y14060D01*
G01X11675Y14079D01*
G01X11675Y14275D01*
G01X12056Y14275D01*
G01X12064Y14250D01*
G01X12077Y14231D01*
G01X12094Y14221D01*
G01X12117Y14217D01*
G01X12146Y14222D01*
G01X12167Y14235D01*
G01X12179Y14258D01*
G01X12183Y14290D01*
G01X12183Y14328D01*
G01X12179Y14361D01*
G01X12166Y14384D01*
G01X12145Y14397D01*
G01X12115Y14402D01*
G37*

%LPD*%
G36*
G01X12557Y14399D02*
G01X12539Y14402D01*
G01X12527Y14401D01*
G01X12515Y14397D01*
G01X12505Y14391D01*
G01X12487Y14373D01*
G01X12481Y14363D01*
G01X12476Y14352D01*
G01X12475Y14341D01*
G01X12476Y14329D01*
G01X12481Y14316D01*
G01X12487Y14301D01*
G01X12496Y14285D01*
G01X12719Y13902D01*
G01X12496Y13516D01*
G01X12487Y13500D01*
G01X12481Y13486D01*
G01X12476Y13473D01*
G01X12475Y13462D01*
G01X12476Y13451D01*
G01X12481Y13440D01*
G01X12487Y13430D01*
G01X12496Y13419D01*
G01X12505Y13411D01*
G01X12515Y13406D01*
G01X12527Y13403D01*
G01X12539Y13401D01*
G01X12557Y13405D01*
G01X12575Y13414D01*
G01X12592Y13430D01*
G01X12608Y13452D01*
G01X12796Y13772D01*
G01X12981Y13452D01*
G01X12997Y13430D01*
G01X13013Y13414D01*
G01X13031Y13405D01*
G01X13050Y13401D01*
G01X13061Y13403D01*
G01X13071Y13406D01*
G01X13082Y13411D01*
G01X13093Y13419D01*
G01X13101Y13430D01*
G01X13108Y13440D01*
G01X13111Y13451D01*
G01X13113Y13462D01*
G01X13111Y13473D01*
G01X13108Y13486D01*
G01X13093Y13516D01*
G01X12869Y13902D01*
G01X13093Y14285D01*
G01X13101Y14301D01*
G01X13108Y14316D01*
G01X13111Y14329D01*
G01X13113Y14341D01*
G01X13111Y14352D01*
G01X13108Y14363D01*
G01X13101Y14373D01*
G01X13093Y14382D01*
G01X13083Y14391D01*
G01X13073Y14397D01*
G01X13062Y14401D01*
G01X13050Y14402D01*
G01X13032Y14399D01*
G01X13015Y14389D01*
G01X12999Y14374D01*
G01X12983Y14351D01*
G01X12796Y14029D01*
G01X12608Y14351D01*
G01X12592Y14374D01*
G01X12575Y14389D01*
G01X12557Y14399D01*
G37*

%LPD*%
G36*
G01X14500Y14402D02*
G01X14337Y14402D01*
G01X14337Y13488D01*
G01X14341Y13450D01*
G01X14353Y13423D01*
G01X14373Y13407D01*
G01X14401Y13401D01*
G01X14428Y13407D01*
G01X14448Y13423D01*
G01X14460Y13450D01*
G01X14464Y13488D01*
G01X14464Y14224D01*
G01X14591Y14044D01*
G01X14591Y14031D01*
G01X14595Y13994D01*
G01X14607Y13967D01*
G01X14627Y13950D01*
G01X14655Y13945D01*
G01X14682Y13950D01*
G01X14702Y13967D01*
G01X14714Y13994D01*
G01X14718Y14031D01*
G01X14718Y14044D01*
G01X14845Y14224D01*
G01X14845Y13488D01*
G01X14849Y13450D01*
G01X14861Y13423D01*
G01X14881Y13407D01*
G01X14909Y13401D01*
G01X14936Y13407D01*
G01X14956Y13423D01*
G01X14968Y13450D01*
G01X14972Y13488D01*
G01X14972Y14402D01*
G01X14810Y14402D01*
G01X14655Y14176D01*
G01X14500Y14402D01*
G37*

%LPD*%
G36*
G01X13744Y14397D02*
G01X13723Y14399D01*
G01X13701Y14397D01*
G01X13685Y14388D01*
G01X13671Y14373D01*
G01X13662Y14351D01*
G01X13415Y13503D01*
G01X13412Y13491D01*
G01X13409Y13480D01*
G01X13408Y13471D01*
G01X13408Y13462D01*
G01X13409Y13450D01*
G01X13413Y13439D01*
G01X13419Y13429D01*
G01X13428Y13419D01*
G01X13437Y13410D01*
G01X13447Y13404D01*
G01X13459Y13400D01*
G01X13471Y13399D01*
G01X13492Y13403D01*
G01X13510Y13416D01*
G01X13526Y13437D01*
G01X13537Y13467D01*
G01X13583Y13617D01*
G01X13867Y13617D01*
G01X13911Y13467D01*
G01X13922Y13437D01*
G01X13937Y13416D01*
G01X13957Y13403D01*
G01X13979Y13399D01*
G01X13991Y13400D01*
G01X14003Y13404D01*
G01X14013Y13410D01*
G01X14022Y13419D01*
G01X14030Y13429D01*
G01X14036Y13439D01*
G01X14039Y13450D01*
G01X14040Y13462D01*
G01X14040Y13471D01*
G01X14038Y13480D01*
G01X14036Y13491D01*
G01X14032Y13503D01*
G01X13784Y14351D01*
G01X13775Y14373D01*
G01X13762Y14388D01*
G01X13744Y14397D01*
G37*

%LPC*%
G36*
G01X13829Y13744D02*
G01X13725Y14105D01*
G01X13618Y13744D01*
G01X13829Y13744D01*
G37*

%LPD*%
G75*
G01X17936Y7888D02*
G03X17736Y7688I0J-200D01*
G01*
G75*
G01X19936Y7888D02*
G02X20136Y7688I0J-200D01*
G01*
G75*
G01X17936Y2888D02*
G02X17736Y3088I0J200D01*
G01*
G75*
G01X19936Y2888D02*
G03X20136Y3088I0J200D01*
G01*
G75*
G01X1355Y5389D02*
G02X1355Y5356I2000J-16D01*
G01*
G75*
G01X18150Y13081D02*
G02X18150Y14977I0J948D01*
G01*

%LPD*%
G36*
G01X4753Y4037D02*
G01X1953Y4037D01*
G01X1992Y3990D01*
G01X2033Y3945D01*
G01X2074Y3901D01*
G01X2118Y3859D01*
G01X2162Y3818D01*
G01X2208Y3779D01*
G01X2256Y3741D01*
G01X2304Y3705D01*
G01X2354Y3670D01*
G01X2405Y3638D01*
G01X2457Y3606D01*
G01X2510Y3577D01*
G01X2564Y3550D01*
G01X2619Y3524D01*
G01X2674Y3500D01*
G01X2731Y3478D01*
G01X2788Y3458D01*
G01X2846Y3440D01*
G01X2904Y3424D01*
G01X2963Y3410D01*
G01X3022Y3398D01*
G01X3082Y3387D01*
G01X3142Y3379D01*
G01X3202Y3373D01*
G01X3263Y3369D01*
G01X3323Y3367D01*
G01X3384Y3367D01*
G01X3444Y3369D01*
G01X3505Y3373D01*
G01X3565Y3379D01*
G01X3625Y3387D01*
G01X3685Y3398D01*
G01X3744Y3410D01*
G01X3803Y3424D01*
G01X3861Y3440D01*
G01X3919Y3458D01*
G01X3976Y3478D01*
G01X4033Y3500D01*
G01X4088Y3524D01*
G01X4143Y3550D01*
G01X4197Y3577D01*
G01X4250Y3606D01*
G01X4302Y3638D01*
G01X4353Y3670D01*
G01X4403Y3705D01*
G01X4451Y3741D01*
G01X4499Y3779D01*
G01X4545Y3818D01*
G01X4589Y3859D01*
G01X4633Y3901D01*
G01X4674Y3945D01*
G01X4715Y3990D01*
G01X4753Y4037D01*
G37*
M00*
M02*
