G04 Layer: TopLayer*
G04 EasyEDA v6.3.53, 2020-07-19T22:27:28+02:00*
G04 3120cfb910ab4567be944433c0d318a6,a54f91b67bf74260adec70c9c35cfc8e,10*
G04 Gerber Generator version 0.2*
G04 Scale: 100 percent, Rotated: No, Reflected: No *
G04 Dimensions in millimeters *
G04 leading zeros omitted , absolute positions ,3 integer and 3 decimal *
%FSLAX33Y33*%
%MOMM*%
G90*
G71D02*

%ADD11C,0.100000*%
%ADD12C,0.399999*%
%ADD13R,0.899998X2.799994*%
%ADD14R,1.574800X1.574800*%
%ADD15C,1.574800*%
%ADD16C,0.999998*%

%LPD*%
G36*
G01X20200Y22603D02*
G01X13583Y22603D01*
G01X13568Y22602D01*
G01X13554Y22599D01*
G01X13541Y22594D01*
G01X13528Y22587D01*
G01X13516Y22578D01*
G01X13506Y22568D01*
G01X13490Y22544D01*
G01X13485Y22530D01*
G01X13482Y22516D01*
G01X13481Y22502D01*
G01X13482Y22486D01*
G01X13486Y22471D01*
G01X13492Y22456D01*
G01X13500Y22443D01*
G01X13510Y22431D01*
G01X13521Y22420D01*
G01X13559Y22390D01*
G01X13595Y22359D01*
G01X13630Y22326D01*
G01X13663Y22291D01*
G01X13694Y22254D01*
G01X13724Y22217D01*
G01X13752Y22177D01*
G01X13778Y22137D01*
G01X13802Y22096D01*
G01X13825Y22053D01*
G01X13845Y22010D01*
G01X13863Y21965D01*
G01X13880Y21920D01*
G01X13894Y21874D01*
G01X13906Y21827D01*
G01X13916Y21781D01*
G01X13923Y21733D01*
G01X13929Y21685D01*
G01X13932Y21637D01*
G01X13933Y21589D01*
G01X13932Y21539D01*
G01X13928Y21489D01*
G01X13923Y21439D01*
G01X13914Y21390D01*
G01X13903Y21341D01*
G01X13890Y21293D01*
G01X13875Y21245D01*
G01X13857Y21198D01*
G01X13837Y21151D01*
G01X13832Y21138D01*
G01X13829Y21123D01*
G01X13828Y21109D01*
G01X13829Y21094D01*
G01X13832Y21080D01*
G01X13837Y21066D01*
G01X13844Y21054D01*
G01X13853Y21042D01*
G01X13863Y21032D01*
G01X13875Y21023D01*
G01X13887Y21016D01*
G01X13915Y21008D01*
G01X13929Y21007D01*
G01X19493Y21007D01*
G01X19519Y21006D01*
G01X19544Y21003D01*
G01X19570Y20998D01*
G01X19594Y20990D01*
G01X19618Y20981D01*
G01X19641Y20969D01*
G01X19663Y20956D01*
G01X19683Y20942D01*
G01X19703Y20925D01*
G01X19721Y20906D01*
G01X19737Y20887D01*
G01X19905Y20666D01*
G01X19916Y20655D01*
G01X19928Y20644D01*
G01X19942Y20637D01*
G01X19956Y20631D01*
G01X19971Y20627D01*
G01X19986Y20626D01*
G01X20341Y20626D01*
G01X20356Y20627D01*
G01X20370Y20630D01*
G01X20384Y20635D01*
G01X20396Y20642D01*
G01X20408Y20651D01*
G01X20418Y20661D01*
G01X20427Y20673D01*
G01X20434Y20685D01*
G01X20439Y20699D01*
G01X20442Y20713D01*
G01X20443Y20728D01*
G01X20443Y22359D01*
G01X20442Y22382D01*
G01X20439Y22404D01*
G01X20434Y22426D01*
G01X20427Y22447D01*
G01X20418Y22468D01*
G01X20406Y22488D01*
G01X20394Y22506D01*
G01X20379Y22523D01*
G01X20364Y22539D01*
G01X20346Y22554D01*
G01X20328Y22567D01*
G01X20308Y22577D01*
G01X20287Y22586D01*
G01X20266Y22594D01*
G01X20244Y22599D01*
G01X20222Y22602D01*
G01X20200Y22603D01*
G37*

%LPD*%
G36*
G01X6686Y22603D02*
G01X499Y22603D01*
G01X477Y22602D01*
G01X455Y22599D01*
G01X433Y22594D01*
G01X411Y22586D01*
G01X391Y22577D01*
G01X371Y22567D01*
G01X353Y22554D01*
G01X335Y22539D01*
G01X320Y22523D01*
G01X305Y22506D01*
G01X293Y22488D01*
G01X281Y22468D01*
G01X272Y22447D01*
G01X265Y22426D01*
G01X260Y22404D01*
G01X257Y22382D01*
G01X256Y22359D01*
G01X256Y21573D01*
G01X257Y21558D01*
G01X260Y21544D01*
G01X265Y21531D01*
G01X272Y21518D01*
G01X281Y21506D01*
G01X291Y21496D01*
G01X303Y21487D01*
G01X315Y21481D01*
G01X329Y21475D01*
G01X343Y21472D01*
G01X358Y21471D01*
G01X373Y21472D01*
G01X389Y21476D01*
G01X404Y21483D01*
G01X418Y21491D01*
G01X429Y21501D01*
G01X735Y21806D01*
G01X754Y21824D01*
G01X776Y21841D01*
G01X798Y21855D01*
G01X822Y21867D01*
G01X847Y21878D01*
G01X872Y21885D01*
G01X898Y21891D01*
G01X925Y21895D01*
G01X951Y21896D01*
G01X3110Y21896D01*
G01X3137Y21895D01*
G01X3164Y21891D01*
G01X3190Y21885D01*
G01X3215Y21878D01*
G01X3240Y21867D01*
G01X3264Y21855D01*
G01X3286Y21841D01*
G01X3308Y21824D01*
G01X3327Y21806D01*
G01X4097Y21037D01*
G01X4109Y21027D01*
G01X4122Y21018D01*
G01X4137Y21012D01*
G01X4152Y21009D01*
G01X4169Y21007D01*
G01X4212Y21007D01*
G01X4227Y21008D01*
G01X4255Y21016D01*
G01X4267Y21023D01*
G01X4279Y21032D01*
G01X4289Y21042D01*
G01X4298Y21054D01*
G01X4305Y21066D01*
G01X4310Y21080D01*
G01X4313Y21094D01*
G01X4314Y21109D01*
G01X4312Y21127D01*
G01X4307Y21168D01*
G01X4305Y21208D01*
G01X4306Y21239D01*
G01X4309Y21269D01*
G01X4314Y21299D01*
G01X4321Y21329D01*
G01X4330Y21358D01*
G01X4341Y21387D01*
G01X4354Y21414D01*
G01X4369Y21441D01*
G01X4385Y21467D01*
G01X4403Y21491D01*
G01X4423Y21515D01*
G01X4444Y21536D01*
G01X4466Y21557D01*
G01X4490Y21576D01*
G01X4516Y21593D01*
G01X4542Y21609D01*
G01X4569Y21622D01*
G01X4597Y21634D01*
G01X4626Y21645D01*
G01X4655Y21652D01*
G01X4685Y21658D01*
G01X4715Y21663D01*
G01X4746Y21665D01*
G01X4761Y21666D01*
G01X4776Y21671D01*
G01X4789Y21677D01*
G01X4803Y21685D01*
G01X4814Y21694D01*
G01X5053Y21933D01*
G01X5072Y21951D01*
G01X5094Y21968D01*
G01X5116Y21982D01*
G01X5140Y21994D01*
G01X5165Y22005D01*
G01X5190Y22012D01*
G01X5216Y22018D01*
G01X5243Y22022D01*
G01X5269Y22023D01*
G01X5904Y22023D01*
G01X5930Y22022D01*
G01X5955Y22019D01*
G01X5980Y22013D01*
G01X6005Y22006D01*
G01X6028Y21997D01*
G01X6051Y21985D01*
G01X6073Y21972D01*
G01X6094Y21958D01*
G01X6113Y21941D01*
G01X6443Y21634D01*
G01X6461Y21616D01*
G01X6478Y21597D01*
G01X6492Y21576D01*
G01X6505Y21555D01*
G01X6516Y21532D01*
G01X6525Y21508D01*
G01X6532Y21484D01*
G01X6537Y21460D01*
G01X6540Y21435D01*
G01X6541Y21409D01*
G01X6541Y20728D01*
G01X6542Y20713D01*
G01X6550Y20685D01*
G01X6557Y20673D01*
G01X6566Y20661D01*
G01X6576Y20651D01*
G01X6588Y20642D01*
G01X6600Y20635D01*
G01X6614Y20630D01*
G01X6628Y20627D01*
G01X6643Y20626D01*
G01X6672Y20626D01*
G01X6686Y20627D01*
G01X6701Y20630D01*
G01X6714Y20635D01*
G01X6727Y20642D01*
G01X6738Y20651D01*
G01X6749Y20661D01*
G01X6757Y20673D01*
G01X6764Y20685D01*
G01X6769Y20699D01*
G01X6772Y20713D01*
G01X6773Y20728D01*
G01X6771Y20749D01*
G01X6767Y20775D01*
G01X6766Y20802D01*
G01X6766Y21133D01*
G01X7352Y21133D01*
G01X7352Y20728D01*
G01X7353Y20713D01*
G01X7356Y20699D01*
G01X7361Y20685D01*
G01X7377Y20661D01*
G01X7387Y20651D01*
G01X7399Y20642D01*
G01X7412Y20635D01*
G01X7425Y20630D01*
G01X7440Y20627D01*
G01X7454Y20626D01*
G01X7920Y20626D01*
G01X7944Y20625D01*
G01X7968Y20621D01*
G01X7991Y20616D01*
G01X8014Y20608D01*
G01X8036Y20598D01*
G01X8057Y20586D01*
G01X8077Y20572D01*
G01X8095Y20556D01*
G01X8107Y20547D01*
G01X8120Y20539D01*
G01X8135Y20533D01*
G01X8150Y20530D01*
G01X8165Y20529D01*
G01X8179Y20530D01*
G01X8194Y20533D01*
G01X8207Y20538D01*
G01X8220Y20545D01*
G01X8232Y20553D01*
G01X8242Y20564D01*
G01X8250Y20575D01*
G01X8258Y20588D01*
G01X8263Y20602D01*
G01X8266Y20616D01*
G01X8267Y20630D01*
G01X8267Y21133D01*
G01X8853Y21133D01*
G01X8853Y20802D01*
G01X8852Y20775D01*
G01X8848Y20749D01*
G01X8846Y20728D01*
G01X8847Y20713D01*
G01X8850Y20699D01*
G01X8855Y20685D01*
G01X8862Y20673D01*
G01X8870Y20661D01*
G01X8881Y20651D01*
G01X8892Y20642D01*
G01X8905Y20635D01*
G01X8918Y20630D01*
G01X8933Y20627D01*
G01X8947Y20626D01*
G01X9212Y20626D01*
G01X9226Y20627D01*
G01X9241Y20630D01*
G01X9254Y20635D01*
G01X9267Y20642D01*
G01X9278Y20651D01*
G01X9289Y20661D01*
G01X9297Y20673D01*
G01X9304Y20685D01*
G01X9309Y20699D01*
G01X9312Y20713D01*
G01X9313Y20728D01*
G01X9311Y20748D01*
G01X9307Y20775D01*
G01X9306Y20802D01*
G01X9306Y21132D01*
G01X9892Y21132D01*
G01X9892Y20728D01*
G01X9893Y20713D01*
G01X9896Y20699D01*
G01X9901Y20685D01*
G01X9917Y20661D01*
G01X9927Y20651D01*
G01X9939Y20642D01*
G01X9952Y20635D01*
G01X9965Y20630D01*
G01X9980Y20627D01*
G01X9994Y20626D01*
G01X10705Y20626D01*
G01X10719Y20627D01*
G01X10734Y20630D01*
G01X10747Y20635D01*
G01X10760Y20642D01*
G01X10772Y20651D01*
G01X10782Y20661D01*
G01X10798Y20685D01*
G01X10803Y20699D01*
G01X10806Y20713D01*
G01X10807Y20728D01*
G01X10807Y21132D01*
G01X11393Y21132D01*
G01X11393Y20802D01*
G01X11392Y20775D01*
G01X11388Y20748D01*
G01X11386Y20728D01*
G01X11387Y20713D01*
G01X11390Y20699D01*
G01X11395Y20685D01*
G01X11402Y20673D01*
G01X11410Y20661D01*
G01X11421Y20651D01*
G01X11432Y20642D01*
G01X11445Y20635D01*
G01X11458Y20630D01*
G01X11473Y20627D01*
G01X11487Y20626D01*
G01X12135Y20626D01*
G01X12149Y20627D01*
G01X12164Y20630D01*
G01X12177Y20635D01*
G01X12190Y20642D01*
G01X12202Y20651D01*
G01X12212Y20661D01*
G01X12220Y20673D01*
G01X12227Y20685D01*
G01X12232Y20699D01*
G01X12236Y20713D01*
G01X12237Y20728D01*
G01X12236Y20742D01*
G01X12233Y20756D01*
G01X12228Y20770D01*
G01X12212Y20794D01*
G01X12202Y20804D01*
G01X12167Y20836D01*
G01X12134Y20869D01*
G01X12103Y20903D01*
G01X12073Y20939D01*
G01X12045Y20977D01*
G01X12018Y21015D01*
G01X11993Y21055D01*
G01X11970Y21095D01*
G01X11949Y21137D01*
G01X11929Y21180D01*
G01X11912Y21223D01*
G01X11896Y21267D01*
G01X11883Y21312D01*
G01X11871Y21358D01*
G01X11862Y21403D01*
G01X11855Y21450D01*
G01X11850Y21496D01*
G01X11847Y21542D01*
G01X11846Y21589D01*
G01X11847Y21637D01*
G01X11850Y21685D01*
G01X11856Y21733D01*
G01X11863Y21781D01*
G01X11873Y21827D01*
G01X11885Y21874D01*
G01X11899Y21920D01*
G01X11916Y21965D01*
G01X11934Y22010D01*
G01X11954Y22053D01*
G01X11977Y22096D01*
G01X12001Y22137D01*
G01X12027Y22177D01*
G01X12055Y22217D01*
G01X12085Y22254D01*
G01X12116Y22291D01*
G01X12149Y22326D01*
G01X12184Y22359D01*
G01X12220Y22390D01*
G01X12258Y22420D01*
G01X12269Y22431D01*
G01X12279Y22443D01*
G01X12287Y22456D01*
G01X12293Y22471D01*
G01X12297Y22486D01*
G01X12298Y22502D01*
G01X12297Y22516D01*
G01X12294Y22530D01*
G01X12289Y22544D01*
G01X12273Y22568D01*
G01X12263Y22578D01*
G01X12251Y22587D01*
G01X12238Y22594D01*
G01X12225Y22599D01*
G01X12211Y22602D01*
G01X12196Y22603D01*
G01X11473Y22603D01*
G01X11458Y22602D01*
G01X11444Y22599D01*
G01X11431Y22594D01*
G01X11418Y22587D01*
G01X11406Y22578D01*
G01X11396Y22568D01*
G01X11387Y22556D01*
G01X11380Y22544D01*
G01X11375Y22530D01*
G01X11372Y22516D01*
G01X11371Y22502D01*
G01X11373Y22483D01*
G01X11378Y22466D01*
G01X11386Y22437D01*
G01X11391Y22407D01*
G01X11393Y22377D01*
G01X11393Y22046D01*
G01X10807Y22046D01*
G01X10807Y22502D01*
G01X10806Y22516D01*
G01X10803Y22530D01*
G01X10798Y22544D01*
G01X10782Y22568D01*
G01X10772Y22578D01*
G01X10760Y22587D01*
G01X10747Y22594D01*
G01X10734Y22599D01*
G01X10719Y22602D01*
G01X10705Y22603D01*
G01X9994Y22603D01*
G01X9980Y22602D01*
G01X9965Y22599D01*
G01X9952Y22594D01*
G01X9939Y22587D01*
G01X9927Y22578D01*
G01X9917Y22568D01*
G01X9901Y22544D01*
G01X9896Y22530D01*
G01X9893Y22516D01*
G01X9892Y22502D01*
G01X9892Y22046D01*
G01X9306Y22046D01*
G01X9306Y22377D01*
G01X9308Y22407D01*
G01X9313Y22437D01*
G01X9321Y22466D01*
G01X9326Y22483D01*
G01X9328Y22502D01*
G01X9327Y22516D01*
G01X9324Y22530D01*
G01X9319Y22544D01*
G01X9312Y22556D01*
G01X9303Y22568D01*
G01X9293Y22578D01*
G01X9281Y22587D01*
G01X9268Y22594D01*
G01X9255Y22599D01*
G01X9241Y22602D01*
G01X9226Y22603D01*
G01X8933Y22603D01*
G01X8918Y22602D01*
G01X8904Y22599D01*
G01X8891Y22594D01*
G01X8878Y22587D01*
G01X8866Y22578D01*
G01X8856Y22568D01*
G01X8847Y22556D01*
G01X8840Y22544D01*
G01X8835Y22530D01*
G01X8832Y22516D01*
G01X8831Y22502D01*
G01X8833Y22483D01*
G01X8838Y22466D01*
G01X8846Y22437D01*
G01X8851Y22407D01*
G01X8853Y22377D01*
G01X8853Y22047D01*
G01X8267Y22047D01*
G01X8267Y22502D01*
G01X8266Y22516D01*
G01X8263Y22530D01*
G01X8258Y22544D01*
G01X8242Y22568D01*
G01X8232Y22578D01*
G01X8220Y22587D01*
G01X8207Y22594D01*
G01X8194Y22599D01*
G01X8179Y22602D01*
G01X8165Y22603D01*
G01X7454Y22603D01*
G01X7440Y22602D01*
G01X7425Y22599D01*
G01X7412Y22594D01*
G01X7399Y22587D01*
G01X7387Y22578D01*
G01X7377Y22568D01*
G01X7361Y22544D01*
G01X7356Y22530D01*
G01X7353Y22516D01*
G01X7352Y22502D01*
G01X7352Y22047D01*
G01X6766Y22047D01*
G01X6766Y22377D01*
G01X6768Y22407D01*
G01X6773Y22437D01*
G01X6781Y22466D01*
G01X6786Y22483D01*
G01X6788Y22502D01*
G01X6787Y22516D01*
G01X6784Y22530D01*
G01X6779Y22544D01*
G01X6772Y22556D01*
G01X6763Y22568D01*
G01X6753Y22578D01*
G01X6741Y22587D01*
G01X6728Y22594D01*
G01X6715Y22599D01*
G01X6701Y22602D01*
G01X6686Y22603D01*
G37*

%LPD*%
G36*
G01X2941Y21283D02*
G01X2459Y21283D01*
G01X2445Y21282D01*
G01X2430Y21279D01*
G01X2417Y21274D01*
G01X2404Y21267D01*
G01X2392Y21258D01*
G01X2382Y21248D01*
G01X2373Y21236D01*
G01X2366Y21223D01*
G01X2361Y21210D01*
G01X2358Y21196D01*
G01X2357Y21181D01*
G01X2359Y21163D01*
G01X2364Y21122D01*
G01X2366Y21082D01*
G01X2365Y21050D01*
G01X2362Y21019D01*
G01X2357Y20988D01*
G01X2349Y20958D01*
G01X2339Y20928D01*
G01X2328Y20899D01*
G01X2314Y20870D01*
G01X2299Y20843D01*
G01X2281Y20817D01*
G01X2263Y20792D01*
G01X2253Y20777D01*
G01X2245Y20762D01*
G01X2241Y20745D01*
G01X2240Y20728D01*
G01X2241Y20713D01*
G01X2244Y20699D01*
G01X2249Y20685D01*
G01X2256Y20673D01*
G01X2265Y20661D01*
G01X2275Y20651D01*
G01X2287Y20642D01*
G01X2299Y20635D01*
G01X2312Y20630D01*
G01X2327Y20627D01*
G01X2341Y20626D01*
G01X2360Y20626D01*
G01X2384Y20625D01*
G01X2408Y20621D01*
G01X2432Y20616D01*
G01X2455Y20608D01*
G01X2477Y20598D01*
G01X2498Y20585D01*
G01X2518Y20572D01*
G01X2536Y20555D01*
G01X2563Y20528D01*
G01X2575Y20519D01*
G01X2587Y20512D01*
G01X2601Y20507D01*
G01X2615Y20504D01*
G01X2629Y20503D01*
G01X2644Y20504D01*
G01X2658Y20507D01*
G01X2672Y20512D01*
G01X2684Y20519D01*
G01X2696Y20528D01*
G01X2723Y20555D01*
G01X2741Y20572D01*
G01X2761Y20585D01*
G01X2782Y20598D01*
G01X2805Y20608D01*
G01X2828Y20616D01*
G01X2851Y20621D01*
G01X2875Y20625D01*
G01X2900Y20626D01*
G01X3395Y20626D01*
G01X3410Y20627D01*
G01X3424Y20630D01*
G01X3438Y20635D01*
G01X3450Y20642D01*
G01X3462Y20651D01*
G01X3472Y20661D01*
G01X3481Y20673D01*
G01X3488Y20685D01*
G01X3493Y20699D01*
G01X3496Y20713D01*
G01X3497Y20728D01*
G01X3496Y20743D01*
G01X3492Y20759D01*
G01X3486Y20774D01*
G01X3477Y20788D01*
G01X3467Y20799D01*
G01X3013Y21253D01*
G01X3001Y21264D01*
G01X2988Y21272D01*
G01X2973Y21278D01*
G01X2958Y21282D01*
G01X2941Y21283D01*
G37*

%LPD*%
G36*
G01X1360Y21283D02*
G01X1121Y21283D01*
G01X1105Y21282D01*
G01X1089Y21278D01*
G01X1074Y21272D01*
G01X1061Y21264D01*
G01X1049Y21253D01*
G01X780Y20984D01*
G01X770Y20972D01*
G01X761Y20959D01*
G01X755Y20944D01*
G01X751Y20928D01*
G01X750Y20913D01*
G01X750Y20728D01*
G01X751Y20713D01*
G01X754Y20699D01*
G01X759Y20685D01*
G01X766Y20673D01*
G01X775Y20661D01*
G01X785Y20651D01*
G01X797Y20642D01*
G01X809Y20635D01*
G01X823Y20630D01*
G01X837Y20627D01*
G01X851Y20626D01*
G01X919Y20626D01*
G01X944Y20625D01*
G01X968Y20621D01*
G01X992Y20616D01*
G01X1014Y20608D01*
G01X1037Y20598D01*
G01X1058Y20585D01*
G01X1078Y20572D01*
G01X1096Y20555D01*
G01X1123Y20528D01*
G01X1135Y20519D01*
G01X1148Y20512D01*
G01X1161Y20507D01*
G01X1175Y20504D01*
G01X1190Y20503D01*
G01X1204Y20504D01*
G01X1218Y20507D01*
G01X1232Y20512D01*
G01X1245Y20519D01*
G01X1256Y20528D01*
G01X1283Y20555D01*
G01X1302Y20572D01*
G01X1321Y20585D01*
G01X1342Y20598D01*
G01X1364Y20608D01*
G01X1387Y20616D01*
G01X1411Y20621D01*
G01X1435Y20625D01*
G01X1459Y20626D01*
G01X1478Y20626D01*
G01X1493Y20627D01*
G01X1507Y20630D01*
G01X1520Y20635D01*
G01X1533Y20642D01*
G01X1544Y20651D01*
G01X1554Y20661D01*
G01X1564Y20673D01*
G01X1570Y20685D01*
G01X1575Y20699D01*
G01X1578Y20713D01*
G01X1579Y20728D01*
G01X1578Y20745D01*
G01X1574Y20762D01*
G01X1566Y20777D01*
G01X1557Y20792D01*
G01X1538Y20817D01*
G01X1520Y20843D01*
G01X1505Y20870D01*
G01X1491Y20899D01*
G01X1480Y20928D01*
G01X1470Y20958D01*
G01X1463Y20988D01*
G01X1457Y21019D01*
G01X1454Y21050D01*
G01X1453Y21082D01*
G01X1455Y21122D01*
G01X1461Y21163D01*
G01X1462Y21181D01*
G01X1461Y21196D01*
G01X1458Y21210D01*
G01X1453Y21223D01*
G01X1446Y21236D01*
G01X1437Y21248D01*
G01X1427Y21258D01*
G01X1415Y21267D01*
G01X1403Y21274D01*
G01X1389Y21279D01*
G01X1375Y21282D01*
G01X1360Y21283D01*
G37*

%LPD*%
G36*
G01X5524Y17435D02*
G01X5509Y17436D01*
G01X5495Y17435D01*
G01X5481Y17432D01*
G01X5467Y17427D01*
G01X5454Y17420D01*
G01X5443Y17411D01*
G01X5433Y17401D01*
G01X5416Y17383D01*
G01X5398Y17368D01*
G01X5378Y17354D01*
G01X5367Y17345D01*
G01X5356Y17335D01*
G01X5347Y17323D01*
G01X5341Y17310D01*
G01X5336Y17297D01*
G01X5332Y17282D01*
G01X5331Y17268D01*
G01X5334Y17245D01*
G01X5336Y17234D01*
G01X5341Y17218D01*
G01X5347Y17205D01*
G01X5355Y17191D01*
G01X5366Y17180D01*
G01X5378Y17170D01*
G01X5391Y17162D01*
G01X5405Y17156D01*
G01X5420Y17153D01*
G01X5436Y17152D01*
G01X5452Y17153D01*
G01X5467Y17157D01*
G01X5482Y17163D01*
G01X5496Y17171D01*
G01X5508Y17181D01*
G01X5584Y17259D01*
G01X5595Y17271D01*
G01X5603Y17284D01*
G01X5609Y17299D01*
G01X5613Y17314D01*
G01X5614Y17330D01*
G01X5613Y17345D01*
G01X5610Y17360D01*
G01X5605Y17373D01*
G01X5598Y17387D01*
G01X5589Y17398D01*
G01X5576Y17411D01*
G01X5564Y17420D01*
G01X5551Y17427D01*
G01X5538Y17432D01*
G01X5524Y17435D01*
G37*

%LPD*%
G36*
G01X18084Y17435D02*
G01X18070Y17436D01*
G01X18055Y17435D01*
G01X18041Y17432D01*
G01X18027Y17427D01*
G01X18015Y17420D01*
G01X18003Y17411D01*
G01X17993Y17401D01*
G01X17976Y17383D01*
G01X17958Y17367D01*
G01X17938Y17354D01*
G01X17917Y17341D01*
G01X17894Y17331D01*
G01X17871Y17323D01*
G01X17848Y17317D01*
G01X17824Y17314D01*
G01X17799Y17313D01*
G01X17755Y17313D01*
G01X17740Y17312D01*
G01X17726Y17309D01*
G01X17712Y17303D01*
G01X17699Y17296D01*
G01X17688Y17287D01*
G01X17677Y17276D01*
G01X17669Y17264D01*
G01X17662Y17251D01*
G01X17657Y17237D01*
G01X17655Y17222D01*
G01X17654Y17218D01*
G01X17653Y17205D01*
G01X17654Y17190D01*
G01X17657Y17176D01*
G01X17663Y17163D01*
G01X17670Y17149D01*
G01X17678Y17138D01*
G01X17699Y17113D01*
G01X17718Y17087D01*
G01X17734Y17060D01*
G01X17749Y17032D01*
G01X17762Y17003D01*
G01X17772Y16973D01*
G01X17781Y16942D01*
G01X17786Y16928D01*
G01X17792Y16915D01*
G01X17801Y16902D01*
G01X17811Y16891D01*
G01X17823Y16882D01*
G01X17836Y16874D01*
G01X17850Y16869D01*
G01X17864Y16866D01*
G01X17880Y16864D01*
G01X17895Y16866D01*
G01X17910Y16869D01*
G01X17924Y16874D01*
G01X17937Y16882D01*
G01X17949Y16892D01*
G01X18251Y17174D01*
G01X18263Y17186D01*
G01X18271Y17200D01*
G01X18278Y17215D01*
G01X18282Y17231D01*
G01X18283Y17248D01*
G01X18282Y17264D01*
G01X18278Y17280D01*
G01X18272Y17295D01*
G01X18264Y17308D01*
G01X18253Y17320D01*
G01X18241Y17331D01*
G01X18227Y17339D01*
G01X18204Y17351D01*
G01X18183Y17366D01*
G01X18164Y17382D01*
G01X18146Y17401D01*
G01X18136Y17411D01*
G01X18124Y17420D01*
G01X18112Y17427D01*
G01X18098Y17432D01*
G01X18084Y17435D01*
G37*

%LPD*%
G36*
G01X1204Y17435D02*
G01X1190Y17436D01*
G01X1175Y17435D01*
G01X1161Y17432D01*
G01X1148Y17427D01*
G01X1135Y17420D01*
G01X1123Y17411D01*
G01X1113Y17401D01*
G01X1096Y17383D01*
G01X1078Y17367D01*
G01X1058Y17354D01*
G01X1037Y17341D01*
G01X1014Y17331D01*
G01X992Y17323D01*
G01X968Y17317D01*
G01X944Y17314D01*
G01X919Y17313D01*
G01X857Y17313D01*
G01X842Y17312D01*
G01X829Y17309D01*
G01X815Y17304D01*
G01X802Y17297D01*
G01X790Y17288D01*
G01X780Y17278D01*
G01X772Y17267D01*
G01X765Y17254D01*
G01X759Y17241D01*
G01X756Y17227D01*
G01X755Y17212D01*
G01X752Y16927D01*
G01X752Y16926D01*
G01X753Y16911D01*
G01X756Y16895D01*
G01X763Y16881D01*
G01X771Y16867D01*
G01X780Y16855D01*
G01X788Y16848D01*
G01X800Y16837D01*
G01X814Y16828D01*
G01X829Y16822D01*
G01X845Y16818D01*
G01X861Y16816D01*
G01X2180Y16816D01*
G01X2195Y16817D01*
G01X2223Y16825D01*
G01X2235Y16832D01*
G01X2247Y16841D01*
G01X2257Y16851D01*
G01X2266Y16863D01*
G01X2273Y16875D01*
G01X2278Y16889D01*
G01X2281Y16903D01*
G01X2282Y16918D01*
G01X2280Y16936D01*
G01X2275Y16977D01*
G01X2273Y17017D01*
G01X2274Y17050D01*
G01X2277Y17082D01*
G01X2283Y17114D01*
G01X2291Y17145D01*
G01X2301Y17176D01*
G01X2306Y17193D01*
G01X2308Y17211D01*
G01X2307Y17226D01*
G01X2304Y17240D01*
G01X2299Y17253D01*
G01X2292Y17266D01*
G01X2283Y17278D01*
G01X2273Y17288D01*
G01X2261Y17297D01*
G01X2248Y17304D01*
G01X2235Y17309D01*
G01X2220Y17312D01*
G01X2206Y17313D01*
G01X1459Y17313D01*
G01X1435Y17314D01*
G01X1411Y17317D01*
G01X1387Y17323D01*
G01X1364Y17331D01*
G01X1342Y17341D01*
G01X1321Y17354D01*
G01X1302Y17367D01*
G01X1283Y17383D01*
G01X1256Y17411D01*
G01X1245Y17420D01*
G01X1232Y17427D01*
G01X1218Y17432D01*
G01X1204Y17435D01*
G37*

%LPD*%
G36*
G01X4084Y17435D02*
G01X4070Y17436D01*
G01X4055Y17435D01*
G01X4041Y17432D01*
G01X4027Y17427D01*
G01X4015Y17420D01*
G01X4003Y17411D01*
G01X3993Y17401D01*
G01X3976Y17383D01*
G01X3958Y17367D01*
G01X3938Y17354D01*
G01X3917Y17341D01*
G01X3894Y17331D01*
G01X3871Y17323D01*
G01X3848Y17317D01*
G01X3824Y17314D01*
G01X3799Y17313D01*
G01X3625Y17313D01*
G01X3608Y17311D01*
G01X3591Y17307D01*
G01X3575Y17300D01*
G01X3560Y17290D01*
G01X3556Y17286D01*
G01X3512Y17251D01*
G01X3501Y17241D01*
G01X3492Y17229D01*
G01X3484Y17216D01*
G01X3479Y17202D01*
G01X3475Y17187D01*
G01X3474Y17172D01*
G01X3475Y17157D01*
G01X3478Y17143D01*
G01X3483Y17129D01*
G01X3490Y17117D01*
G01X3499Y17105D01*
G01X3509Y17095D01*
G01X3521Y17086D01*
G01X3534Y17079D01*
G01X3547Y17075D01*
G01X3562Y17071D01*
G01X3576Y17070D01*
G01X3618Y17070D01*
G01X3645Y17069D01*
G01X3672Y17065D01*
G01X3698Y17060D01*
G01X3723Y17052D01*
G01X3748Y17042D01*
G01X3772Y17029D01*
G01X3794Y17015D01*
G01X3816Y16998D01*
G01X3835Y16981D01*
G01X3970Y16846D01*
G01X3982Y16836D01*
G01X3995Y16827D01*
G01X4010Y16821D01*
G01X4026Y16818D01*
G01X4042Y16816D01*
G01X4378Y16816D01*
G01X4393Y16817D01*
G01X4421Y16825D01*
G01X4433Y16832D01*
G01X4445Y16841D01*
G01X4455Y16851D01*
G01X4464Y16863D01*
G01X4471Y16875D01*
G01X4476Y16889D01*
G01X4479Y16903D01*
G01X4480Y16918D01*
G01X4478Y16939D01*
G01X4471Y16959D01*
G01X4459Y16989D01*
G01X4450Y17019D01*
G01X4442Y17050D01*
G01X4436Y17081D01*
G01X4433Y17113D01*
G01X4432Y17145D01*
G01X4435Y17199D01*
G01X4436Y17211D01*
G01X4435Y17226D01*
G01X4432Y17240D01*
G01X4427Y17253D01*
G01X4420Y17266D01*
G01X4411Y17277D01*
G01X4401Y17287D01*
G01X4390Y17296D01*
G01X4377Y17303D01*
G01X4364Y17308D01*
G01X4350Y17312D01*
G01X4336Y17313D01*
G01X4312Y17314D01*
G01X4288Y17318D01*
G01X4265Y17324D01*
G01X4242Y17332D01*
G01X4221Y17342D01*
G01X4200Y17354D01*
G01X4181Y17368D01*
G01X4163Y17383D01*
G01X4146Y17401D01*
G01X4136Y17411D01*
G01X4124Y17420D01*
G01X4112Y17427D01*
G01X4098Y17432D01*
G01X4084Y17435D01*
G37*

%LPD*%
G36*
G01X9644Y17435D02*
G01X9630Y17436D01*
G01X9615Y17435D01*
G01X9601Y17432D01*
G01X9587Y17427D01*
G01X9575Y17420D01*
G01X9563Y17411D01*
G01X9553Y17401D01*
G01X9536Y17383D01*
G01X9518Y17367D01*
G01X9498Y17354D01*
G01X9477Y17341D01*
G01X9454Y17331D01*
G01X9432Y17323D01*
G01X9408Y17317D01*
G01X9384Y17314D01*
G01X9359Y17313D01*
G01X8961Y17313D01*
G01X8945Y17312D01*
G01X8930Y17308D01*
G01X8915Y17302D01*
G01X8902Y17294D01*
G01X8890Y17283D01*
G01X8542Y16936D01*
G01X8532Y16924D01*
G01X8523Y16910D01*
G01X8517Y16895D01*
G01X8514Y16880D01*
G01X8513Y16864D01*
G01X8514Y16849D01*
G01X8517Y16834D01*
G01X8522Y16821D01*
G01X8529Y16808D01*
G01X8579Y16734D01*
G01X8589Y16721D01*
G01X8601Y16710D01*
G01X8615Y16701D01*
G01X8630Y16695D01*
G01X8646Y16691D01*
G01X8663Y16689D01*
G01X10496Y16689D01*
G01X10510Y16690D01*
G01X10524Y16693D01*
G01X10538Y16698D01*
G01X10551Y16705D01*
G01X10562Y16714D01*
G01X10573Y16724D01*
G01X10581Y16736D01*
G01X10588Y16748D01*
G01X10593Y16762D01*
G01X10596Y16776D01*
G01X10597Y16791D01*
G01X10596Y16805D01*
G01X10593Y16820D01*
G01X10587Y16834D01*
G01X10568Y16882D01*
G01X10562Y16896D01*
G01X10554Y16909D01*
G01X10543Y16921D01*
G01X10531Y16931D01*
G01X10518Y16939D01*
G01X10503Y16945D01*
G01X10488Y16949D01*
G01X10472Y16950D01*
G01X10349Y16950D01*
G01X10323Y16951D01*
G01X10297Y16954D01*
G01X10271Y16960D01*
G01X10246Y16968D01*
G01X10222Y16978D01*
G01X10199Y16990D01*
G01X10176Y17004D01*
G01X10155Y17019D01*
G01X10136Y17037D01*
G01X10117Y17056D01*
G01X10101Y17077D01*
G01X10087Y17099D01*
G01X10074Y17122D01*
G01X10063Y17146D01*
G01X10055Y17171D01*
G01X10049Y17197D01*
G01X10045Y17222D01*
G01X10042Y17237D01*
G01X10037Y17251D01*
G01X10030Y17264D01*
G01X10022Y17276D01*
G01X10012Y17287D01*
G01X10000Y17296D01*
G01X9987Y17303D01*
G01X9973Y17309D01*
G01X9959Y17312D01*
G01X9944Y17313D01*
G01X9899Y17313D01*
G01X9875Y17314D01*
G01X9851Y17317D01*
G01X9827Y17323D01*
G01X9804Y17331D01*
G01X9783Y17341D01*
G01X9761Y17354D01*
G01X9741Y17367D01*
G01X9723Y17383D01*
G01X9706Y17401D01*
G01X9696Y17411D01*
G01X9685Y17420D01*
G01X9672Y17427D01*
G01X9658Y17432D01*
G01X9644Y17435D01*
G37*

%LPD*%
G36*
G01X16644Y17435D02*
G01X16629Y17436D01*
G01X16615Y17435D01*
G01X16601Y17432D01*
G01X16588Y17427D01*
G01X16575Y17420D01*
G01X16563Y17411D01*
G01X16536Y17383D01*
G01X16518Y17367D01*
G01X16498Y17354D01*
G01X16477Y17341D01*
G01X16455Y17331D01*
G01X16432Y17323D01*
G01X16408Y17317D01*
G01X16384Y17314D01*
G01X16360Y17313D01*
G01X16074Y17313D01*
G01X16058Y17312D01*
G01X16042Y17308D01*
G01X16027Y17302D01*
G01X16014Y17294D01*
G01X16002Y17283D01*
G01X15662Y16943D01*
G01X15651Y16931D01*
G01X15643Y16919D01*
G01X15637Y16904D01*
G01X15633Y16890D01*
G01X15632Y16874D01*
G01X15629Y16839D01*
G01X15624Y16805D01*
G01X15616Y16771D01*
G01X15606Y16737D01*
G01X15593Y16705D01*
G01X15586Y16684D01*
G01X15584Y16664D01*
G01X15585Y16649D01*
G01X15588Y16635D01*
G01X15593Y16621D01*
G01X15600Y16609D01*
G01X15609Y16597D01*
G01X15619Y16587D01*
G01X15631Y16578D01*
G01X15643Y16571D01*
G01X15657Y16566D01*
G01X15671Y16563D01*
G01X15686Y16562D01*
G01X16806Y16562D01*
G01X16820Y16563D01*
G01X16835Y16566D01*
G01X16848Y16571D01*
G01X16861Y16578D01*
G01X16872Y16587D01*
G01X16882Y16597D01*
G01X16892Y16609D01*
G01X16898Y16621D01*
G01X16903Y16635D01*
G01X16906Y16649D01*
G01X16907Y16664D01*
G01X16906Y16679D01*
G01X16903Y16695D01*
G01X16893Y16729D01*
G01X16886Y16764D01*
G01X16882Y16799D01*
G01X16880Y16835D01*
G01X16881Y16865D01*
G01X16884Y16896D01*
G01X16890Y16926D01*
G01X16897Y16956D01*
G01X16906Y16986D01*
G01X16917Y17014D01*
G01X16930Y17042D01*
G01X16945Y17069D01*
G01X16962Y17095D01*
G01X16980Y17119D01*
G01X17000Y17143D01*
G01X17009Y17154D01*
G01X17017Y17168D01*
G01X17022Y17182D01*
G01X17026Y17197D01*
G01X17027Y17211D01*
G01X17026Y17226D01*
G01X17023Y17240D01*
G01X17018Y17253D01*
G01X17010Y17266D01*
G01X17002Y17278D01*
G01X16992Y17288D01*
G01X16980Y17297D01*
G01X16967Y17304D01*
G01X16953Y17309D01*
G01X16939Y17312D01*
G01X16925Y17313D01*
G01X16900Y17313D01*
G01X16875Y17314D01*
G01X16851Y17317D01*
G01X16828Y17323D01*
G01X16805Y17331D01*
G01X16782Y17341D01*
G01X16761Y17354D01*
G01X16742Y17367D01*
G01X16723Y17383D01*
G01X16706Y17401D01*
G01X16696Y17411D01*
G01X16684Y17420D01*
G01X16672Y17427D01*
G01X16658Y17432D01*
G01X16644Y17435D01*
G37*

%LPD*%
G36*
G01X12524Y17435D02*
G01X12510Y17436D01*
G01X12495Y17435D01*
G01X12481Y17432D01*
G01X12467Y17427D01*
G01X12455Y17420D01*
G01X12443Y17411D01*
G01X12433Y17401D01*
G01X12416Y17383D01*
G01X12398Y17367D01*
G01X12378Y17354D01*
G01X12357Y17341D01*
G01X12334Y17331D01*
G01X12311Y17323D01*
G01X12288Y17317D01*
G01X12264Y17314D01*
G01X12239Y17313D01*
G01X12198Y17313D01*
G01X12183Y17312D01*
G01X12169Y17309D01*
G01X12155Y17304D01*
G01X12143Y17297D01*
G01X12131Y17288D01*
G01X12121Y17278D01*
G01X12112Y17266D01*
G01X12105Y17253D01*
G01X12101Y17240D01*
G01X12097Y17226D01*
G01X12096Y17211D01*
G01X12096Y16791D01*
G01X12097Y16776D01*
G01X12105Y16748D01*
G01X12112Y16736D01*
G01X12121Y16724D01*
G01X12131Y16714D01*
G01X12143Y16705D01*
G01X12155Y16698D01*
G01X12169Y16693D01*
G01X12183Y16690D01*
G01X12198Y16689D01*
G01X13270Y16689D01*
G01X13297Y16688D01*
G01X13324Y16684D01*
G01X13350Y16678D01*
G01X13375Y16671D01*
G01X13400Y16660D01*
G01X13424Y16648D01*
G01X13446Y16634D01*
G01X13468Y16617D01*
G01X13487Y16599D01*
G01X13495Y16592D01*
G01X13507Y16581D01*
G01X13520Y16573D01*
G01X13535Y16567D01*
G01X13551Y16563D01*
G01X13567Y16562D01*
G01X13903Y16562D01*
G01X13918Y16563D01*
G01X13932Y16566D01*
G01X13946Y16571D01*
G01X13958Y16578D01*
G01X13970Y16587D01*
G01X13980Y16597D01*
G01X13989Y16609D01*
G01X13996Y16621D01*
G01X14001Y16635D01*
G01X14004Y16649D01*
G01X14005Y16664D01*
G01X14003Y16684D01*
G01X13996Y16705D01*
G01X13984Y16734D01*
G01X13975Y16765D01*
G01X13967Y16796D01*
G01X13961Y16827D01*
G01X13958Y16859D01*
G01X13957Y16890D01*
G01X13958Y16922D01*
G01X13961Y16954D01*
G01X13967Y16985D01*
G01X13975Y17015D01*
G01X13984Y17046D01*
G01X13996Y17075D01*
G01X14010Y17103D01*
G01X14025Y17131D01*
G01X14043Y17157D01*
G01X14051Y17171D01*
G01X14057Y17185D01*
G01X14061Y17201D01*
G01X14062Y17216D01*
G01X14061Y17232D01*
G01X14057Y17247D01*
G01X14051Y17262D01*
G01X14043Y17276D01*
G01X14032Y17288D01*
G01X14021Y17298D01*
G01X14007Y17306D01*
G01X13992Y17313D01*
G01X13977Y17316D01*
G01X13950Y17323D01*
G01X13923Y17332D01*
G01X13898Y17344D01*
G01X13883Y17350D01*
G01X13866Y17355D01*
G01X13850Y17356D01*
G01X13833Y17355D01*
G01X13817Y17350D01*
G01X13801Y17344D01*
G01X13778Y17333D01*
G01X13755Y17324D01*
G01X13730Y17318D01*
G01X13705Y17314D01*
G01X13679Y17313D01*
G01X12779Y17313D01*
G01X12755Y17314D01*
G01X12731Y17317D01*
G01X12707Y17323D01*
G01X12684Y17331D01*
G01X12662Y17341D01*
G01X12641Y17354D01*
G01X12621Y17367D01*
G01X12603Y17383D01*
G01X12586Y17401D01*
G01X12576Y17411D01*
G01X12564Y17420D01*
G01X12552Y17427D01*
G01X12538Y17432D01*
G01X12524Y17435D01*
G37*

%LPD*%
G36*
G01X19524Y17435D02*
G01X19509Y17436D01*
G01X19495Y17435D01*
G01X19481Y17432D01*
G01X19468Y17427D01*
G01X19455Y17420D01*
G01X19443Y17411D01*
G01X19416Y17383D01*
G01X19397Y17367D01*
G01X19378Y17354D01*
G01X19357Y17341D01*
G01X19334Y17331D01*
G01X19312Y17323D01*
G01X19288Y17317D01*
G01X19264Y17314D01*
G01X19239Y17313D01*
G01X19195Y17313D01*
G01X19181Y17312D01*
G01X19166Y17309D01*
G01X19153Y17303D01*
G01X19139Y17296D01*
G01X19128Y17287D01*
G01X19118Y17276D01*
G01X19109Y17264D01*
G01X19102Y17251D01*
G01X19097Y17237D01*
G01X19095Y17222D01*
G01X19090Y17196D01*
G01X19084Y17169D01*
G01X19075Y17144D01*
G01X19064Y17119D01*
G01X19051Y17095D01*
G01X19035Y17073D01*
G01X19018Y17052D01*
G01X18999Y17032D01*
G01X18214Y16301D01*
G01X18203Y16289D01*
G01X18194Y16275D01*
G01X18187Y16260D01*
G01X18183Y16244D01*
G01X18182Y16227D01*
G01X18183Y16213D01*
G01X18186Y16198D01*
G01X18191Y16185D01*
G01X18198Y16172D01*
G01X18207Y16161D01*
G01X18217Y16150D01*
G01X18229Y16141D01*
G01X18241Y16135D01*
G01X18255Y16130D01*
G01X18269Y16127D01*
G01X18283Y16125D01*
G01X18621Y16125D01*
G01X18637Y16127D01*
G01X18652Y16130D01*
G01X18667Y16136D01*
G01X18681Y16145D01*
G01X18693Y16155D01*
G01X19708Y17169D01*
G01X19719Y17181D01*
G01X19727Y17195D01*
G01X19733Y17210D01*
G01X19737Y17225D01*
G01X19738Y17241D01*
G01X19737Y17255D01*
G01X19734Y17270D01*
G01X19729Y17284D01*
G01X19722Y17297D01*
G01X19713Y17308D01*
G01X19702Y17318D01*
G01X19690Y17327D01*
G01X19677Y17334D01*
G01X19652Y17347D01*
G01X19628Y17363D01*
G01X19606Y17380D01*
G01X19586Y17401D01*
G01X19576Y17411D01*
G01X19564Y17420D01*
G01X19551Y17427D01*
G01X19538Y17432D01*
G01X19524Y17435D01*
G37*

%LPD*%
G36*
G01X6498Y16457D02*
G01X6455Y16457D01*
G01X6439Y16456D01*
G01X6423Y16452D01*
G01X6408Y16446D01*
G01X6395Y16438D01*
G01X6383Y16427D01*
G01X6253Y16297D01*
G01X6245Y16284D01*
G01X6239Y16270D01*
G01X6235Y16255D01*
G01X6232Y16210D01*
G01X6228Y16179D01*
G01X6221Y16149D01*
G01X6213Y16120D01*
G01X6203Y16091D01*
G01X6191Y16063D01*
G01X6177Y16035D01*
G01X6162Y16009D01*
G01X6144Y15984D01*
G01X6125Y15960D01*
G01X6105Y15938D01*
G01X6083Y15916D01*
G01X6059Y15897D01*
G01X6035Y15879D01*
G01X6009Y15862D01*
G01X5996Y15853D01*
G01X5986Y15843D01*
G01X5976Y15832D01*
G01X5969Y15818D01*
G01X5963Y15804D01*
G01X5960Y15790D01*
G01X5959Y15775D01*
G01X5960Y15760D01*
G01X5963Y15746D01*
G01X5968Y15732D01*
G01X5975Y15720D01*
G01X5984Y15708D01*
G01X5994Y15698D01*
G01X6006Y15689D01*
G01X6018Y15682D01*
G01X6032Y15677D01*
G01X6046Y15674D01*
G01X6060Y15673D01*
G01X6764Y15673D01*
G01X6779Y15674D01*
G01X6793Y15677D01*
G01X6806Y15682D01*
G01X6819Y15689D01*
G01X6831Y15698D01*
G01X6841Y15708D01*
G01X6849Y15720D01*
G01X6856Y15732D01*
G01X6862Y15746D01*
G01X6865Y15760D01*
G01X6866Y15775D01*
G01X6865Y15789D01*
G01X6861Y15804D01*
G01X6856Y15818D01*
G01X6848Y15832D01*
G01X6839Y15843D01*
G01X6828Y15853D01*
G01X6816Y15862D01*
G01X6789Y15879D01*
G01X6764Y15898D01*
G01X6740Y15918D01*
G01X6717Y15940D01*
G01X6696Y15964D01*
G01X6677Y15989D01*
G01X6659Y16015D01*
G01X6644Y16043D01*
G01X6630Y16071D01*
G01X6618Y16101D01*
G01X6609Y16131D01*
G01X6601Y16161D01*
G01X6595Y16192D01*
G01X6592Y16224D01*
G01X6591Y16256D01*
G01X6593Y16296D01*
G01X6598Y16338D01*
G01X6600Y16356D01*
G01X6599Y16370D01*
G01X6596Y16384D01*
G01X6591Y16398D01*
G01X6584Y16411D01*
G01X6575Y16422D01*
G01X6565Y16433D01*
G01X6553Y16441D01*
G01X6541Y16448D01*
G01X6527Y16453D01*
G01X6513Y16456D01*
G01X6498Y16457D01*
G37*

%LPD*%
G36*
G01X7444Y15948D02*
G01X7428Y15949D01*
G01X7413Y15948D01*
G01X7399Y15945D01*
G01X7384Y15939D01*
G01X7371Y15932D01*
G01X7359Y15922D01*
G01X7334Y15900D01*
G01X7307Y15880D01*
G01X7279Y15862D01*
G01X7267Y15853D01*
G01X7256Y15843D01*
G01X7247Y15832D01*
G01X7239Y15818D01*
G01X7234Y15804D01*
G01X7230Y15789D01*
G01X7229Y15775D01*
G01X7230Y15760D01*
G01X7233Y15746D01*
G01X7239Y15732D01*
G01X7246Y15720D01*
G01X7254Y15708D01*
G01X7264Y15698D01*
G01X7276Y15689D01*
G01X7289Y15682D01*
G01X7302Y15677D01*
G01X7316Y15674D01*
G01X7331Y15673D01*
G01X7526Y15673D01*
G01X7541Y15674D01*
G01X7555Y15677D01*
G01X7568Y15682D01*
G01X7581Y15689D01*
G01X7593Y15698D01*
G01X7603Y15708D01*
G01X7611Y15720D01*
G01X7618Y15732D01*
G01X7624Y15746D01*
G01X7627Y15760D01*
G01X7628Y15775D01*
G01X7627Y15789D01*
G01X7623Y15804D01*
G01X7618Y15818D01*
G01X7610Y15832D01*
G01X7601Y15843D01*
G01X7590Y15853D01*
G01X7578Y15862D01*
G01X7550Y15880D01*
G01X7523Y15900D01*
G01X7498Y15922D01*
G01X7486Y15932D01*
G01X7473Y15939D01*
G01X7458Y15945D01*
G01X7444Y15948D01*
G37*

%LPD*%
G36*
G01X374Y16364D02*
G01X358Y16365D01*
G01X343Y16364D01*
G01X329Y16361D01*
G01X315Y16356D01*
G01X303Y16349D01*
G01X291Y16341D01*
G01X281Y16330D01*
G01X272Y16319D01*
G01X265Y16306D01*
G01X260Y16292D01*
G01X257Y16278D01*
G01X256Y16264D01*
G01X256Y14867D01*
G01X257Y14852D01*
G01X260Y14838D01*
G01X265Y14825D01*
G01X272Y14812D01*
G01X281Y14800D01*
G01X291Y14790D01*
G01X303Y14781D01*
G01X315Y14774D01*
G01X329Y14769D01*
G01X343Y14766D01*
G01X358Y14765D01*
G01X377Y14767D01*
G01X396Y14773D01*
G01X427Y14784D01*
G01X458Y14793D01*
G01X490Y14800D01*
G01X523Y14805D01*
G01X555Y14807D01*
G01X573Y14809D01*
G01X590Y14815D01*
G01X606Y14822D01*
G01X620Y14833D01*
G01X642Y14851D01*
G01X664Y14866D01*
G01X689Y14880D01*
G01X715Y14891D01*
G01X742Y14900D01*
G01X769Y14906D01*
G01X797Y14910D01*
G01X824Y14911D01*
G01X1163Y14911D01*
G01X1180Y14913D01*
G01X1195Y14916D01*
G01X1210Y14922D01*
G01X1223Y14930D01*
G01X1235Y14941D01*
G01X2324Y16030D01*
G01X2334Y16042D01*
G01X2343Y16056D01*
G01X2349Y16070D01*
G01X2353Y16086D01*
G01X2354Y16102D01*
G01X2353Y16116D01*
G01X2350Y16130D01*
G01X2344Y16144D01*
G01X2338Y16157D01*
G01X2329Y16168D01*
G01X2319Y16179D01*
G01X2307Y16187D01*
G01X2294Y16194D01*
G01X2281Y16199D01*
G01X2267Y16202D01*
G01X2252Y16203D01*
G01X687Y16203D01*
G01X660Y16204D01*
G01X633Y16208D01*
G01X606Y16214D01*
G01X580Y16223D01*
G01X555Y16233D01*
G01X530Y16246D01*
G01X508Y16261D01*
G01X486Y16279D01*
G01X466Y16297D01*
G01X431Y16334D01*
G01X419Y16345D01*
G01X405Y16354D01*
G01X390Y16360D01*
G01X374Y16364D01*
G37*

%LPD*%
G36*
G01X7641Y14679D02*
G01X6327Y14679D01*
G01X6312Y14678D01*
G01X6298Y14675D01*
G01X6284Y14670D01*
G01X6272Y14663D01*
G01X6260Y14655D01*
G01X6250Y14644D01*
G01X6241Y14633D01*
G01X6234Y14620D01*
G01X6229Y14606D01*
G01X6226Y14592D01*
G01X6225Y14578D01*
G01X6227Y14560D01*
G01X6232Y14518D01*
G01X6234Y14478D01*
G01X6233Y14444D01*
G01X6229Y14411D01*
G01X6223Y14379D01*
G01X6215Y14347D01*
G01X6204Y14315D01*
G01X6199Y14297D01*
G01X6198Y14279D01*
G01X6199Y14263D01*
G01X6203Y14248D01*
G01X6209Y14233D01*
G01X6217Y14220D01*
G01X6228Y14207D01*
G01X6256Y14179D01*
G01X6268Y14169D01*
G01X6281Y14160D01*
G01X6296Y14154D01*
G01X6312Y14151D01*
G01X6328Y14149D01*
G01X7680Y14149D01*
G01X7695Y14150D01*
G01X7723Y14158D01*
G01X7735Y14165D01*
G01X7747Y14174D01*
G01X7757Y14184D01*
G01X7766Y14196D01*
G01X7773Y14208D01*
G01X7778Y14222D01*
G01X7781Y14236D01*
G01X7782Y14251D01*
G01X7780Y14272D01*
G01X7773Y14292D01*
G01X7761Y14322D01*
G01X7752Y14352D01*
G01X7744Y14383D01*
G01X7738Y14414D01*
G01X7735Y14446D01*
G01X7734Y14478D01*
G01X7736Y14518D01*
G01X7741Y14560D01*
G01X7743Y14578D01*
G01X7742Y14592D01*
G01X7739Y14606D01*
G01X7734Y14620D01*
G01X7727Y14633D01*
G01X7718Y14644D01*
G01X7708Y14655D01*
G01X7696Y14663D01*
G01X7684Y14670D01*
G01X7670Y14675D01*
G01X7656Y14678D01*
G01X7641Y14679D01*
G37*

%LPD*%
G36*
G01X5439Y14121D02*
G01X5423Y14122D01*
G01X5409Y14121D01*
G01X5395Y14118D01*
G01X5381Y14113D01*
G01X5369Y14106D01*
G01X5357Y14097D01*
G01X5347Y14087D01*
G01X5338Y14075D01*
G01X5331Y14063D01*
G01X5326Y14049D01*
G01X5323Y14035D01*
G01X5322Y14021D01*
G01X5322Y13756D01*
G01X5323Y13742D01*
G01X5326Y13728D01*
G01X5331Y13714D01*
G01X5338Y13702D01*
G01X5347Y13690D01*
G01X5357Y13680D01*
G01X5369Y13671D01*
G01X5381Y13664D01*
G01X5395Y13659D01*
G01X5409Y13656D01*
G01X5423Y13655D01*
G01X5442Y13657D01*
G01X5475Y13661D01*
G01X5508Y13664D01*
G01X5526Y13666D01*
G01X5543Y13671D01*
G01X5559Y13679D01*
G01X5573Y13690D01*
G01X5594Y13707D01*
G01X5617Y13723D01*
G01X5642Y13736D01*
G01X5656Y13745D01*
G01X5668Y13755D01*
G01X5678Y13767D01*
G01X5687Y13781D01*
G01X5693Y13795D01*
G01X5697Y13811D01*
G01X5698Y13827D01*
G01X5697Y13843D01*
G01X5693Y13859D01*
G01X5687Y13874D01*
G01X5679Y13887D01*
G01X5668Y13899D01*
G01X5561Y14007D01*
G01X5542Y14027D01*
G01X5526Y14048D01*
G01X5512Y14071D01*
G01X5503Y14084D01*
G01X5493Y14095D01*
G01X5481Y14104D01*
G01X5468Y14112D01*
G01X5453Y14118D01*
G01X5439Y14121D01*
G37*

%LPD*%
G36*
G01X15126Y13150D02*
G01X13325Y13150D01*
G01X13311Y13149D01*
G01X13296Y13146D01*
G01X13283Y13141D01*
G01X13270Y13134D01*
G01X13258Y13125D01*
G01X13248Y13115D01*
G01X13240Y13104D01*
G01X13232Y13091D01*
G01X13227Y13077D01*
G01X13224Y13063D01*
G01X13223Y13049D01*
G01X13225Y13031D01*
G01X13229Y13015D01*
G01X13236Y12999D01*
G01X13246Y12985D01*
G01X13264Y12960D01*
G01X13281Y12934D01*
G01X13296Y12908D01*
G01X13309Y12880D01*
G01X13320Y12851D01*
G01X13329Y12821D01*
G01X13337Y12791D01*
G01X13342Y12761D01*
G01X13345Y12730D01*
G01X13346Y12699D01*
G01X13344Y12659D01*
G01X13339Y12618D01*
G01X13337Y12600D01*
G01X13338Y12585D01*
G01X13341Y12571D01*
G01X13346Y12557D01*
G01X13353Y12545D01*
G01X13362Y12533D01*
G01X13372Y12523D01*
G01X13384Y12514D01*
G01X13396Y12507D01*
G01X13424Y12499D01*
G01X13439Y12498D01*
G01X13994Y12498D01*
G01X14010Y12500D01*
G01X14025Y12503D01*
G01X14039Y12509D01*
G01X14053Y12517D01*
G01X14064Y12527D01*
G01X14208Y12666D01*
G01X14227Y12683D01*
G01X14248Y12699D01*
G01X14270Y12713D01*
G01X14294Y12725D01*
G01X14318Y12734D01*
G01X14343Y12742D01*
G01X14369Y12748D01*
G01X14395Y12751D01*
G01X14421Y12752D01*
G01X15173Y12752D01*
G01X15188Y12753D01*
G01X15216Y12761D01*
G01X15228Y12768D01*
G01X15240Y12777D01*
G01X15250Y12787D01*
G01X15259Y12799D01*
G01X15266Y12811D01*
G01X15271Y12825D01*
G01X15274Y12839D01*
G01X15275Y12854D01*
G01X15273Y12875D01*
G01X15266Y12895D01*
G01X15254Y12926D01*
G01X15244Y12957D01*
G01X15236Y12989D01*
G01X15231Y13021D01*
G01X15228Y13054D01*
G01X15226Y13070D01*
G01X15221Y13084D01*
G01X15215Y13098D01*
G01X15206Y13111D01*
G01X15196Y13122D01*
G01X15184Y13132D01*
G01X15171Y13140D01*
G01X15157Y13145D01*
G01X15141Y13149D01*
G01X15126Y13150D01*
G37*

%LPD*%
G36*
G01X9545Y13155D02*
G01X6060Y13155D01*
G01X6046Y13154D01*
G01X6031Y13151D01*
G01X6018Y13146D01*
G01X6005Y13139D01*
G01X5993Y13130D01*
G01X5983Y13120D01*
G01X5974Y13108D01*
G01X5967Y13095D01*
G01X5962Y13082D01*
G01X5953Y13052D01*
G01X5942Y13024D01*
G01X5928Y12996D01*
G01X5913Y12969D01*
G01X5896Y12944D01*
G01X5878Y12919D01*
G01X5857Y12896D01*
G01X5848Y12884D01*
G01X5840Y12871D01*
G01X5834Y12857D01*
G01X5831Y12842D01*
G01X5830Y12827D01*
G01X5830Y12379D01*
G01X5831Y12365D01*
G01X5834Y12351D01*
G01X5839Y12337D01*
G01X5846Y12324D01*
G01X5855Y12313D01*
G01X5865Y12302D01*
G01X5877Y12294D01*
G01X5889Y12287D01*
G01X5903Y12282D01*
G01X5917Y12279D01*
G01X5931Y12278D01*
G01X5949Y12279D01*
G01X5965Y12283D01*
G01X5981Y12290D01*
G01X6004Y12301D01*
G01X6027Y12311D01*
G01X6052Y12319D01*
G01X6077Y12324D01*
G01X6103Y12327D01*
G01X6128Y12328D01*
G01X6565Y12328D01*
G01X6592Y12327D01*
G01X6618Y12323D01*
G01X6644Y12318D01*
G01X6670Y12310D01*
G01X6694Y12299D01*
G01X6718Y12287D01*
G01X6741Y12273D01*
G01X6762Y12256D01*
G01X6782Y12238D01*
G01X7239Y11782D01*
G01X7250Y11772D01*
G01X7263Y11763D01*
G01X7278Y11757D01*
G01X7293Y11753D01*
G01X7309Y11752D01*
G01X7428Y11750D01*
G01X7430Y11750D01*
G01X7444Y11751D01*
G01X7458Y11754D01*
G01X7472Y11759D01*
G01X7496Y11775D01*
G01X7506Y11785D01*
G01X7515Y11797D01*
G01X7522Y11810D01*
G01X7527Y11823D01*
G01X7530Y11838D01*
G01X7531Y11852D01*
G01X7529Y11872D01*
G01X7523Y11916D01*
G01X7520Y11961D01*
G01X7521Y11992D01*
G01X7525Y12024D01*
G01X7530Y12055D01*
G01X7538Y12085D01*
G01X7547Y12115D01*
G01X7559Y12144D01*
G01X7573Y12172D01*
G01X7589Y12200D01*
G01X7606Y12226D01*
G01X7625Y12251D01*
G01X7646Y12275D01*
G01X7668Y12297D01*
G01X7692Y12317D01*
G01X7718Y12336D01*
G01X7744Y12353D01*
G01X7771Y12368D01*
G01X7800Y12381D01*
G01X7830Y12392D01*
G01X7860Y12402D01*
G01X7890Y12409D01*
G01X7922Y12414D01*
G01X7953Y12416D01*
G01X7968Y12418D01*
G01X7983Y12423D01*
G01X7996Y12429D01*
G01X8009Y12437D01*
G01X8021Y12447D01*
G01X8224Y12658D01*
G01X8244Y12677D01*
G01X8265Y12694D01*
G01X8288Y12709D01*
G01X8312Y12722D01*
G01X8337Y12733D01*
G01X8363Y12741D01*
G01X8390Y12747D01*
G01X8417Y12751D01*
G01X8444Y12752D01*
G01X9745Y12752D01*
G01X9760Y12753D01*
G01X9774Y12756D01*
G01X9788Y12761D01*
G01X9800Y12768D01*
G01X9812Y12777D01*
G01X9822Y12787D01*
G01X9831Y12799D01*
G01X9838Y12811D01*
G01X9843Y12825D01*
G01X9846Y12839D01*
G01X9847Y12854D01*
G01X9846Y12869D01*
G01X9842Y12885D01*
G01X9836Y12900D01*
G01X9828Y12913D01*
G01X9817Y12925D01*
G01X9617Y13125D01*
G01X9605Y13136D01*
G01X9592Y13144D01*
G01X9577Y13150D01*
G01X9561Y13154D01*
G01X9545Y13155D01*
G37*

%LPD*%
G36*
G01X11323Y12139D02*
G01X10319Y12139D01*
G01X10304Y12138D01*
G01X10290Y12135D01*
G01X10277Y12130D01*
G01X10264Y12123D01*
G01X10252Y12114D01*
G01X10242Y12104D01*
G01X10233Y12092D01*
G01X10221Y12066D01*
G01X10218Y12052D01*
G01X10217Y12037D01*
G01X10218Y12022D01*
G01X10222Y12006D01*
G01X10228Y11991D01*
G01X10237Y11978D01*
G01X10247Y11966D01*
G01X10446Y11767D01*
G01X10458Y11757D01*
G01X10471Y11748D01*
G01X10486Y11742D01*
G01X10501Y11739D01*
G01X10517Y11737D01*
G01X10518Y11737D01*
G01X11530Y11745D01*
G01X11544Y11746D01*
G01X11559Y11749D01*
G01X11572Y11754D01*
G01X11584Y11761D01*
G01X11596Y11770D01*
G01X11606Y11780D01*
G01X11615Y11791D01*
G01X11622Y11804D01*
G01X11627Y11818D01*
G01X11630Y11832D01*
G01X11631Y11846D01*
G01X11630Y11861D01*
G01X11627Y11875D01*
G01X11622Y11889D01*
G01X11614Y11902D01*
G01X11606Y11913D01*
G01X11595Y11924D01*
G01X11583Y11932D01*
G01X11555Y11952D01*
G01X11530Y11975D01*
G01X11395Y12109D01*
G01X11383Y12120D01*
G01X11370Y12128D01*
G01X11355Y12134D01*
G01X11340Y12138D01*
G01X11323Y12139D01*
G37*

%LPD*%
G36*
G01X5241Y16203D02*
G01X3922Y16203D01*
G01X3907Y16202D01*
G01X3891Y16198D01*
G01X3877Y16193D01*
G01X3864Y16185D01*
G01X3852Y16175D01*
G01X3842Y16164D01*
G01X3833Y16151D01*
G01X3827Y16137D01*
G01X3822Y16122D01*
G01X3821Y16106D01*
G01X3818Y16075D01*
G01X3813Y16044D01*
G01X3806Y16013D01*
G01X3797Y15983D01*
G01X3786Y15953D01*
G01X3773Y15925D01*
G01X3758Y15897D01*
G01X3741Y15870D01*
G01X3722Y15845D01*
G01X3701Y15820D01*
G01X3679Y15798D01*
G01X3656Y15777D01*
G01X3631Y15758D01*
G01X3605Y15740D01*
G01X3577Y15724D01*
G01X3549Y15711D01*
G01X3519Y15699D01*
G01X3489Y15689D01*
G01X3458Y15682D01*
G01X3427Y15676D01*
G01X3396Y15673D01*
G01X3364Y15672D01*
G01X3332Y15673D01*
G01X3301Y15677D01*
G01X3269Y15682D01*
G01X3239Y15690D01*
G01X3209Y15699D01*
G01X3179Y15711D01*
G01X3150Y15725D01*
G01X3123Y15741D01*
G01X3096Y15759D01*
G01X3071Y15779D01*
G01X3057Y15789D01*
G01X3040Y15796D01*
G01X3024Y15801D01*
G01X3006Y15803D01*
G01X2990Y15801D01*
G01X2974Y15798D01*
G01X2960Y15791D01*
G01X2946Y15783D01*
G01X2934Y15773D01*
G01X1549Y14388D01*
G01X1530Y14370D01*
G01X1508Y14353D01*
G01X1486Y14339D01*
G01X1462Y14327D01*
G01X1437Y14316D01*
G01X1412Y14309D01*
G01X1386Y14302D01*
G01X1359Y14299D01*
G01X1332Y14298D01*
G01X1107Y14298D01*
G01X1092Y14297D01*
G01X1078Y14294D01*
G01X1064Y14289D01*
G01X1052Y14282D01*
G01X1040Y14273D01*
G01X1030Y14263D01*
G01X1021Y14251D01*
G01X1014Y14238D01*
G01X1009Y14225D01*
G01X1000Y14195D01*
G01X988Y14166D01*
G01X975Y14138D01*
G01X959Y14111D01*
G01X942Y14086D01*
G01X923Y14061D01*
G01X903Y14038D01*
G01X881Y14016D01*
G01X858Y13996D01*
G01X833Y13977D01*
G01X807Y13960D01*
G01X779Y13945D01*
G01X751Y13932D01*
G01X722Y13920D01*
G01X693Y13911D01*
G01X663Y13904D01*
G01X632Y13899D01*
G01X601Y13895D01*
G01X570Y13894D01*
G01X535Y13896D01*
G01X499Y13900D01*
G01X464Y13907D01*
G01X430Y13916D01*
G01X396Y13929D01*
G01X377Y13935D01*
G01X358Y13936D01*
G01X343Y13935D01*
G01X329Y13932D01*
G01X315Y13927D01*
G01X303Y13920D01*
G01X291Y13911D01*
G01X281Y13901D01*
G01X272Y13889D01*
G01X265Y13877D01*
G01X260Y13864D01*
G01X257Y13849D01*
G01X256Y13835D01*
G01X256Y11540D01*
G01X257Y11525D01*
G01X260Y11511D01*
G01X265Y11498D01*
G01X272Y11485D01*
G01X281Y11473D01*
G01X291Y11463D01*
G01X303Y11454D01*
G01X315Y11448D01*
G01X329Y11442D01*
G01X343Y11439D01*
G01X358Y11438D01*
G01X373Y11439D01*
G01X389Y11443D01*
G01X404Y11450D01*
G01X418Y11458D01*
G01X429Y11468D01*
G01X735Y11773D01*
G01X754Y11791D01*
G01X776Y11808D01*
G01X798Y11822D01*
G01X822Y11834D01*
G01X847Y11845D01*
G01X872Y11852D01*
G01X898Y11858D01*
G01X925Y11862D01*
G01X951Y11863D01*
G01X3830Y11863D01*
G01X3846Y11864D01*
G01X3862Y11868D01*
G01X3877Y11874D01*
G01X3890Y11882D01*
G01X3902Y11893D01*
G01X4298Y12289D01*
G01X4308Y12301D01*
G01X4317Y12315D01*
G01X4323Y12329D01*
G01X4327Y12345D01*
G01X4328Y12361D01*
G01X4328Y14604D01*
G01X4329Y14631D01*
G01X4333Y14658D01*
G01X4338Y14684D01*
G01X4346Y14709D01*
G01X4357Y14734D01*
G01X4369Y14758D01*
G01X4384Y14780D01*
G01X4400Y14801D01*
G01X4418Y14821D01*
G01X5180Y15583D01*
G01X5199Y15601D01*
G01X5221Y15618D01*
G01X5243Y15632D01*
G01X5267Y15644D01*
G01X5292Y15655D01*
G01X5317Y15662D01*
G01X5343Y15668D01*
G01X5370Y15672D01*
G01X5396Y15673D01*
G01X5495Y15673D01*
G01X5509Y15674D01*
G01X5523Y15677D01*
G01X5537Y15682D01*
G01X5549Y15689D01*
G01X5561Y15698D01*
G01X5571Y15708D01*
G01X5580Y15720D01*
G01X5587Y15732D01*
G01X5592Y15746D01*
G01X5595Y15760D01*
G01X5596Y15775D01*
G01X5595Y15790D01*
G01X5592Y15804D01*
G01X5586Y15818D01*
G01X5579Y15832D01*
G01X5569Y15843D01*
G01X5559Y15853D01*
G01X5546Y15862D01*
G01X5519Y15879D01*
G01X5494Y15898D01*
G01X5470Y15918D01*
G01X5447Y15940D01*
G01X5426Y15964D01*
G01X5407Y15989D01*
G01X5390Y16015D01*
G01X5374Y16042D01*
G01X5360Y16070D01*
G01X5348Y16100D01*
G01X5339Y16130D01*
G01X5334Y16143D01*
G01X5327Y16156D01*
G01X5318Y16168D01*
G01X5308Y16178D01*
G01X5296Y16187D01*
G01X5283Y16194D01*
G01X5270Y16199D01*
G01X5256Y16202D01*
G01X5241Y16203D01*
G37*

%LPD*%
G36*
G01X20356Y16891D02*
G01X20341Y16892D01*
G01X20326Y16891D01*
G01X20310Y16888D01*
G01X20295Y16882D01*
G01X20282Y16873D01*
G01X20270Y16863D01*
G01X19006Y15602D01*
G01X18987Y15584D01*
G01X18966Y15568D01*
G01X18943Y15553D01*
G01X18919Y15541D01*
G01X18895Y15531D01*
G01X18869Y15523D01*
G01X18843Y15517D01*
G01X18817Y15514D01*
G01X18790Y15513D01*
G01X13483Y15513D01*
G01X13468Y15511D01*
G01X13454Y15508D01*
G01X13440Y15502D01*
G01X13426Y15495D01*
G01X13415Y15486D01*
G01X13405Y15475D01*
G01X13396Y15463D01*
G01X13389Y15450D01*
G01X13385Y15435D01*
G01X13382Y15420D01*
G01X13378Y15390D01*
G01X13372Y15360D01*
G01X13364Y15331D01*
G01X13355Y15302D01*
G01X13343Y15273D01*
G01X13329Y15246D01*
G01X13314Y15220D01*
G01X13296Y15195D01*
G01X13278Y15171D01*
G01X13257Y15148D01*
G01X13235Y15126D01*
G01X13213Y15107D01*
G01X13188Y15088D01*
G01X13162Y15072D01*
G01X13135Y15057D01*
G01X13108Y15044D01*
G01X13079Y15033D01*
G01X13037Y15019D01*
G01X13024Y15012D01*
G01X13012Y15003D01*
G01X13001Y14993D01*
G01X12993Y14981D01*
G01X12986Y14968D01*
G01X12980Y14955D01*
G01X12977Y14941D01*
G01X12976Y14926D01*
G01X12977Y14911D01*
G01X12980Y14897D01*
G01X12986Y14883D01*
G01X12993Y14870D01*
G01X13001Y14859D01*
G01X13011Y14849D01*
G01X13302Y14599D01*
G01X13322Y14580D01*
G01X13340Y14561D01*
G01X13355Y14540D01*
G01X13370Y14517D01*
G01X13381Y14494D01*
G01X13391Y14470D01*
G01X13399Y14444D01*
G01X13405Y14418D01*
G01X13408Y14392D01*
G01X13409Y14366D01*
G01X13409Y13865D01*
G01X13410Y13850D01*
G01X13418Y13822D01*
G01X13425Y13810D01*
G01X13434Y13798D01*
G01X13444Y13788D01*
G01X13456Y13779D01*
G01X13469Y13772D01*
G01X13482Y13768D01*
G01X13497Y13764D01*
G01X13511Y13763D01*
G01X15307Y13763D01*
G01X15334Y13762D01*
G01X15360Y13758D01*
G01X15387Y13753D01*
G01X15412Y13745D01*
G01X15437Y13735D01*
G01X15460Y13722D01*
G01X15483Y13708D01*
G01X15504Y13691D01*
G01X15524Y13674D01*
G01X15631Y13566D01*
G01X15642Y13557D01*
G01X15656Y13549D01*
G01X15669Y13543D01*
G01X15684Y13538D01*
G01X15699Y13537D01*
G01X15730Y13535D01*
G01X15761Y13530D01*
G01X15791Y13524D01*
G01X15820Y13516D01*
G01X15850Y13506D01*
G01X15878Y13494D01*
G01X15905Y13480D01*
G01X15931Y13464D01*
G01X15944Y13457D01*
G01X15958Y13452D01*
G01X15972Y13449D01*
G01X15987Y13448D01*
G01X16001Y13449D01*
G01X16015Y13452D01*
G01X16029Y13457D01*
G01X16042Y13464D01*
G01X16053Y13472D01*
G01X16063Y13483D01*
G01X16072Y13494D01*
G01X16079Y13507D01*
G01X16084Y13521D01*
G01X16087Y13535D01*
G01X16088Y13549D01*
G01X16087Y13565D01*
G01X16083Y13581D01*
G01X16077Y13595D01*
G01X16069Y13609D01*
G01X16058Y13621D01*
G01X15561Y14119D01*
G01X15548Y14129D01*
G01X15535Y14138D01*
G01X15520Y14144D01*
G01X15505Y14148D01*
G01X15488Y14149D01*
G01X15473Y14148D01*
G01X15457Y14143D01*
G01X15442Y14137D01*
G01X15414Y14124D01*
G01X15385Y14113D01*
G01X15356Y14104D01*
G01X15326Y14097D01*
G01X15295Y14092D01*
G01X15265Y14088D01*
G01X15234Y14087D01*
G01X15203Y14088D01*
G01X15172Y14092D01*
G01X15141Y14097D01*
G01X15111Y14104D01*
G01X15081Y14113D01*
G01X15052Y14125D01*
G01X15024Y14138D01*
G01X14997Y14154D01*
G01X14971Y14171D01*
G01X14946Y14190D01*
G01X14923Y14210D01*
G01X14900Y14232D01*
G01X14880Y14256D01*
G01X14861Y14281D01*
G01X14844Y14307D01*
G01X14829Y14334D01*
G01X14815Y14362D01*
G01X14804Y14391D01*
G01X14794Y14421D01*
G01X14787Y14451D01*
G01X14782Y14482D01*
G01X14778Y14513D01*
G01X14777Y14544D01*
G01X14778Y14575D01*
G01X14782Y14606D01*
G01X14787Y14637D01*
G01X14794Y14667D01*
G01X14804Y14697D01*
G01X14815Y14726D01*
G01X14829Y14754D01*
G01X14844Y14781D01*
G01X14861Y14807D01*
G01X14880Y14832D01*
G01X14900Y14855D01*
G01X14923Y14878D01*
G01X14946Y14898D01*
G01X14971Y14917D01*
G01X14997Y14934D01*
G01X15024Y14949D01*
G01X15052Y14962D01*
G01X15081Y14974D01*
G01X15111Y14983D01*
G01X15141Y14991D01*
G01X15172Y14996D01*
G01X15203Y14999D01*
G01X15234Y15000D01*
G01X15265Y14999D01*
G01X15297Y14996D01*
G01X15328Y14991D01*
G01X15358Y14983D01*
G01X15388Y14974D01*
G01X15417Y14962D01*
G01X15446Y14948D01*
G01X15473Y14932D01*
G01X15499Y14915D01*
G01X15524Y14896D01*
G01X15548Y14875D01*
G01X15561Y14865D01*
G01X15575Y14857D01*
G01X15590Y14851D01*
G01X15606Y14848D01*
G01X15631Y14844D01*
G01X15656Y14838D01*
G01X15680Y14830D01*
G01X15703Y14820D01*
G01X15726Y14807D01*
G01X15747Y14794D01*
G01X15767Y14778D01*
G01X15786Y14761D01*
G01X16710Y13836D01*
G01X16722Y13826D01*
G01X16736Y13817D01*
G01X16751Y13811D01*
G01X16767Y13808D01*
G01X16782Y13806D01*
G01X17411Y13806D01*
G01X17438Y13805D01*
G01X17464Y13802D01*
G01X17490Y13796D01*
G01X17515Y13788D01*
G01X17540Y13778D01*
G01X17564Y13766D01*
G01X17586Y13751D01*
G01X17608Y13735D01*
G01X17627Y13717D01*
G01X20270Y11077D01*
G01X20281Y11067D01*
G01X20295Y11058D01*
G01X20310Y11052D01*
G01X20326Y11048D01*
G01X20341Y11047D01*
G01X20356Y11048D01*
G01X20370Y11051D01*
G01X20384Y11056D01*
G01X20396Y11063D01*
G01X20408Y11072D01*
G01X20418Y11082D01*
G01X20427Y11094D01*
G01X20434Y11107D01*
G01X20439Y11120D01*
G01X20442Y11134D01*
G01X20443Y11149D01*
G01X20443Y16791D01*
G01X20442Y16805D01*
G01X20439Y16820D01*
G01X20434Y16833D01*
G01X20427Y16846D01*
G01X20418Y16857D01*
G01X20408Y16868D01*
G01X20396Y16877D01*
G01X20384Y16883D01*
G01X20370Y16888D01*
G01X20356Y16891D01*
G37*

%LPD*%
G36*
G01X14759Y11284D02*
G01X14744Y11285D01*
G01X14728Y11284D01*
G01X14713Y11280D01*
G01X14698Y11274D01*
G01X14685Y11266D01*
G01X14673Y11255D01*
G01X14630Y11213D01*
G01X14609Y11193D01*
G01X14585Y11175D01*
G01X14571Y11165D01*
G01X14561Y11153D01*
G01X14552Y11139D01*
G01X14545Y11124D01*
G01X14541Y11108D01*
G01X14540Y11091D01*
G01X14541Y11077D01*
G01X14544Y11062D01*
G01X14549Y11049D01*
G01X14556Y11036D01*
G01X14564Y11025D01*
G01X14575Y11014D01*
G01X14586Y11006D01*
G01X14599Y10999D01*
G01X14613Y10994D01*
G01X14627Y10991D01*
G01X14642Y10989D01*
G01X14751Y10989D01*
G01X14765Y10991D01*
G01X14779Y10994D01*
G01X14793Y10999D01*
G01X14806Y11006D01*
G01X14817Y11014D01*
G01X14828Y11025D01*
G01X14836Y11036D01*
G01X14843Y11049D01*
G01X14848Y11062D01*
G01X14851Y11077D01*
G01X14852Y11091D01*
G01X14851Y11107D01*
G01X14847Y11141D01*
G01X14846Y11175D01*
G01X14846Y11183D01*
G01X14845Y11198D01*
G01X14842Y11212D01*
G01X14837Y11226D01*
G01X14830Y11238D01*
G01X14821Y11250D01*
G01X14811Y11260D01*
G01X14800Y11269D01*
G01X14786Y11276D01*
G01X14773Y11281D01*
G01X14759Y11284D01*
G37*

%LPD*%
G36*
G01X15671Y10845D02*
G01X15657Y10846D01*
G01X15639Y10844D01*
G01X15622Y10839D01*
G01X15606Y10832D01*
G01X15592Y10823D01*
G01X15575Y10809D01*
G01X15563Y10799D01*
G01X15553Y10787D01*
G01X15545Y10773D01*
G01X15539Y10759D01*
G01X15535Y10743D01*
G01X15534Y10728D01*
G01X15535Y10713D01*
G01X15538Y10699D01*
G01X15543Y10686D01*
G01X15550Y10673D01*
G01X15559Y10661D01*
G01X15569Y10651D01*
G01X15581Y10642D01*
G01X15594Y10635D01*
G01X15607Y10630D01*
G01X15621Y10627D01*
G01X15636Y10626D01*
G01X15657Y10626D01*
G01X15671Y10627D01*
G01X15685Y10630D01*
G01X15699Y10635D01*
G01X15711Y10642D01*
G01X15723Y10651D01*
G01X15733Y10661D01*
G01X15742Y10673D01*
G01X15749Y10686D01*
G01X15754Y10699D01*
G01X15757Y10713D01*
G01X15758Y10728D01*
G01X15758Y10744D01*
G01X15757Y10758D01*
G01X15754Y10772D01*
G01X15749Y10786D01*
G01X15742Y10799D01*
G01X15733Y10810D01*
G01X15723Y10821D01*
G01X15711Y10829D01*
G01X15699Y10836D01*
G01X15685Y10841D01*
G01X15671Y10845D01*
G37*

%LPD*%
G36*
G01X18111Y10900D02*
G01X18094Y10901D01*
G01X18079Y10900D01*
G01X18063Y10897D01*
G01X18049Y10891D01*
G01X18036Y10883D01*
G01X18024Y10872D01*
G01X18013Y10861D01*
G01X18005Y10848D01*
G01X17998Y10833D01*
G01X17994Y10818D01*
G01X17987Y10784D01*
G01X17977Y10750D01*
G01X17964Y10716D01*
G01X17948Y10684D01*
G01X17942Y10669D01*
G01X17938Y10653D01*
G01X17936Y10637D01*
G01X17938Y10619D01*
G01X17942Y10603D01*
G01X17949Y10587D01*
G01X17959Y10573D01*
G01X17971Y10561D01*
G01X17993Y10538D01*
G01X18003Y10528D01*
G01X18015Y10519D01*
G01X18027Y10512D01*
G01X18041Y10508D01*
G01X18055Y10505D01*
G01X18070Y10503D01*
G01X18084Y10505D01*
G01X18098Y10508D01*
G01X18111Y10512D01*
G01X18124Y10519D01*
G01X18136Y10528D01*
G01X18146Y10538D01*
G01X18166Y10559D01*
G01X18188Y10577D01*
G01X18212Y10592D01*
G01X18237Y10605D01*
G01X18250Y10612D01*
G01X18262Y10620D01*
G01X18273Y10631D01*
G01X18282Y10642D01*
G01X18289Y10655D01*
G01X18294Y10669D01*
G01X18297Y10683D01*
G01X18298Y10698D01*
G01X18297Y10714D01*
G01X18294Y10730D01*
G01X18288Y10744D01*
G01X18279Y10758D01*
G01X18269Y10770D01*
G01X18167Y10872D01*
G01X18154Y10882D01*
G01X18141Y10891D01*
G01X18126Y10897D01*
G01X18111Y10900D01*
G37*

%LPD*%
G36*
G01X1744Y11250D02*
G01X1121Y11250D01*
G01X1105Y11249D01*
G01X1089Y11245D01*
G01X1074Y11239D01*
G01X1061Y11231D01*
G01X1049Y11220D01*
G01X782Y10953D01*
G01X772Y10941D01*
G01X763Y10928D01*
G01X757Y10913D01*
G01X753Y10897D01*
G01X752Y10882D01*
G01X752Y10880D01*
G01X754Y10727D01*
G01X755Y10712D01*
G01X758Y10698D01*
G01X764Y10684D01*
G01X771Y10672D01*
G01X779Y10661D01*
G01X789Y10650D01*
G01X801Y10642D01*
G01X814Y10635D01*
G01X827Y10630D01*
G01X841Y10627D01*
G01X855Y10626D01*
G01X919Y10626D01*
G01X943Y10625D01*
G01X968Y10622D01*
G01X991Y10616D01*
G01X1014Y10608D01*
G01X1036Y10598D01*
G01X1058Y10585D01*
G01X1077Y10572D01*
G01X1096Y10555D01*
G01X1123Y10528D01*
G01X1134Y10519D01*
G01X1147Y10512D01*
G01X1161Y10507D01*
G01X1175Y10504D01*
G01X1189Y10503D01*
G01X1203Y10504D01*
G01X1218Y10507D01*
G01X1231Y10512D01*
G01X1244Y10519D01*
G01X1256Y10528D01*
G01X1283Y10555D01*
G01X1301Y10572D01*
G01X1321Y10585D01*
G01X1342Y10598D01*
G01X1364Y10608D01*
G01X1387Y10616D01*
G01X1411Y10622D01*
G01X1435Y10625D01*
G01X1459Y10626D01*
G01X1560Y10626D01*
G01X1574Y10627D01*
G01X1588Y10630D01*
G01X1602Y10635D01*
G01X1614Y10642D01*
G01X1626Y10651D01*
G01X1636Y10661D01*
G01X1645Y10673D01*
G01X1652Y10686D01*
G01X1657Y10699D01*
G01X1660Y10713D01*
G01X1661Y10728D01*
G01X1661Y10795D01*
G01X1662Y10822D01*
G01X1666Y10848D01*
G01X1671Y10874D01*
G01X1679Y10899D01*
G01X1690Y10924D01*
G01X1702Y10948D01*
G01X1717Y10970D01*
G01X1733Y10992D01*
G01X1751Y11012D01*
G01X1816Y11077D01*
G01X1826Y11088D01*
G01X1834Y11102D01*
G01X1840Y11117D01*
G01X1844Y11133D01*
G01X1846Y11148D01*
G01X1845Y11163D01*
G01X1842Y11177D01*
G01X1836Y11190D01*
G01X1829Y11203D01*
G01X1821Y11215D01*
G01X1811Y11225D01*
G01X1799Y11234D01*
G01X1786Y11241D01*
G01X1772Y11246D01*
G01X1758Y11249D01*
G01X1744Y11250D01*
G37*

%LPD*%
G36*
G01X6831Y11295D02*
G01X6815Y11296D01*
G01X6799Y11294D01*
G01X6783Y11291D01*
G01X6768Y11284D01*
G01X6754Y11275D01*
G01X6742Y11264D01*
G01X6732Y11251D01*
G01X6711Y11223D01*
G01X6688Y11197D01*
G01X6678Y11185D01*
G01X6671Y11172D01*
G01X6665Y11158D01*
G01X6662Y11143D01*
G01X6660Y11128D01*
G01X6660Y10807D01*
G01X6659Y10774D01*
G01X6653Y10742D01*
G01X6651Y10720D01*
G01X6652Y10705D01*
G01X6656Y10690D01*
G01X6661Y10675D01*
G01X6669Y10662D01*
G01X6679Y10650D01*
G01X6690Y10640D01*
G01X6703Y10631D01*
G01X6717Y10625D01*
G01X6732Y10620D01*
G01X6756Y10614D01*
G01X6779Y10606D01*
G01X6801Y10595D01*
G01X6816Y10588D01*
G01X6833Y10584D01*
G01X6849Y10583D01*
G01X6866Y10584D01*
G01X6882Y10588D01*
G01X6898Y10595D01*
G01X6920Y10606D01*
G01X6944Y10615D01*
G01X6969Y10621D01*
G01X6994Y10625D01*
G01X7019Y10626D01*
G01X7919Y10626D01*
G01X7944Y10625D01*
G01X7967Y10622D01*
G01X7991Y10616D01*
G01X8014Y10608D01*
G01X8037Y10598D01*
G01X8057Y10585D01*
G01X8077Y10571D01*
G01X8096Y10555D01*
G01X8123Y10528D01*
G01X8135Y10519D01*
G01X8147Y10512D01*
G01X8161Y10507D01*
G01X8175Y10504D01*
G01X8189Y10503D01*
G01X8204Y10504D01*
G01X8218Y10507D01*
G01X8231Y10512D01*
G01X8244Y10519D01*
G01X8256Y10528D01*
G01X8283Y10555D01*
G01X8301Y10571D01*
G01X8321Y10585D01*
G01X8342Y10598D01*
G01X8364Y10608D01*
G01X8387Y10616D01*
G01X8411Y10622D01*
G01X8435Y10625D01*
G01X8459Y10626D01*
G01X8503Y10626D01*
G01X8519Y10627D01*
G01X8533Y10630D01*
G01X8547Y10636D01*
G01X8560Y10643D01*
G01X8571Y10652D01*
G01X8582Y10663D01*
G01X8590Y10675D01*
G01X8597Y10688D01*
G01X8602Y10702D01*
G01X8605Y10716D01*
G01X8609Y10742D01*
G01X8615Y10767D01*
G01X8623Y10792D01*
G01X8633Y10816D01*
G01X8645Y10838D01*
G01X8659Y10860D01*
G01X8675Y10881D01*
G01X8692Y10900D01*
G01X8759Y10966D01*
G01X8770Y10979D01*
G01X8778Y10992D01*
G01X8784Y11007D01*
G01X8787Y11022D01*
G01X8789Y11038D01*
G01X8788Y11053D01*
G01X8785Y11067D01*
G01X8780Y11080D01*
G01X8773Y11093D01*
G01X8764Y11105D01*
G01X8754Y11115D01*
G01X8742Y11123D01*
G01X8729Y11131D01*
G01X8716Y11136D01*
G01X8702Y11139D01*
G01X8687Y11140D01*
G01X8673Y11139D01*
G01X8658Y11136D01*
G01X8630Y11128D01*
G01X8601Y11124D01*
G01X8571Y11123D01*
G01X8567Y11123D01*
G01X7135Y11141D01*
G01X7109Y11142D01*
G01X7083Y11146D01*
G01X7057Y11152D01*
G01X7032Y11160D01*
G01X7008Y11171D01*
G01X6985Y11183D01*
G01X6963Y11197D01*
G01X6941Y11213D01*
G01X6922Y11231D01*
G01X6887Y11266D01*
G01X6875Y11276D01*
G01X6862Y11284D01*
G01X6847Y11291D01*
G01X6831Y11295D01*
G37*

%LPD*%
G36*
G01X5901Y11304D02*
G01X5887Y11305D01*
G01X5871Y11304D01*
G01X5855Y11300D01*
G01X5840Y11294D01*
G01X5827Y11285D01*
G01X5815Y11275D01*
G01X5310Y10770D01*
G01X5299Y10758D01*
G01X5291Y10744D01*
G01X5285Y10729D01*
G01X5281Y10714D01*
G01X5280Y10698D01*
G01X5281Y10683D01*
G01X5284Y10669D01*
G01X5290Y10655D01*
G01X5297Y10642D01*
G01X5306Y10631D01*
G01X5316Y10620D01*
G01X5328Y10612D01*
G01X5341Y10605D01*
G01X5362Y10595D01*
G01X5381Y10583D01*
G01X5400Y10570D01*
G01X5417Y10554D01*
G01X5443Y10528D01*
G01X5454Y10519D01*
G01X5467Y10512D01*
G01X5481Y10507D01*
G01X5495Y10504D01*
G01X5509Y10503D01*
G01X5523Y10504D01*
G01X5538Y10507D01*
G01X5551Y10512D01*
G01X5564Y10519D01*
G01X5576Y10528D01*
G01X5603Y10555D01*
G01X5621Y10571D01*
G01X5641Y10585D01*
G01X5662Y10598D01*
G01X5684Y10608D01*
G01X5707Y10616D01*
G01X5731Y10622D01*
G01X5755Y10625D01*
G01X5780Y10626D01*
G01X5824Y10626D01*
G01X5839Y10627D01*
G01X5853Y10630D01*
G01X5867Y10636D01*
G01X5880Y10643D01*
G01X5892Y10652D01*
G01X5902Y10663D01*
G01X5911Y10675D01*
G01X5917Y10688D01*
G01X5922Y10702D01*
G01X5925Y10716D01*
G01X5929Y10742D01*
G01X5935Y10767D01*
G01X5943Y10792D01*
G01X5953Y10816D01*
G01X5965Y10838D01*
G01X5980Y10860D01*
G01X5995Y10881D01*
G01X6013Y10900D01*
G01X6018Y10904D01*
G01X6028Y10917D01*
G01X6037Y10930D01*
G01X6043Y10945D01*
G01X6046Y10961D01*
G01X6048Y10977D01*
G01X6048Y11128D01*
G01X6046Y11143D01*
G01X6043Y11158D01*
G01X6038Y11172D01*
G01X6030Y11185D01*
G01X5995Y11227D01*
G01X5972Y11259D01*
G01X5963Y11270D01*
G01X5953Y11280D01*
G01X5942Y11289D01*
G01X5929Y11296D01*
G01X5915Y11301D01*
G01X5901Y11304D01*
G37*

%LPD*%
G36*
G01X17242Y13194D02*
G01X16781Y13194D01*
G01X16766Y13192D01*
G01X16750Y13188D01*
G01X16735Y13182D01*
G01X16722Y13174D01*
G01X16710Y13164D01*
G01X16651Y13106D01*
G01X16641Y13093D01*
G01X16632Y13080D01*
G01X16626Y13065D01*
G01X16622Y13049D01*
G01X16621Y13033D01*
G01X16621Y13031D01*
G01X16625Y12833D01*
G01X16625Y12827D01*
G01X16624Y12800D01*
G01X16620Y12773D01*
G01X16615Y12747D01*
G01X16607Y12722D01*
G01X16596Y12697D01*
G01X16584Y12673D01*
G01X16569Y12651D01*
G01X16553Y12630D01*
G01X16535Y12610D01*
G01X16154Y12229D01*
G01X16134Y12211D01*
G01X16113Y12194D01*
G01X16090Y12180D01*
G01X16078Y12171D01*
G01X16066Y12161D01*
G01X16057Y12149D01*
G01X16049Y12136D01*
G01X16044Y12122D01*
G01X16040Y12107D01*
G01X16039Y12092D01*
G01X16040Y12077D01*
G01X16043Y12063D01*
G01X16048Y12049D01*
G01X16055Y12037D01*
G01X16064Y12025D01*
G01X16074Y12015D01*
G01X16086Y12006D01*
G01X16099Y11999D01*
G01X16112Y11994D01*
G01X16126Y11991D01*
G01X16141Y11990D01*
G01X17218Y11990D01*
G01X17817Y11970D01*
G01X17842Y11968D01*
G01X17868Y11964D01*
G01X17893Y11958D01*
G01X17917Y11949D01*
G01X17941Y11939D01*
G01X17963Y11927D01*
G01X17984Y11913D01*
G01X18005Y11898D01*
G01X18023Y11880D01*
G01X19006Y10900D01*
G01X19024Y10881D01*
G01X19040Y10860D01*
G01X19054Y10839D01*
G01X19066Y10816D01*
G01X19076Y10792D01*
G01X19085Y10767D01*
G01X19091Y10742D01*
G01X19095Y10716D01*
G01X19097Y10702D01*
G01X19102Y10688D01*
G01X19109Y10675D01*
G01X19118Y10663D01*
G01X19128Y10652D01*
G01X19139Y10643D01*
G01X19153Y10636D01*
G01X19166Y10630D01*
G01X19181Y10627D01*
G01X19196Y10626D01*
G01X19239Y10626D01*
G01X19263Y10625D01*
G01X19288Y10622D01*
G01X19311Y10616D01*
G01X19334Y10608D01*
G01X19356Y10598D01*
G01X19378Y10585D01*
G01X19397Y10571D01*
G01X19416Y10555D01*
G01X19443Y10528D01*
G01X19454Y10519D01*
G01X19467Y10512D01*
G01X19481Y10507D01*
G01X19495Y10504D01*
G01X19509Y10503D01*
G01X19523Y10504D01*
G01X19538Y10507D01*
G01X19551Y10512D01*
G01X19564Y10519D01*
G01X19576Y10528D01*
G01X19602Y10554D01*
G01X19619Y10570D01*
G01X19637Y10583D01*
G01X19657Y10595D01*
G01X19691Y10612D01*
G01X19703Y10620D01*
G01X19713Y10631D01*
G01X19722Y10642D01*
G01X19729Y10656D01*
G01X19735Y10669D01*
G01X19738Y10683D01*
G01X19739Y10698D01*
G01X19738Y10714D01*
G01X19734Y10730D01*
G01X19728Y10744D01*
G01X19720Y10758D01*
G01X19709Y10770D01*
G01X17314Y13164D01*
G01X17301Y13174D01*
G01X17288Y13182D01*
G01X17273Y13188D01*
G01X17258Y13192D01*
G01X17242Y13194D01*
G37*

%LPD*%
G36*
G01X3141Y10869D02*
G01X2518Y10869D01*
G01X2501Y10868D01*
G01X2486Y10864D01*
G01X2471Y10858D01*
G01X2458Y10850D01*
G01X2446Y10839D01*
G01X2391Y10784D01*
G01X2380Y10772D01*
G01X2372Y10759D01*
G01X2366Y10744D01*
G01X2362Y10728D01*
G01X2361Y10712D01*
G01X2362Y10698D01*
G01X2365Y10684D01*
G01X2370Y10670D01*
G01X2377Y10658D01*
G01X2386Y10646D01*
G01X2396Y10636D01*
G01X2407Y10627D01*
G01X2420Y10620D01*
G01X2433Y10615D01*
G01X2456Y10607D01*
G01X2478Y10597D01*
G01X2498Y10585D01*
G01X2518Y10571D01*
G01X2536Y10555D01*
G01X2563Y10528D01*
G01X2575Y10519D01*
G01X2587Y10512D01*
G01X2601Y10507D01*
G01X2615Y10504D01*
G01X2629Y10503D01*
G01X2644Y10504D01*
G01X2658Y10507D01*
G01X2672Y10512D01*
G01X2684Y10519D01*
G01X2696Y10528D01*
G01X2723Y10555D01*
G01X2741Y10571D01*
G01X2761Y10585D01*
G01X2782Y10598D01*
G01X2804Y10608D01*
G01X2828Y10616D01*
G01X2851Y10622D01*
G01X2875Y10625D01*
G01X2900Y10626D01*
G01X3101Y10626D01*
G01X3118Y10627D01*
G01X3133Y10631D01*
G01X3148Y10637D01*
G01X3161Y10645D01*
G01X3173Y10656D01*
G01X3213Y10696D01*
G01X3223Y10708D01*
G01X3232Y10721D01*
G01X3238Y10736D01*
G01X3242Y10752D01*
G01X3243Y10767D01*
G01X3242Y10782D01*
G01X3239Y10796D01*
G01X3227Y10822D01*
G01X3218Y10834D01*
G01X3208Y10844D01*
G01X3196Y10853D01*
G01X3183Y10860D01*
G01X3170Y10865D01*
G01X3156Y10868D01*
G01X3141Y10869D01*
G37*

%LPD*%
G36*
G01X17133Y11377D02*
G01X16614Y11377D01*
G01X16599Y11376D01*
G01X16585Y11373D01*
G01X16571Y11368D01*
G01X16559Y11361D01*
G01X16547Y11352D01*
G01X16537Y11342D01*
G01X16528Y11330D01*
G01X16521Y11317D01*
G01X16516Y11304D01*
G01X16513Y11290D01*
G01X16512Y11275D01*
G01X16514Y11257D01*
G01X16519Y11216D01*
G01X16521Y11175D01*
G01X16520Y11144D01*
G01X16517Y11113D01*
G01X16512Y11083D01*
G01X16504Y11052D01*
G01X16495Y11023D01*
G01X16483Y10994D01*
G01X16470Y10965D01*
G01X16455Y10938D01*
G01X16419Y10888D01*
G01X16398Y10864D01*
G01X16389Y10852D01*
G01X16381Y10839D01*
G01X16375Y10825D01*
G01X16372Y10810D01*
G01X16371Y10795D01*
G01X16371Y10709D01*
G01X16372Y10694D01*
G01X16376Y10678D01*
G01X16382Y10663D01*
G01X16390Y10650D01*
G01X16400Y10638D01*
G01X16412Y10628D01*
G01X16426Y10619D01*
G01X16440Y10613D01*
G01X16466Y10603D01*
G01X16490Y10590D01*
G01X16513Y10575D01*
G01X16534Y10557D01*
G01X16563Y10528D01*
G01X16575Y10519D01*
G01X16587Y10512D01*
G01X16601Y10507D01*
G01X16615Y10504D01*
G01X16629Y10503D01*
G01X16644Y10504D01*
G01X16658Y10507D01*
G01X16672Y10512D01*
G01X16684Y10519D01*
G01X16696Y10528D01*
G01X16723Y10555D01*
G01X16741Y10571D01*
G01X16761Y10585D01*
G01X16782Y10598D01*
G01X16805Y10608D01*
G01X16828Y10616D01*
G01X16851Y10622D01*
G01X16875Y10625D01*
G01X16900Y10626D01*
G01X16942Y10626D01*
G01X16958Y10627D01*
G01X16973Y10631D01*
G01X16987Y10636D01*
G01X17000Y10644D01*
G01X17012Y10654D01*
G01X17022Y10665D01*
G01X17031Y10678D01*
G01X17037Y10692D01*
G01X17042Y10706D01*
G01X17044Y10722D01*
G01X17046Y10747D01*
G01X17051Y10772D01*
G01X17058Y10797D01*
G01X17067Y10821D01*
G01X17077Y10844D01*
G01X17084Y10859D01*
G01X17088Y10874D01*
G01X17089Y10891D01*
G01X17089Y10899D01*
G01X17090Y10929D01*
G01X17093Y10960D01*
G01X17098Y10990D01*
G01X17105Y11020D01*
G01X17115Y11050D01*
G01X17126Y11078D01*
G01X17138Y11106D01*
G01X17153Y11133D01*
G01X17170Y11159D01*
G01X17188Y11183D01*
G01X17209Y11207D01*
G01X17218Y11218D01*
G01X17225Y11232D01*
G01X17230Y11246D01*
G01X17234Y11261D01*
G01X17235Y11275D01*
G01X17234Y11290D01*
G01X17231Y11304D01*
G01X17226Y11317D01*
G01X17219Y11330D01*
G01X17210Y11342D01*
G01X17200Y11352D01*
G01X17188Y11361D01*
G01X17175Y11368D01*
G01X17162Y11373D01*
G01X17148Y11376D01*
G01X17133Y11377D01*
G37*

%LPD*%
G36*
G01X13011Y11128D02*
G01X12198Y11132D01*
G01X12183Y11131D01*
G01X12169Y11127D01*
G01X12155Y11122D01*
G01X12143Y11116D01*
G01X12131Y11107D01*
G01X12121Y11096D01*
G01X12112Y11085D01*
G01X12105Y11073D01*
G01X12097Y11045D01*
G01X12096Y11030D01*
G01X12096Y10728D01*
G01X12097Y10713D01*
G01X12101Y10699D01*
G01X12105Y10686D01*
G01X12112Y10673D01*
G01X12121Y10661D01*
G01X12131Y10651D01*
G01X12143Y10642D01*
G01X12155Y10635D01*
G01X12169Y10630D01*
G01X12183Y10627D01*
G01X12198Y10626D01*
G01X12239Y10626D01*
G01X12264Y10625D01*
G01X12288Y10622D01*
G01X12311Y10616D01*
G01X12334Y10608D01*
G01X12357Y10598D01*
G01X12377Y10585D01*
G01X12397Y10571D01*
G01X12416Y10555D01*
G01X12443Y10528D01*
G01X12455Y10519D01*
G01X12467Y10512D01*
G01X12481Y10507D01*
G01X12495Y10504D01*
G01X12509Y10503D01*
G01X12524Y10504D01*
G01X12538Y10507D01*
G01X12551Y10512D01*
G01X12564Y10519D01*
G01X12576Y10528D01*
G01X12586Y10538D01*
G01X12602Y10555D01*
G01X12621Y10571D01*
G01X12641Y10585D01*
G01X12662Y10598D01*
G01X12684Y10608D01*
G01X12707Y10616D01*
G01X12731Y10622D01*
G01X12755Y10625D01*
G01X12779Y10626D01*
G01X12824Y10626D01*
G01X12839Y10627D01*
G01X12853Y10630D01*
G01X12867Y10636D01*
G01X12880Y10643D01*
G01X12892Y10652D01*
G01X12902Y10663D01*
G01X12910Y10675D01*
G01X12917Y10688D01*
G01X12922Y10702D01*
G01X12925Y10716D01*
G01X12929Y10742D01*
G01X12935Y10767D01*
G01X12943Y10792D01*
G01X12953Y10815D01*
G01X12965Y10838D01*
G01X12979Y10860D01*
G01X12995Y10880D01*
G01X13012Y10899D01*
G01X13013Y10900D01*
G01X13038Y10922D01*
G01X13065Y10942D01*
G01X13076Y10950D01*
G01X13087Y10960D01*
G01X13096Y10972D01*
G01X13103Y10985D01*
G01X13108Y10998D01*
G01X13111Y11013D01*
G01X13112Y11027D01*
G01X13111Y11042D01*
G01X13108Y11055D01*
G01X13103Y11069D01*
G01X13096Y11082D01*
G01X13087Y11093D01*
G01X13077Y11104D01*
G01X13065Y11112D01*
G01X13053Y11119D01*
G01X13039Y11124D01*
G01X13025Y11127D01*
G01X13011Y11128D01*
G37*

%LPD*%
G36*
G01X9981Y11337D02*
G01X9965Y11338D01*
G01X9951Y11337D01*
G01X9937Y11334D01*
G01X9923Y11329D01*
G01X9911Y11322D01*
G01X9899Y11313D01*
G01X9889Y11303D01*
G01X9880Y11292D01*
G01X9873Y11279D01*
G01X9868Y11266D01*
G01X9865Y11251D01*
G01X9864Y11237D01*
G01X9862Y11206D01*
G01X9859Y11175D01*
G01X9854Y11144D01*
G01X9846Y11114D01*
G01X9836Y11084D01*
G01X9825Y11055D01*
G01X9811Y11026D01*
G01X9796Y10999D01*
G01X9779Y10974D01*
G01X9759Y10949D01*
G01X9738Y10925D01*
G01X9716Y10903D01*
G01X9693Y10883D01*
G01X9667Y10864D01*
G01X9641Y10847D01*
G01X9614Y10832D01*
G01X9585Y10819D01*
G01X9556Y10808D01*
G01X9527Y10798D01*
G01X9496Y10791D01*
G01X9481Y10787D01*
G01X9467Y10781D01*
G01X9454Y10772D01*
G01X9442Y10762D01*
G01X9433Y10750D01*
G01X9424Y10737D01*
G01X9419Y10722D01*
G01X9415Y10707D01*
G01X9414Y10692D01*
G01X9415Y10675D01*
G01X9419Y10660D01*
G01X9425Y10645D01*
G01X9434Y10631D01*
G01X9445Y10619D01*
G01X9457Y10608D01*
G01X9471Y10600D01*
G01X9494Y10588D01*
G01X9515Y10573D01*
G01X9535Y10556D01*
G01X9563Y10528D01*
G01X9575Y10519D01*
G01X9587Y10512D01*
G01X9601Y10507D01*
G01X9615Y10504D01*
G01X9630Y10503D01*
G01X9644Y10504D01*
G01X9658Y10507D01*
G01X9671Y10512D01*
G01X9684Y10519D01*
G01X9696Y10528D01*
G01X9723Y10555D01*
G01X9741Y10571D01*
G01X9761Y10585D01*
G01X9782Y10598D01*
G01X9804Y10608D01*
G01X9827Y10616D01*
G01X9851Y10622D01*
G01X9875Y10625D01*
G01X9899Y10626D01*
G01X10461Y10626D01*
G01X10475Y10627D01*
G01X10490Y10630D01*
G01X10503Y10635D01*
G01X10516Y10642D01*
G01X10528Y10651D01*
G01X10538Y10661D01*
G01X10547Y10673D01*
G01X10554Y10686D01*
G01X10559Y10699D01*
G01X10562Y10713D01*
G01X10563Y10728D01*
G01X10561Y10745D01*
G01X10556Y10763D01*
G01X10546Y10794D01*
G01X10538Y10825D01*
G01X10532Y10857D01*
G01X10529Y10889D01*
G01X10528Y10921D01*
G01X10530Y10963D01*
G01X10535Y11004D01*
G01X10537Y11022D01*
G01X10536Y11037D01*
G01X10533Y11051D01*
G01X10528Y11064D01*
G01X10521Y11077D01*
G01X10512Y11088D01*
G01X10502Y11099D01*
G01X10490Y11108D01*
G01X10478Y11114D01*
G01X10464Y11119D01*
G01X10450Y11122D01*
G01X10435Y11123D01*
G01X10349Y11123D01*
G01X10323Y11124D01*
G01X10296Y11127D01*
G01X10270Y11134D01*
G01X10245Y11141D01*
G01X10220Y11152D01*
G01X10196Y11164D01*
G01X10174Y11178D01*
G01X10152Y11195D01*
G01X10133Y11213D01*
G01X10037Y11308D01*
G01X10025Y11318D01*
G01X10011Y11327D01*
G01X9996Y11333D01*
G01X9981Y11337D01*
G37*

%LPD*%
G36*
G01X15204Y7435D02*
G01X15189Y7436D01*
G01X15175Y7435D01*
G01X15161Y7432D01*
G01X15147Y7427D01*
G01X15134Y7420D01*
G01X15123Y7411D01*
G01X15096Y7384D01*
G01X15077Y7368D01*
G01X15058Y7354D01*
G01X15036Y7341D01*
G01X15014Y7331D01*
G01X14991Y7323D01*
G01X14968Y7317D01*
G01X14943Y7314D01*
G01X14919Y7313D01*
G01X14875Y7313D01*
G01X14860Y7312D01*
G01X14846Y7309D01*
G01X14832Y7303D01*
G01X14819Y7296D01*
G01X14807Y7287D01*
G01X14797Y7276D01*
G01X14788Y7264D01*
G01X14782Y7251D01*
G01X14777Y7237D01*
G01X14774Y7222D01*
G01X14770Y7196D01*
G01X14763Y7169D01*
G01X14754Y7143D01*
G01X14743Y7118D01*
G01X14730Y7095D01*
G01X14714Y7072D01*
G01X14697Y7051D01*
G01X14678Y7032D01*
G01X14657Y7014D01*
G01X14634Y6998D01*
G01X14623Y6990D01*
G01X14613Y6980D01*
G01X14604Y6968D01*
G01X14597Y6955D01*
G01X14592Y6942D01*
G01X14589Y6927D01*
G01X14588Y6913D01*
G01X14589Y6898D01*
G01X14592Y6884D01*
G01X14597Y6870D01*
G01X14604Y6858D01*
G01X14613Y6846D01*
G01X14623Y6836D01*
G01X14634Y6827D01*
G01X14647Y6820D01*
G01X14675Y6812D01*
G01X14689Y6811D01*
G01X16429Y6811D01*
G01X16444Y6813D01*
G01X16460Y6816D01*
G01X16475Y6822D01*
G01X16489Y6831D01*
G01X16501Y6841D01*
G01X16829Y7169D01*
G01X16839Y7181D01*
G01X16847Y7195D01*
G01X16853Y7210D01*
G01X16857Y7225D01*
G01X16858Y7241D01*
G01X16857Y7255D01*
G01X16854Y7270D01*
G01X16849Y7284D01*
G01X16842Y7297D01*
G01X16833Y7308D01*
G01X16822Y7318D01*
G01X16810Y7327D01*
G01X16798Y7334D01*
G01X16777Y7344D01*
G01X16757Y7356D01*
G01X16739Y7369D01*
G01X16722Y7385D01*
G01X16696Y7411D01*
G01X16684Y7420D01*
G01X16672Y7427D01*
G01X16658Y7432D01*
G01X16644Y7435D01*
G01X16629Y7436D01*
G01X16615Y7435D01*
G01X16601Y7432D01*
G01X16587Y7427D01*
G01X16575Y7420D01*
G01X16563Y7411D01*
G01X16536Y7384D01*
G01X16518Y7368D01*
G01X16498Y7354D01*
G01X16476Y7341D01*
G01X16455Y7331D01*
G01X16431Y7323D01*
G01X16408Y7317D01*
G01X16384Y7314D01*
G01X16359Y7313D01*
G01X15459Y7313D01*
G01X15435Y7314D01*
G01X15411Y7317D01*
G01X15387Y7323D01*
G01X15364Y7331D01*
G01X15342Y7341D01*
G01X15321Y7354D01*
G01X15301Y7368D01*
G01X15283Y7384D01*
G01X15256Y7411D01*
G01X15244Y7420D01*
G01X15231Y7427D01*
G01X15218Y7432D01*
G01X15204Y7435D01*
G37*

%LPD*%
G36*
G01X11084Y7435D02*
G01X11069Y7436D01*
G01X11055Y7435D01*
G01X11041Y7432D01*
G01X11027Y7427D01*
G01X11014Y7420D01*
G01X11003Y7411D01*
G01X10976Y7384D01*
G01X10958Y7367D01*
G01X10938Y7354D01*
G01X10916Y7341D01*
G01X10895Y7331D01*
G01X10872Y7323D01*
G01X10848Y7317D01*
G01X10824Y7314D01*
G01X10800Y7313D01*
G01X10392Y7313D01*
G01X10375Y7312D01*
G01X10360Y7308D01*
G01X10345Y7302D01*
G01X10332Y7294D01*
G01X10320Y7283D01*
G01X10074Y7037D01*
G01X10063Y7025D01*
G01X10055Y7013D01*
G01X10049Y6998D01*
G01X10045Y6984D01*
G01X10044Y6968D01*
G01X10042Y6935D01*
G01X10037Y6903D01*
G01X10035Y6885D01*
G01X10036Y6870D01*
G01X10039Y6856D01*
G01X10044Y6842D01*
G01X10051Y6830D01*
G01X10060Y6818D01*
G01X10070Y6808D01*
G01X10082Y6799D01*
G01X10094Y6792D01*
G01X10108Y6787D01*
G01X10122Y6784D01*
G01X10137Y6783D01*
G01X12212Y6783D01*
G01X12228Y6785D01*
G01X12243Y6788D01*
G01X12258Y6794D01*
G01X12272Y6803D01*
G01X12284Y6813D01*
G01X12662Y7194D01*
G01X12672Y7206D01*
G01X12681Y7219D01*
G01X12686Y7234D01*
G01X12690Y7250D01*
G01X12691Y7266D01*
G01X12690Y7280D01*
G01X12687Y7295D01*
G01X12682Y7308D01*
G01X12675Y7321D01*
G01X12666Y7333D01*
G01X12655Y7343D01*
G01X12644Y7352D01*
G01X12623Y7366D01*
G01X12603Y7382D01*
G01X12586Y7401D01*
G01X12576Y7411D01*
G01X12564Y7420D01*
G01X12551Y7427D01*
G01X12538Y7432D01*
G01X12524Y7435D01*
G01X12509Y7436D01*
G01X12495Y7435D01*
G01X12481Y7432D01*
G01X12467Y7427D01*
G01X12455Y7420D01*
G01X12443Y7411D01*
G01X12416Y7384D01*
G01X12397Y7368D01*
G01X12377Y7354D01*
G01X12357Y7341D01*
G01X12334Y7331D01*
G01X12311Y7323D01*
G01X12288Y7317D01*
G01X12264Y7314D01*
G01X12239Y7313D01*
G01X11339Y7313D01*
G01X11315Y7314D01*
G01X11291Y7317D01*
G01X11267Y7323D01*
G01X11244Y7331D01*
G01X11222Y7341D01*
G01X11201Y7354D01*
G01X11181Y7367D01*
G01X11163Y7384D01*
G01X11136Y7411D01*
G01X11124Y7420D01*
G01X11111Y7427D01*
G01X11098Y7432D01*
G01X11084Y7435D01*
G37*

%LPD*%
G36*
G01X8204Y7435D02*
G01X8189Y7436D01*
G01X8175Y7435D01*
G01X8161Y7432D01*
G01X8147Y7427D01*
G01X8135Y7420D01*
G01X8123Y7411D01*
G01X8095Y7383D01*
G01X8076Y7367D01*
G01X8056Y7353D01*
G01X8035Y7340D01*
G01X8021Y7332D01*
G01X8008Y7322D01*
G01X7998Y7309D01*
G01X7989Y7296D01*
G01X7983Y7281D01*
G01X7980Y7265D01*
G01X7978Y7249D01*
G01X7980Y7233D01*
G01X7984Y7216D01*
G01X7990Y7201D01*
G01X7999Y7187D01*
G01X8011Y7175D01*
G01X8408Y6810D01*
G01X8420Y6800D01*
G01X8433Y6793D01*
G01X8447Y6788D01*
G01X8462Y6784D01*
G01X8476Y6783D01*
G01X9038Y6783D01*
G01X9053Y6784D01*
G01X9067Y6787D01*
G01X9081Y6792D01*
G01X9093Y6799D01*
G01X9105Y6808D01*
G01X9115Y6818D01*
G01X9124Y6830D01*
G01X9131Y6842D01*
G01X9136Y6856D01*
G01X9139Y6870D01*
G01X9140Y6885D01*
G01X9138Y6903D01*
G01X9133Y6944D01*
G01X9131Y6985D01*
G01X9132Y7016D01*
G01X9135Y7048D01*
G01X9141Y7079D01*
G01X9149Y7110D01*
G01X9158Y7141D01*
G01X9170Y7170D01*
G01X9177Y7190D01*
G01X9179Y7211D01*
G01X9178Y7226D01*
G01X9175Y7240D01*
G01X9170Y7253D01*
G01X9163Y7266D01*
G01X9154Y7278D01*
G01X9144Y7288D01*
G01X9132Y7297D01*
G01X9120Y7304D01*
G01X9106Y7309D01*
G01X9092Y7312D01*
G01X9077Y7313D01*
G01X8459Y7313D01*
G01X8435Y7314D01*
G01X8411Y7317D01*
G01X8387Y7323D01*
G01X8364Y7331D01*
G01X8342Y7341D01*
G01X8321Y7354D01*
G01X8301Y7368D01*
G01X8283Y7384D01*
G01X8256Y7411D01*
G01X8244Y7420D01*
G01X8231Y7427D01*
G01X8218Y7432D01*
G01X8204Y7435D01*
G37*

%LPD*%
G36*
G01X18084Y7435D02*
G01X18070Y7436D01*
G01X18055Y7435D01*
G01X18041Y7432D01*
G01X18027Y7427D01*
G01X18015Y7420D01*
G01X18003Y7411D01*
G01X17976Y7384D01*
G01X17957Y7367D01*
G01X17917Y7341D01*
G01X17894Y7331D01*
G01X17871Y7323D01*
G01X17848Y7317D01*
G01X17824Y7314D01*
G01X17799Y7313D01*
G01X17755Y7313D01*
G01X17740Y7312D01*
G01X17726Y7309D01*
G01X17712Y7303D01*
G01X17699Y7296D01*
G01X17688Y7287D01*
G01X17677Y7276D01*
G01X17669Y7264D01*
G01X17662Y7251D01*
G01X17657Y7237D01*
G01X17655Y7222D01*
G01X17650Y7197D01*
G01X17644Y7172D01*
G01X17636Y7147D01*
G01X17626Y7124D01*
G01X17614Y7101D01*
G01X17600Y7079D01*
G01X17584Y7059D01*
G01X17567Y7040D01*
G01X16815Y6288D01*
G01X16795Y6270D01*
G01X16774Y6254D01*
G01X16751Y6239D01*
G01X16727Y6227D01*
G01X16703Y6217D01*
G01X16677Y6209D01*
G01X16651Y6203D01*
G01X16625Y6199D01*
G01X16598Y6198D01*
G01X14088Y6198D01*
G01X14073Y6197D01*
G01X14058Y6194D01*
G01X14044Y6188D01*
G01X14030Y6181D01*
G01X14019Y6171D01*
G01X13995Y6151D01*
G01X13971Y6132D01*
G01X13945Y6115D01*
G01X13917Y6099D01*
G01X13889Y6086D01*
G01X13860Y6074D01*
G01X13830Y6065D01*
G01X13800Y6058D01*
G01X13769Y6053D01*
G01X13738Y6049D01*
G01X13707Y6048D01*
G01X13676Y6049D01*
G01X13645Y6053D01*
G01X13614Y6058D01*
G01X13584Y6065D01*
G01X13554Y6074D01*
G01X13526Y6086D01*
G01X13498Y6099D01*
G01X13470Y6115D01*
G01X13444Y6132D01*
G01X13419Y6151D01*
G01X13396Y6171D01*
G01X13374Y6193D01*
G01X13353Y6217D01*
G01X13317Y6267D01*
G01X13302Y6295D01*
G01X13289Y6323D01*
G01X13277Y6352D01*
G01X13268Y6382D01*
G01X13260Y6412D01*
G01X13255Y6443D01*
G01X13252Y6474D01*
G01X13251Y6505D01*
G01X13252Y6539D01*
G01X13256Y6573D01*
G01X13262Y6607D01*
G01X13272Y6640D01*
G01X13283Y6672D01*
G01X13288Y6691D01*
G01X13290Y6710D01*
G01X13289Y6724D01*
G01X13286Y6738D01*
G01X13281Y6752D01*
G01X13274Y6765D01*
G01X13265Y6776D01*
G01X13255Y6787D01*
G01X13243Y6795D01*
G01X13230Y6802D01*
G01X13217Y6807D01*
G01X13203Y6810D01*
G01X13188Y6812D01*
G01X13172Y6810D01*
G01X13157Y6806D01*
G01X13142Y6800D01*
G01X13128Y6792D01*
G01X13116Y6782D01*
G01X12599Y6261D01*
G01X12579Y6243D01*
G01X12558Y6226D01*
G01X12535Y6212D01*
G01X12512Y6199D01*
G01X12487Y6189D01*
G01X12461Y6181D01*
G01X12435Y6175D01*
G01X12408Y6171D01*
G01X12381Y6170D01*
G01X8317Y6170D01*
G01X8292Y6171D01*
G01X8267Y6174D01*
G01X8242Y6180D01*
G01X8218Y6187D01*
G01X8195Y6196D01*
G01X8172Y6207D01*
G01X8150Y6220D01*
G01X8130Y6234D01*
G01X8110Y6251D01*
G01X7414Y6891D01*
G01X7402Y6900D01*
G01X7389Y6908D01*
G01X7375Y6913D01*
G01X7360Y6917D01*
G01X7345Y6918D01*
G01X7330Y6917D01*
G01X7316Y6914D01*
G01X7303Y6909D01*
G01X7290Y6901D01*
G01X7279Y6893D01*
G01X7268Y6883D01*
G01X7259Y6871D01*
G01X7253Y6858D01*
G01X7248Y6845D01*
G01X7245Y6831D01*
G01X7244Y6816D01*
G01X7245Y6801D01*
G01X7249Y6766D01*
G01X7250Y6730D01*
G01X7249Y6699D01*
G01X7246Y6668D01*
G01X7241Y6638D01*
G01X7233Y6607D01*
G01X7224Y6578D01*
G01X7212Y6548D01*
G01X7199Y6520D01*
G01X7184Y6493D01*
G01X7166Y6467D01*
G01X7148Y6442D01*
G01X7127Y6419D01*
G01X7105Y6397D01*
G01X7082Y6376D01*
G01X7057Y6357D01*
G01X7031Y6341D01*
G01X7003Y6325D01*
G01X6975Y6312D01*
G01X6946Y6300D01*
G01X6916Y6291D01*
G01X6886Y6284D01*
G01X6855Y6278D01*
G01X6824Y6275D01*
G01X6793Y6274D01*
G01X6763Y6275D01*
G01X6732Y6278D01*
G01X6701Y6284D01*
G01X6671Y6291D01*
G01X6641Y6300D01*
G01X6612Y6312D01*
G01X6584Y6325D01*
G01X6556Y6340D01*
G01X6530Y6357D01*
G01X6505Y6376D01*
G01X6482Y6396D01*
G01X6470Y6406D01*
G01X6457Y6414D01*
G01X6443Y6419D01*
G01X6428Y6423D01*
G01X6413Y6424D01*
G01X5396Y6424D01*
G01X5381Y6423D01*
G01X5366Y6419D01*
G01X5352Y6414D01*
G01X5339Y6406D01*
G01X5327Y6396D01*
G01X5304Y6376D01*
G01X5279Y6357D01*
G01X5253Y6340D01*
G01X5225Y6325D01*
G01X5197Y6312D01*
G01X5168Y6300D01*
G01X5138Y6291D01*
G01X5108Y6284D01*
G01X5077Y6278D01*
G01X5046Y6275D01*
G01X5015Y6274D01*
G01X4985Y6275D01*
G01X4954Y6278D01*
G01X4923Y6284D01*
G01X4893Y6291D01*
G01X4863Y6300D01*
G01X4834Y6312D01*
G01X4806Y6325D01*
G01X4778Y6341D01*
G01X4752Y6357D01*
G01X4727Y6376D01*
G01X4704Y6397D01*
G01X4682Y6419D01*
G01X4661Y6442D01*
G01X4643Y6467D01*
G01X4625Y6493D01*
G01X4610Y6520D01*
G01X4597Y6548D01*
G01X4585Y6578D01*
G01X4576Y6607D01*
G01X4568Y6638D01*
G01X4563Y6668D01*
G01X4560Y6699D01*
G01X4559Y6730D01*
G01X4560Y6763D01*
G01X4563Y6795D01*
G01X4569Y6827D01*
G01X4572Y6849D01*
G01X4570Y6863D01*
G01X4567Y6877D01*
G01X4562Y6891D01*
G01X4555Y6903D01*
G01X4547Y6915D01*
G01X4536Y6925D01*
G01X4525Y6934D01*
G01X4512Y6941D01*
G01X4498Y6946D01*
G01X4485Y6949D01*
G01X4470Y6950D01*
G01X3835Y6950D01*
G01X3821Y6949D01*
G01X3806Y6946D01*
G01X3793Y6941D01*
G01X3780Y6934D01*
G01X3768Y6925D01*
G01X3758Y6915D01*
G01X3742Y6891D01*
G01X3737Y6877D01*
G01X3734Y6863D01*
G01X3733Y6849D01*
G01X3735Y6832D01*
G01X3739Y6816D01*
G01X3745Y6801D01*
G01X3754Y6787D01*
G01X3765Y6774D01*
G01X3778Y6764D01*
G01X3811Y6740D01*
G01X3843Y6714D01*
G01X3874Y6688D01*
G01X3902Y6659D01*
G01X3930Y6628D01*
G01X3956Y6596D01*
G01X3980Y6563D01*
G01X4002Y6528D01*
G01X4022Y6492D01*
G01X4040Y6456D01*
G01X4056Y6418D01*
G01X4071Y6380D01*
G01X4082Y6341D01*
G01X4092Y6300D01*
G01X4100Y6260D01*
G01X4106Y6220D01*
G01X4109Y6179D01*
G01X4110Y6138D01*
G01X4109Y6098D01*
G01X4106Y6058D01*
G01X4101Y6017D01*
G01X4093Y5978D01*
G01X4083Y5939D01*
G01X4072Y5901D01*
G01X4058Y5863D01*
G01X4043Y5825D01*
G01X4025Y5789D01*
G01X4006Y5754D01*
G01X3984Y5720D01*
G01X3961Y5687D01*
G01X3936Y5655D01*
G01X3910Y5625D01*
G01X3881Y5596D01*
G01X3852Y5569D01*
G01X3821Y5543D01*
G01X3789Y5519D01*
G01X3755Y5497D01*
G01X3720Y5476D01*
G01X3707Y5468D01*
G01X3696Y5458D01*
G01X3686Y5445D01*
G01X3678Y5432D01*
G01X3672Y5418D01*
G01X3669Y5403D01*
G01X3668Y5388D01*
G01X3669Y5372D01*
G01X3672Y5357D01*
G01X3678Y5343D01*
G01X3686Y5329D01*
G01X3696Y5317D01*
G01X3707Y5307D01*
G01X3720Y5299D01*
G01X3755Y5278D01*
G01X3788Y5256D01*
G01X3821Y5232D01*
G01X3852Y5206D01*
G01X3881Y5179D01*
G01X3909Y5150D01*
G01X3935Y5120D01*
G01X3960Y5088D01*
G01X3984Y5056D01*
G01X4005Y5022D01*
G01X4024Y4986D01*
G01X4042Y4950D01*
G01X3667Y4950D01*
G01X3667Y5306D01*
G01X3666Y5321D01*
G01X3663Y5335D01*
G01X3658Y5348D01*
G01X3651Y5361D01*
G01X3642Y5373D01*
G01X3632Y5383D01*
G01X3621Y5392D01*
G01X3608Y5399D01*
G01X3594Y5404D01*
G01X3580Y5407D01*
G01X3565Y5408D01*
G01X3540Y5405D01*
G01X3494Y5395D01*
G01X3448Y5388D01*
G01X3401Y5383D01*
G01X3353Y5381D01*
G01X3307Y5383D01*
G01X3259Y5388D01*
G01X3213Y5395D01*
G01X3167Y5405D01*
G01X3141Y5408D01*
G01X3127Y5407D01*
G01X3113Y5404D01*
G01X3099Y5399D01*
G01X3087Y5392D01*
G01X3075Y5383D01*
G01X3065Y5373D01*
G01X3056Y5361D01*
G01X3049Y5348D01*
G01X3044Y5335D01*
G01X3041Y5321D01*
G01X3040Y5306D01*
G01X3040Y4950D01*
G01X2665Y4950D01*
G01X2683Y4986D01*
G01X2702Y5022D01*
G01X2723Y5056D01*
G01X2771Y5120D01*
G01X2798Y5150D01*
G01X2826Y5179D01*
G01X2855Y5206D01*
G01X2886Y5232D01*
G01X2918Y5256D01*
G01X2952Y5278D01*
G01X2987Y5299D01*
G01X3000Y5307D01*
G01X3011Y5317D01*
G01X3021Y5329D01*
G01X3029Y5343D01*
G01X3034Y5357D01*
G01X3038Y5372D01*
G01X3039Y5388D01*
G01X3038Y5403D01*
G01X3034Y5418D01*
G01X3029Y5432D01*
G01X3021Y5445D01*
G01X3011Y5458D01*
G01X3000Y5468D01*
G01X2987Y5476D01*
G01X2952Y5497D01*
G01X2918Y5519D01*
G01X2886Y5543D01*
G01X2855Y5569D01*
G01X2826Y5596D01*
G01X2798Y5625D01*
G01X2771Y5655D01*
G01X2746Y5687D01*
G01X2723Y5720D01*
G01X2702Y5754D01*
G01X2682Y5789D01*
G01X2664Y5825D01*
G01X2649Y5863D01*
G01X2635Y5901D01*
G01X2624Y5939D01*
G01X2614Y5978D01*
G01X2607Y6017D01*
G01X2601Y6058D01*
G01X2598Y6098D01*
G01X2597Y6138D01*
G01X2598Y6179D01*
G01X2601Y6220D01*
G01X2607Y6260D01*
G01X2615Y6300D01*
G01X2624Y6341D01*
G01X2637Y6380D01*
G01X2651Y6418D01*
G01X2667Y6456D01*
G01X2685Y6492D01*
G01X2705Y6528D01*
G01X2727Y6563D01*
G01X2751Y6596D01*
G01X2777Y6628D01*
G01X2804Y6659D01*
G01X2833Y6688D01*
G01X2864Y6714D01*
G01X2896Y6740D01*
G01X2929Y6764D01*
G01X2942Y6774D01*
G01X2953Y6787D01*
G01X2962Y6801D01*
G01X2968Y6816D01*
G01X2972Y6832D01*
G01X2974Y6849D01*
G01X2973Y6863D01*
G01X2965Y6891D01*
G01X2958Y6903D01*
G01X2949Y6915D01*
G01X2939Y6925D01*
G01X2927Y6934D01*
G01X2914Y6941D01*
G01X2901Y6946D01*
G01X2886Y6949D01*
G01X2872Y6950D01*
G01X469Y6950D01*
G01X441Y6951D01*
G01X413Y6955D01*
G01X386Y6961D01*
G01X358Y6965D01*
G01X343Y6964D01*
G01X329Y6961D01*
G01X315Y6956D01*
G01X303Y6949D01*
G01X291Y6941D01*
G01X281Y6930D01*
G01X272Y6919D01*
G01X265Y6906D01*
G01X260Y6892D01*
G01X257Y6878D01*
G01X256Y6864D01*
G01X256Y500D01*
G01X257Y477D01*
G01X260Y455D01*
G01X265Y433D01*
G01X272Y412D01*
G01X281Y391D01*
G01X305Y353D01*
G01X320Y336D01*
G01X335Y320D01*
G01X353Y305D01*
G01X371Y292D01*
G01X391Y282D01*
G01X411Y273D01*
G01X433Y265D01*
G01X455Y260D01*
G01X477Y257D01*
G01X499Y256D01*
G01X7116Y256D01*
G01X7131Y257D01*
G01X7145Y260D01*
G01X7158Y265D01*
G01X7171Y272D01*
G01X7183Y281D01*
G01X7193Y291D01*
G01X7201Y302D01*
G01X7209Y315D01*
G01X7214Y329D01*
G01X7217Y343D01*
G01X7218Y358D01*
G01X7217Y373D01*
G01X7213Y388D01*
G01X7207Y403D01*
G01X7199Y416D01*
G01X7189Y428D01*
G01X7178Y439D01*
G01X7140Y469D01*
G01X7104Y500D01*
G01X7069Y534D01*
G01X7036Y568D01*
G01X7005Y605D01*
G01X6975Y642D01*
G01X6947Y681D01*
G01X6921Y722D01*
G01X6897Y763D01*
G01X6874Y806D01*
G01X6854Y849D01*
G01X6836Y894D01*
G01X6819Y939D01*
G01X6805Y985D01*
G01X6793Y1031D01*
G01X6783Y1078D01*
G01X6776Y1126D01*
G01X6770Y1174D01*
G01X6767Y1221D01*
G01X6766Y1270D01*
G01X6767Y1316D01*
G01X6770Y1363D01*
G01X6775Y1409D01*
G01X6782Y1456D01*
G01X6792Y1502D01*
G01X6803Y1547D01*
G01X6817Y1592D01*
G01X6832Y1637D01*
G01X6849Y1680D01*
G01X6869Y1722D01*
G01X6890Y1764D01*
G01X6913Y1805D01*
G01X6938Y1845D01*
G01X6965Y1883D01*
G01X6993Y1920D01*
G01X7023Y1957D01*
G01X7055Y1991D01*
G01X7088Y2024D01*
G01X7123Y2056D01*
G01X7159Y2086D01*
G01X7196Y2114D01*
G01X7234Y2141D01*
G01X7274Y2166D01*
G01X7315Y2189D01*
G01X7356Y2210D01*
G01X7399Y2229D01*
G01X7443Y2247D01*
G01X7487Y2262D01*
G01X7532Y2276D01*
G01X7577Y2287D01*
G01X7623Y2297D01*
G01X7669Y2304D01*
G01X7716Y2309D01*
G01X7763Y2312D01*
G01X7809Y2314D01*
G01X7856Y2312D01*
G01X7903Y2309D01*
G01X7950Y2304D01*
G01X7996Y2297D01*
G01X8042Y2287D01*
G01X8087Y2276D01*
G01X8132Y2262D01*
G01X8176Y2247D01*
G01X8220Y2229D01*
G01X8263Y2210D01*
G01X8304Y2189D01*
G01X8345Y2166D01*
G01X8385Y2141D01*
G01X8423Y2114D01*
G01X8460Y2086D01*
G01X8496Y2056D01*
G01X8531Y2024D01*
G01X8564Y1991D01*
G01X8596Y1957D01*
G01X8626Y1920D01*
G01X8654Y1883D01*
G01X8681Y1845D01*
G01X8706Y1805D01*
G01X8729Y1764D01*
G01X8750Y1722D01*
G01X8770Y1680D01*
G01X8787Y1637D01*
G01X8802Y1592D01*
G01X8816Y1547D01*
G01X8827Y1502D01*
G01X8837Y1456D01*
G01X8844Y1409D01*
G01X8849Y1363D01*
G01X8852Y1316D01*
G01X8853Y1270D01*
G01X8852Y1221D01*
G01X8849Y1174D01*
G01X8843Y1126D01*
G01X8836Y1078D01*
G01X8826Y1031D01*
G01X8814Y985D01*
G01X8800Y939D01*
G01X8783Y894D01*
G01X8765Y849D01*
G01X8745Y806D01*
G01X8722Y763D01*
G01X8698Y722D01*
G01X8672Y681D01*
G01X8644Y642D01*
G01X8614Y605D01*
G01X8583Y568D01*
G01X8550Y534D01*
G01X8515Y500D01*
G01X8479Y469D01*
G01X8441Y439D01*
G01X8430Y428D01*
G01X8420Y416D01*
G01X8412Y403D01*
G01X8406Y388D01*
G01X8402Y373D01*
G01X8401Y358D01*
G01X8402Y343D01*
G01X8405Y329D01*
G01X8410Y315D01*
G01X8418Y302D01*
G01X8426Y291D01*
G01X8436Y281D01*
G01X8448Y272D01*
G01X8461Y265D01*
G01X8474Y260D01*
G01X8488Y257D01*
G01X8503Y256D01*
G01X9656Y256D01*
G01X9671Y257D01*
G01X9685Y260D01*
G01X9698Y265D01*
G01X9711Y272D01*
G01X9723Y281D01*
G01X9733Y291D01*
G01X9741Y302D01*
G01X9749Y315D01*
G01X9754Y329D01*
G01X9757Y343D01*
G01X9758Y358D01*
G01X9757Y373D01*
G01X9753Y388D01*
G01X9747Y403D01*
G01X9739Y416D01*
G01X9729Y428D01*
G01X9718Y439D01*
G01X9680Y469D01*
G01X9644Y500D01*
G01X9609Y534D01*
G01X9576Y568D01*
G01X9545Y605D01*
G01X9515Y642D01*
G01X9487Y681D01*
G01X9461Y722D01*
G01X9437Y763D01*
G01X9414Y806D01*
G01X9394Y849D01*
G01X9376Y894D01*
G01X9359Y939D01*
G01X9345Y985D01*
G01X9333Y1031D01*
G01X9323Y1078D01*
G01X9316Y1126D01*
G01X9310Y1174D01*
G01X9307Y1221D01*
G01X9306Y1270D01*
G01X9307Y1318D01*
G01X9310Y1367D01*
G01X9316Y1416D01*
G01X9324Y1464D01*
G01X9334Y1512D01*
G01X9346Y1559D01*
G01X9361Y1606D01*
G01X9378Y1651D01*
G01X9397Y1696D01*
G01X9404Y1717D01*
G01X9406Y1738D01*
G01X9405Y1754D01*
G01X9401Y1769D01*
G01X9394Y1784D01*
G01X9386Y1798D01*
G01X9376Y1810D01*
G01X8601Y2584D01*
G01X8589Y2595D01*
G01X8576Y2603D01*
G01X8561Y2609D01*
G01X8546Y2613D01*
G01X8529Y2614D01*
G01X7174Y2614D01*
G01X7159Y2613D01*
G01X7144Y2609D01*
G01X7130Y2604D01*
G01X7117Y2596D01*
G01X7105Y2586D01*
G01X7082Y2566D01*
G01X7057Y2547D01*
G01X7031Y2530D01*
G01X7003Y2515D01*
G01X6975Y2502D01*
G01X6946Y2490D01*
G01X6916Y2481D01*
G01X6886Y2474D01*
G01X6855Y2468D01*
G01X6824Y2465D01*
G01X6793Y2464D01*
G01X6763Y2465D01*
G01X6732Y2468D01*
G01X6701Y2474D01*
G01X6671Y2481D01*
G01X6641Y2490D01*
G01X6612Y2502D01*
G01X6584Y2515D01*
G01X6556Y2531D01*
G01X6530Y2547D01*
G01X6505Y2566D01*
G01X6482Y2587D01*
G01X6460Y2609D01*
G01X6439Y2632D01*
G01X6421Y2657D01*
G01X6403Y2683D01*
G01X6388Y2710D01*
G01X6375Y2738D01*
G01X6363Y2768D01*
G01X6354Y2797D01*
G01X6346Y2828D01*
G01X6341Y2858D01*
G01X6338Y2889D01*
G01X6337Y2920D01*
G01X6338Y2952D01*
G01X6341Y2983D01*
G01X6346Y3013D01*
G01X6354Y3044D01*
G01X6363Y3073D01*
G01X6375Y3103D01*
G01X6388Y3131D01*
G01X6403Y3157D01*
G01X6421Y3184D01*
G01X6439Y3209D01*
G01X6460Y3232D01*
G01X6482Y3254D01*
G01X6505Y3275D01*
G01X6530Y3294D01*
G01X6556Y3310D01*
G01X6584Y3326D01*
G01X6612Y3339D01*
G01X6641Y3350D01*
G01X6671Y3360D01*
G01X6701Y3367D01*
G01X6732Y3373D01*
G01X6763Y3376D01*
G01X6793Y3377D01*
G01X6824Y3376D01*
G01X6855Y3373D01*
G01X6886Y3367D01*
G01X6916Y3360D01*
G01X6946Y3350D01*
G01X6975Y3339D01*
G01X7003Y3326D01*
G01X7031Y3311D01*
G01X7057Y3294D01*
G01X7082Y3275D01*
G01X7105Y3254D01*
G01X7117Y3245D01*
G01X7130Y3237D01*
G01X7144Y3232D01*
G01X7159Y3228D01*
G01X7174Y3227D01*
G01X8698Y3227D01*
G01X8725Y3226D01*
G01X8752Y3222D01*
G01X8778Y3216D01*
G01X8803Y3209D01*
G01X8828Y3198D01*
G01X8852Y3186D01*
G01X8874Y3172D01*
G01X8896Y3155D01*
G01X8915Y3137D01*
G01X9809Y2243D01*
G01X9822Y2233D01*
G01X9835Y2224D01*
G01X9850Y2218D01*
G01X9865Y2215D01*
G01X9881Y2214D01*
G01X9902Y2216D01*
G01X9923Y2222D01*
G01X9968Y2241D01*
G01X10014Y2258D01*
G01X10060Y2273D01*
G01X10108Y2285D01*
G01X10155Y2295D01*
G01X10203Y2303D01*
G01X10252Y2309D01*
G01X10301Y2312D01*
G01X10349Y2314D01*
G01X10396Y2312D01*
G01X10443Y2309D01*
G01X10490Y2304D01*
G01X10536Y2297D01*
G01X10582Y2287D01*
G01X10627Y2276D01*
G01X10672Y2262D01*
G01X10716Y2247D01*
G01X10760Y2229D01*
G01X10803Y2210D01*
G01X10844Y2189D01*
G01X10885Y2166D01*
G01X10925Y2141D01*
G01X10963Y2114D01*
G01X11000Y2086D01*
G01X11036Y2056D01*
G01X11071Y2024D01*
G01X11104Y1991D01*
G01X11136Y1957D01*
G01X11166Y1920D01*
G01X11194Y1883D01*
G01X11221Y1845D01*
G01X11246Y1805D01*
G01X11269Y1764D01*
G01X11290Y1722D01*
G01X11310Y1680D01*
G01X11327Y1637D01*
G01X11342Y1592D01*
G01X11356Y1547D01*
G01X11367Y1502D01*
G01X11377Y1456D01*
G01X11384Y1409D01*
G01X11389Y1363D01*
G01X11392Y1316D01*
G01X11393Y1270D01*
G01X11392Y1221D01*
G01X11389Y1174D01*
G01X11383Y1126D01*
G01X11376Y1078D01*
G01X11366Y1031D01*
G01X11354Y985D01*
G01X11340Y939D01*
G01X11323Y894D01*
G01X11305Y849D01*
G01X11285Y806D01*
G01X11262Y763D01*
G01X11238Y722D01*
G01X11212Y681D01*
G01X11184Y642D01*
G01X11154Y605D01*
G01X11123Y568D01*
G01X11090Y534D01*
G01X11055Y500D01*
G01X11019Y469D01*
G01X10981Y439D01*
G01X10970Y428D01*
G01X10960Y416D01*
G01X10952Y403D01*
G01X10946Y388D01*
G01X10942Y373D01*
G01X10941Y358D01*
G01X10942Y343D01*
G01X10945Y329D01*
G01X10950Y315D01*
G01X10958Y302D01*
G01X10966Y291D01*
G01X10976Y281D01*
G01X10988Y272D01*
G01X11001Y265D01*
G01X11014Y260D01*
G01X11028Y257D01*
G01X11043Y256D01*
G01X12196Y256D01*
G01X12211Y257D01*
G01X12225Y260D01*
G01X12238Y265D01*
G01X12251Y272D01*
G01X12263Y281D01*
G01X12273Y291D01*
G01X12281Y302D01*
G01X12289Y315D01*
G01X12294Y329D01*
G01X12297Y343D01*
G01X12298Y358D01*
G01X12297Y373D01*
G01X12293Y388D01*
G01X12287Y403D01*
G01X12279Y416D01*
G01X12269Y428D01*
G01X12258Y439D01*
G01X12220Y469D01*
G01X12184Y500D01*
G01X12149Y534D01*
G01X12116Y568D01*
G01X12085Y605D01*
G01X12055Y642D01*
G01X12027Y681D01*
G01X12001Y722D01*
G01X11977Y763D01*
G01X11954Y806D01*
G01X11934Y849D01*
G01X11916Y894D01*
G01X11899Y939D01*
G01X11885Y985D01*
G01X11873Y1031D01*
G01X11863Y1078D01*
G01X11856Y1126D01*
G01X11850Y1174D01*
G01X11847Y1221D01*
G01X11846Y1270D01*
G01X11847Y1316D01*
G01X11850Y1363D01*
G01X11855Y1409D01*
G01X11862Y1456D01*
G01X11872Y1502D01*
G01X11883Y1547D01*
G01X11897Y1592D01*
G01X11912Y1637D01*
G01X11929Y1680D01*
G01X11949Y1722D01*
G01X11970Y1764D01*
G01X11993Y1805D01*
G01X12018Y1845D01*
G01X12045Y1883D01*
G01X12073Y1920D01*
G01X12103Y1957D01*
G01X12135Y1991D01*
G01X12168Y2024D01*
G01X12203Y2056D01*
G01X12239Y2086D01*
G01X12276Y2114D01*
G01X12314Y2141D01*
G01X12354Y2166D01*
G01X12395Y2189D01*
G01X12436Y2210D01*
G01X12479Y2229D01*
G01X12523Y2247D01*
G01X12567Y2262D01*
G01X12612Y2276D01*
G01X12657Y2287D01*
G01X12703Y2297D01*
G01X12749Y2304D01*
G01X12796Y2309D01*
G01X12843Y2312D01*
G01X12889Y2314D01*
G01X12936Y2312D01*
G01X12983Y2309D01*
G01X13030Y2304D01*
G01X13076Y2297D01*
G01X13122Y2287D01*
G01X13167Y2276D01*
G01X13212Y2262D01*
G01X13256Y2247D01*
G01X13300Y2229D01*
G01X13343Y2210D01*
G01X13384Y2189D01*
G01X13425Y2166D01*
G01X13465Y2141D01*
G01X13503Y2114D01*
G01X13540Y2086D01*
G01X13576Y2056D01*
G01X13611Y2024D01*
G01X13644Y1991D01*
G01X13676Y1957D01*
G01X13706Y1920D01*
G01X13734Y1883D01*
G01X13761Y1845D01*
G01X13786Y1805D01*
G01X13809Y1764D01*
G01X13830Y1722D01*
G01X13850Y1680D01*
G01X13867Y1637D01*
G01X13882Y1592D01*
G01X13896Y1547D01*
G01X13907Y1502D01*
G01X13917Y1456D01*
G01X13924Y1409D01*
G01X13929Y1363D01*
G01X13932Y1316D01*
G01X13933Y1270D01*
G01X13932Y1221D01*
G01X13929Y1174D01*
G01X13923Y1126D01*
G01X13916Y1078D01*
G01X13906Y1031D01*
G01X13894Y985D01*
G01X13880Y939D01*
G01X13863Y894D01*
G01X13845Y849D01*
G01X13825Y806D01*
G01X13802Y763D01*
G01X13778Y722D01*
G01X13752Y681D01*
G01X13724Y642D01*
G01X13694Y605D01*
G01X13663Y568D01*
G01X13630Y534D01*
G01X13595Y500D01*
G01X13559Y469D01*
G01X13521Y439D01*
G01X13510Y428D01*
G01X13500Y416D01*
G01X13492Y403D01*
G01X13486Y388D01*
G01X13482Y373D01*
G01X13481Y358D01*
G01X13482Y343D01*
G01X13485Y329D01*
G01X13490Y315D01*
G01X13498Y302D01*
G01X13506Y291D01*
G01X13516Y281D01*
G01X13528Y272D01*
G01X13541Y265D01*
G01X13554Y260D01*
G01X13568Y257D01*
G01X13583Y256D01*
G01X20200Y256D01*
G01X20222Y257D01*
G01X20244Y260D01*
G01X20266Y265D01*
G01X20287Y273D01*
G01X20308Y282D01*
G01X20328Y292D01*
G01X20346Y305D01*
G01X20364Y320D01*
G01X20379Y336D01*
G01X20394Y353D01*
G01X20418Y391D01*
G01X20427Y412D01*
G01X20434Y433D01*
G01X20439Y455D01*
G01X20442Y477D01*
G01X20443Y500D01*
G01X20443Y7211D01*
G01X20442Y7226D01*
G01X20439Y7240D01*
G01X20434Y7253D01*
G01X20427Y7266D01*
G01X20418Y7278D01*
G01X20408Y7288D01*
G01X20396Y7297D01*
G01X20384Y7304D01*
G01X20370Y7309D01*
G01X20356Y7312D01*
G01X20341Y7313D01*
G01X19779Y7313D01*
G01X19755Y7314D01*
G01X19731Y7317D01*
G01X19707Y7323D01*
G01X19685Y7331D01*
G01X19662Y7341D01*
G01X19641Y7354D01*
G01X19621Y7368D01*
G01X19603Y7384D01*
G01X19576Y7411D01*
G01X19564Y7420D01*
G01X19551Y7427D01*
G01X19538Y7432D01*
G01X19523Y7435D01*
G01X19509Y7436D01*
G01X19495Y7435D01*
G01X19481Y7432D01*
G01X19467Y7427D01*
G01X19454Y7420D01*
G01X19443Y7411D01*
G01X19416Y7384D01*
G01X19397Y7368D01*
G01X19378Y7354D01*
G01X19356Y7341D01*
G01X19334Y7331D01*
G01X19311Y7323D01*
G01X19288Y7317D01*
G01X19263Y7314D01*
G01X19239Y7313D01*
G01X18339Y7313D01*
G01X18315Y7314D01*
G01X18291Y7317D01*
G01X18267Y7323D01*
G01X18244Y7331D01*
G01X18222Y7341D01*
G01X18201Y7354D01*
G01X18181Y7367D01*
G01X18163Y7384D01*
G01X18136Y7411D01*
G01X18124Y7420D01*
G01X18111Y7427D01*
G01X18098Y7432D01*
G01X18084Y7435D01*
G37*

%LPC*%
G36*
G01X3040Y4323D02*
G01X2665Y4323D01*
G01X2683Y4286D01*
G01X2704Y4250D01*
G01X2726Y4215D01*
G01X2750Y4181D01*
G01X2776Y4148D01*
G01X2804Y4117D01*
G01X2834Y4088D01*
G01X2865Y4060D01*
G01X2897Y4034D01*
G01X2931Y4009D01*
G01X2966Y3987D01*
G01X3003Y3967D01*
G01X3040Y3948D01*
G01X3040Y4323D01*
G37*
G36*
G01X4042Y4323D02*
G01X3667Y4323D01*
G01X3667Y3948D01*
G01X3704Y3967D01*
G01X3741Y3987D01*
G01X3776Y4009D01*
G01X3810Y4034D01*
G01X3843Y4060D01*
G01X3874Y4088D01*
G01X3903Y4117D01*
G01X3931Y4148D01*
G01X3957Y4181D01*
G01X3981Y4215D01*
G01X4004Y4250D01*
G01X4024Y4286D01*
G01X4042Y4323D01*
G37*

%LPD*%
G54D11*
G01X11000Y17030D02*
G01X10771Y17256D01*
G01X10349Y17256D01*
G01X10349Y18969D02*
G01X10349Y17256D01*
G01X11789Y18969D02*
G01X11789Y17257D01*
G01X11790Y17256D01*
G01X18790Y18968D02*
G01X18790Y17256D01*
G01X4789Y18968D02*
G01X4789Y17256D01*
G01X7809Y16255D02*
G01X8066Y15999D01*
G01X13118Y15999D01*
G01X13298Y15819D01*
G01X18790Y15819D01*
G01X20230Y17256D01*
G01X20230Y18968D02*
G01X20230Y17256D01*
G01X20230Y19736D02*
G01X20230Y18968D01*
G01X14469Y18968D02*
G01X14413Y18913D01*
G01X14413Y16890D01*
G01X469Y18112D02*
G01X469Y18968D01*
G01X11790Y10683D02*
G01X11790Y11440D01*
G01X11790Y10683D02*
G01X11223Y10683D01*
G01X10984Y10921D01*
G01X4789Y8968D02*
G01X4789Y10683D01*
G01X11789Y8969D02*
G01X11789Y10683D01*
G01X11790Y10683D01*
G01X18790Y8968D02*
G01X18790Y10683D01*
G01X469Y8112D02*
G01X469Y8968D01*
G01X14469Y8968D02*
G01X14469Y7257D01*
G01X469Y8112D02*
G01X469Y7257D01*
G01X7469Y7257D02*
G01X469Y7257D01*
G01X7469Y7348D02*
G01X7469Y7257D01*
G01X7469Y8204D02*
G01X7469Y7348D01*
G01X7469Y8204D02*
G01X7469Y8204D01*
G01X7469Y8969D01*
G01X6230Y8968D02*
G01X6230Y10683D01*
G01X6354Y11508D02*
G01X6354Y10807D01*
G01X6230Y10683D01*
G01X13229Y8969D02*
G01X13229Y10682D01*
G01X13230Y10683D01*
G01X13230Y10683D02*
G01X14937Y10683D01*
G01X15302Y11048D01*
G01X20230Y8968D02*
G01X20230Y10683D01*
G01X8909Y8969D02*
G01X8909Y10683D01*
G01X8909Y10683D01*
G01X9407Y11239D02*
G01X9407Y11181D01*
G01X8909Y10683D01*
G01X17350Y18968D02*
G01X17350Y17256D01*
G01X17545Y10899D02*
G01X17350Y10703D01*
G01X17350Y8968D01*
G01X17350Y17256D02*
G01X17337Y17244D01*
G01X17337Y16835D01*
G01X17350Y8112D02*
G01X17350Y8968D01*
G01X17350Y8112D02*
G01X17350Y7257D01*
G01X17350Y7257D02*
G01X16598Y6505D01*
G01X13707Y6505D01*
G01X15234Y14544D02*
G01X15569Y14544D01*
G01X16613Y13500D01*
G01X14469Y7257D02*
G01X13156Y7257D01*
G01X12381Y6477D01*
G01X8317Y6476D01*
G01X7469Y7257D01*
G01X5015Y6730D02*
G01X6793Y6730D01*
G01X10349Y8969D02*
G01X10349Y7747D01*
G01X9587Y6985D01*
G01X3353Y4637D02*
G01X1768Y6222D01*
G01X1078Y6222D01*
G01X6793Y2920D02*
G01X8699Y2920D01*
G01X10349Y1270D01*
G01X15910Y18969D02*
G01X15910Y17625D01*
G01X15175Y16890D01*
G01X10603Y11937D02*
G01X10730Y11811D01*
G01X14286Y11811D01*
G01X14540Y12065D01*
G01X16191Y12065D01*
G01X16824Y12672D01*
G01X16824Y12989D01*
G01X11790Y11440D02*
G01X10349Y11429D01*
G01X9968Y11810D01*
G01X8952Y11810D01*
G01X8571Y11429D01*
G01X7139Y11448D01*
G01X6565Y12022D01*
G01X6128Y12022D01*
G01X4789Y10683D01*
G01X13103Y13457D02*
G01X15307Y13457D01*
G01X15683Y13080D01*
G01X10603Y13334D02*
G01X10858Y13334D01*
G01X10984Y13208D01*
G01X12127Y13208D01*
G01X12889Y13208D01*
G01X13143Y13462D01*
G01X7977Y11961D02*
G01X8444Y12445D01*
G01X11492Y12445D01*
G01X11746Y12192D01*
G01X14159Y12192D01*
G01X14421Y12446D01*
G01X15937Y12446D01*
G01X16318Y12827D01*
G01X16311Y13200D01*
G01X16613Y13500D01*
G01X17411Y13500D01*
G01X20230Y10683D01*
G01X8190Y14478D02*
G01X8444Y14604D01*
G01X12127Y14605D01*
G01X12127Y14478D01*
G01X4789Y17256D02*
G01X4789Y17244D01*
G01X4888Y17144D01*
G01X7047Y16255D02*
G01X7556Y16764D01*
G01X8190Y16764D01*
G01X8444Y16383D01*
G01X11619Y16383D01*
G01X11746Y16383D01*
G01X11790Y17256D02*
G01X11790Y16383D01*
G01X18790Y17256D02*
G01X17715Y16255D01*
G01X13397Y16255D01*
G01X13270Y16382D01*
G01X11790Y16383D01*
G01X11746Y16382D01*
G01X8909Y18968D02*
G01X8909Y17737D01*
G01X8317Y17145D01*
G01X7423Y17145D01*
G01X7042Y16764D01*
G01X6285Y16764D01*
G01X5777Y16256D01*
G01X1910Y18969D02*
G01X1910Y21081D01*
G01X443Y19177D02*
G01X443Y21081D01*
G01X951Y21589D01*
G01X3110Y21589D01*
G01X3999Y20701D01*
G01X5142Y20701D01*
G01X5650Y21209D01*
G01X6235Y18963D02*
G01X6235Y21409D01*
G01X5904Y21716D01*
G01X5269Y21716D01*
G01X4761Y21208D01*
G01X3364Y16129D02*
G01X2856Y16129D01*
G01X2475Y15748D01*
G01X1332Y14604D01*
G01X824Y14605D01*
G01X570Y14351D01*
G01X7469Y18968D02*
G01X7469Y17693D01*
G01X6920Y17145D01*
G01X5904Y17145D01*
G01X5523Y16764D01*
G01X5264Y16510D01*
G01X4507Y16510D01*
G01X3872Y16510D01*
G01X3618Y16764D01*
G01X3237Y16764D01*
G01X2983Y16510D01*
G01X687Y16510D01*
G01X443Y16763D01*
G01X469Y18968D01*
G01X3349Y18968D02*
G01X3364Y17525D01*
G01X2729Y17017D01*
G01X2729Y17018D01*
G01X12508Y13843D02*
G01X6158Y13843D01*
G01X5777Y14224D01*
G01X5777Y14478D01*
G01X11790Y11440D02*
G01X14413Y11430D01*
G01X14667Y11684D01*
G01X17207Y11683D01*
G01X17807Y11663D01*
G01X18790Y10683D01*
G01X15910Y8968D02*
G01X16064Y9123D01*
G01X16064Y11048D01*
G01X19493Y20701D02*
G01X18991Y20701D01*
G01X13905Y20701D01*
G01X13230Y20119D01*
G01X13230Y18968D01*
G01X20230Y19736D02*
G01X19493Y20701D01*
G01X5523Y13208D02*
G01X5777Y13461D01*
G01X6031Y13462D01*
G01X6412Y13462D01*
G01X9714Y13462D01*
G01X10349Y12827D01*
G01X11746Y12827D01*
G01X12000Y12573D01*
G01X12635Y12573D01*
G01X12889Y12700D01*
G01X5523Y13208D02*
G01X5523Y11938D01*
G01X4380Y10795D01*
G01X3745Y10794D01*
G01X3364Y10413D01*
G01X3349Y8968D01*
G01X1909Y8968D02*
G01X1967Y10413D01*
G01X1967Y10795D01*
G01X2348Y11175D01*
G01X4253Y11175D01*
G01X5015Y11938D01*
G01X5015Y14478D01*
G01X5523Y14986D01*
G01X12381Y14986D01*
G01X13103Y14366D01*
G01X13103Y13457D01*
G01X469Y8968D02*
G01X443Y11048D01*
G01X951Y11556D01*
G01X3999Y11556D01*
G01X4634Y12192D01*
G01X4634Y14604D01*
G01X5396Y15366D01*
G01X12635Y15366D01*
G01X12928Y15463D01*
G54D13*
G01X14469Y8970D03*
G01X15909Y8970D03*
G01X17350Y8970D03*
G01X18789Y8970D03*
G01X20229Y8970D03*
G01X20229Y18969D03*
G01X18789Y18969D03*
G01X17350Y18969D03*
G01X15910Y18969D03*
G01X14470Y18969D03*
G01X469Y8970D03*
G01X1909Y8970D03*
G01X3349Y8970D03*
G01X4789Y8970D03*
G01X6229Y8970D03*
G01X6229Y18969D03*
G01X4789Y18969D03*
G01X3349Y18969D03*
G01X1910Y18969D03*
G01X470Y18969D03*
G01X7469Y8969D03*
G01X8909Y8969D03*
G01X10349Y8969D03*
G01X11789Y8969D03*
G01X13229Y8969D03*
G01X13229Y18969D03*
G01X11789Y18969D03*
G01X10349Y18969D03*
G01X8910Y18969D03*
G01X7470Y18969D03*
G54D14*
G01X7809Y21589D03*
G01X10349Y21589D03*
G54D15*
G01X12889Y21589D03*
G01X7809Y1269D03*
G01X10349Y1269D03*
G01X12889Y1269D03*
G54D16*
G01X3353Y4637D03*
G01X3353Y6138D03*
G54D12*
G01X13707Y6505D03*
G01X17337Y16835D03*
G01X17545Y10899D03*
G01X1078Y6222D03*
G01X10603Y11937D03*
G01X16824Y12989D03*
G01X16064Y11175D03*
G01X15683Y13080D03*
G01X10603Y13334D03*
G01X9407Y11239D03*
G01X15302Y11175D03*
G01X7977Y11961D03*
G01X6354Y11508D03*
G01X12928Y15463D03*
G01X10984Y10921D03*
G01X5650Y21208D03*
G01X8190Y14477D03*
G01X12127Y14477D03*
G01X14413Y16890D03*
G01X4761Y21208D03*
G01X7809Y16255D03*
G01X4888Y17144D03*
G01X7047Y16255D03*
G01X11000Y17030D03*
G01X12889Y12699D03*
G01X2729Y17017D03*
G01X5523Y13207D03*
G01X15234Y14544D03*
G01X3364Y16128D03*
G01X570Y14351D03*
G01X6793Y2920D03*
G01X5015Y6730D03*
G01X6793Y6730D03*
G01X9587Y6984D03*
G01X15175Y16890D03*
G01X12508Y13842D03*
G01X5777Y14477D03*
G01X5777Y16256D03*
G01X1910Y21081D03*
M00*
M02*
