;Layer: Drill PTH
;EasyEDA v6.3.53, 2020-07-19T22:27:28+02:00
;3120cfb910ab4567be944433c0d318a6,a54f91b67bf74260adec70c9c35cfc8e,10
;Gerber Generator version 0.2
M48
METRIC,LZ,000.000
;Holesize 1 = 0.301 METRIC
T01C0.301
;Holesize 2 = 0.701 METRIC
T02C0.701
;Holesize 3 = 0.889 METRIC
T03C0.889
%
G05
G90
T01
X+013707Y+006505
X+017337Y+016835
X+017545Y+010899
X+001078Y+006222
X+010603Y+011937
X+016824Y+012989
X+016064Y+011175
X+015683Y+013080
X+010603Y+013334
X+009407Y+011239
X+015302Y+011175
X+007977Y+011961
X+006354Y+011508
X+012928Y+015463
X+010984Y+010921
X+005650Y+021208
X+008190Y+014477
X+012127Y+014477
X+014413Y+016890
X+004761Y+021208
X+007809Y+016255
X+004888Y+017144
X+007047Y+016255
X+011000Y+017030
X+012889Y+012699
X+002729Y+017017
X+005523Y+013207
X+015234Y+014544
X+003364Y+016128
X+000570Y+014351
X+006793Y+002920
X+005015Y+006730
X+006793Y+006730
X+009587Y+006984
X+015175Y+016890
X+012508Y+013842
X+005777Y+014477
X+005777Y+016256
X+001910Y+021081
T02
X+003353Y+004637
X+003353Y+006138
T03
X+007809Y+021590
X+010349Y+021589
X+012889Y+021589
X+007809Y+001270
X+010349Y+001270
X+012889Y+001270
M30
