G04 Layer: TopSolderMaskLayer*
G04 EasyEDA v6.3.53, 2020-07-19T22:27:28+02:00*
G04 3120cfb910ab4567be944433c0d318a6,a54f91b67bf74260adec70c9c35cfc8e,10*
G04 Gerber Generator version 0.2*
G04 Scale: 100 percent, Rotated: No, Reflected: No *
G04 Dimensions in millimeters *
G04 leading zeros omitted , absolute positions ,3 integer and 3 decimal *
%FSLAX33Y33*%
%MOMM*%
G90*
G71D02*

%ADD26C,1.778000*%
%ADD28C,1.203198*%

%LPD*%
G36*
G01X6920Y20701D02*
G01X6920Y22479D01*
G01X8698Y22479D01*
G01X8698Y20701D01*
G01X6920Y20701D01*
G37*
G36*
G01X9460Y20701D02*
G01X9460Y22479D01*
G01X11238Y22479D01*
G01X11238Y20701D01*
G01X9460Y20701D01*
G37*
G54D26*
G01X12889Y21589D03*
G01X7809Y1269D03*
G01X10349Y1269D03*
G01X12889Y1269D03*
G36*
G01X13918Y7467D02*
G01X13918Y10472D01*
G01X15021Y10472D01*
G01X15021Y7467D01*
G01X13918Y7467D01*
G37*
G36*
G01X15358Y7467D02*
G01X15358Y10472D01*
G01X16461Y10472D01*
G01X16461Y7467D01*
G01X15358Y7467D01*
G37*
G36*
G01X16799Y7467D02*
G01X16799Y10472D01*
G01X17901Y10472D01*
G01X17901Y7467D01*
G01X16799Y7467D01*
G37*
G36*
G01X18239Y7467D02*
G01X18239Y10472D01*
G01X19341Y10472D01*
G01X19341Y7467D01*
G01X18239Y7467D01*
G37*
G36*
G01X19679Y7467D02*
G01X19679Y10472D01*
G01X20781Y10472D01*
G01X20781Y7467D01*
G01X19679Y7467D01*
G37*
G36*
G01X19679Y17467D02*
G01X19679Y20472D01*
G01X20781Y20472D01*
G01X20781Y17467D01*
G01X19679Y17467D01*
G37*
G36*
G01X18239Y17467D02*
G01X18239Y20472D01*
G01X19341Y20472D01*
G01X19341Y17467D01*
G01X18239Y17467D01*
G37*
G36*
G01X16799Y17467D02*
G01X16799Y20472D01*
G01X17901Y20472D01*
G01X17901Y17467D01*
G01X16799Y17467D01*
G37*
G36*
G01X15358Y17467D02*
G01X15358Y20472D01*
G01X16461Y20472D01*
G01X16461Y17467D01*
G01X15358Y17467D01*
G37*
G36*
G01X13918Y17467D02*
G01X13918Y20472D01*
G01X15021Y20472D01*
G01X15021Y17467D01*
G01X13918Y17467D01*
G37*
G36*
G01X-81Y7467D02*
G01X-81Y10472D01*
G01X1020Y10472D01*
G01X1020Y7467D01*
G01X-81Y7467D01*
G37*
G36*
G01X1358Y7467D02*
G01X1358Y10472D01*
G01X2460Y10472D01*
G01X2460Y7467D01*
G01X1358Y7467D01*
G37*
G36*
G01X2798Y7467D02*
G01X2798Y10472D01*
G01X3900Y10472D01*
G01X3900Y7467D01*
G01X2798Y7467D01*
G37*
G36*
G01X4238Y7467D02*
G01X4238Y10472D01*
G01X5341Y10472D01*
G01X5341Y7467D01*
G01X4238Y7467D01*
G37*
G36*
G01X5678Y7467D02*
G01X5678Y10472D01*
G01X6781Y10472D01*
G01X6781Y7467D01*
G01X5678Y7467D01*
G37*
G36*
G01X5678Y17467D02*
G01X5678Y20472D01*
G01X6781Y20472D01*
G01X6781Y17467D01*
G01X5678Y17467D01*
G37*
G36*
G01X4238Y17467D02*
G01X4238Y20472D01*
G01X5341Y20472D01*
G01X5341Y17467D01*
G01X4238Y17467D01*
G37*
G36*
G01X2798Y17467D02*
G01X2798Y20472D01*
G01X3900Y20472D01*
G01X3900Y17467D01*
G01X2798Y17467D01*
G37*
G36*
G01X1358Y17467D02*
G01X1358Y20472D01*
G01X2460Y20472D01*
G01X2460Y17467D01*
G01X1358Y17467D01*
G37*
G36*
G01X-81Y17467D02*
G01X-81Y20472D01*
G01X1020Y20472D01*
G01X1020Y17467D01*
G01X-81Y17467D01*
G37*
G54D28*
G01X3353Y4637D03*
G01X3353Y6138D03*
G36*
G01X6918Y7467D02*
G01X6918Y10472D01*
G01X8020Y10472D01*
G01X8020Y7467D01*
G01X6918Y7467D01*
G37*
G36*
G01X8358Y7467D02*
G01X8358Y10472D01*
G01X9460Y10472D01*
G01X9460Y7467D01*
G01X8358Y7467D01*
G37*
G36*
G01X9798Y7467D02*
G01X9798Y10472D01*
G01X10901Y10472D01*
G01X10901Y7467D01*
G01X9798Y7467D01*
G37*
G36*
G01X11238Y7467D02*
G01X11238Y10472D01*
G01X12341Y10472D01*
G01X12341Y7467D01*
G01X11238Y7467D01*
G37*
G36*
G01X12679Y7467D02*
G01X12679Y10472D01*
G01X13781Y10472D01*
G01X13781Y7467D01*
G01X12679Y7467D01*
G37*
G36*
G01X12679Y17467D02*
G01X12679Y20472D01*
G01X13781Y20472D01*
G01X13781Y17467D01*
G01X12679Y17467D01*
G37*
G36*
G01X11238Y17467D02*
G01X11238Y20472D01*
G01X12341Y20472D01*
G01X12341Y17467D01*
G01X11238Y17467D01*
G37*
G36*
G01X9798Y17467D02*
G01X9798Y20472D01*
G01X10901Y20472D01*
G01X10901Y17467D01*
G01X9798Y17467D01*
G37*
G36*
G01X8358Y17467D02*
G01X8358Y20472D01*
G01X9460Y20472D01*
G01X9460Y17467D01*
G01X8358Y17467D01*
G37*
G36*
G01X6918Y17467D02*
G01X6918Y20472D01*
G01X8020Y20472D01*
G01X8020Y17467D01*
G01X6918Y17467D01*
G37*
M00*
M02*
