G04 Layer: TopSilkLayer*
G04 EasyEDA v6.3.53, 2020-07-19T22:27:28+02:00*
G04 3120cfb910ab4567be944433c0d318a6,a54f91b67bf74260adec70c9c35cfc8e,10*
G04 Gerber Generator version 0.2*
G04 Scale: 100 percent, Rotated: No, Reflected: No *
G04 Dimensions in millimeters *
G04 leading zeros omitted , absolute positions ,3 integer and 3 decimal *
%FSLAX33Y33*%
%MOMM*%
G90*
G71D02*

%ADD19C,0.799998*%
%ADD20C,0.200000*%

%LPD*%

%LPD*%
G36*
G01X19078Y5053D02*
G01X16282Y5053D01*
G01X16390Y4891D01*
G01X16496Y4728D01*
G01X17389Y4689D01*
G01X17539Y4681D01*
G01X17672Y4675D01*
G01X17791Y4669D01*
G01X17896Y4663D01*
G01X17988Y4657D01*
G01X18067Y4651D01*
G01X18134Y4645D01*
G01X18189Y4639D01*
G01X18235Y4633D01*
G01X18270Y4626D01*
G01X18296Y4619D01*
G01X18314Y4611D01*
G01X18324Y4603D01*
G01X18326Y4595D01*
G01X18322Y4585D01*
G01X18313Y4574D01*
G01X18302Y4571D01*
G01X18277Y4566D01*
G01X18239Y4562D01*
G01X18189Y4556D01*
G01X18128Y4550D01*
G01X18058Y4544D01*
G01X17978Y4537D01*
G01X17890Y4530D01*
G01X17796Y4523D01*
G01X17696Y4516D01*
G01X17591Y4510D01*
G01X17481Y4503D01*
G01X16677Y4455D01*
G01X17323Y3445D01*
G01X17439Y3580D01*
G01X17483Y3635D01*
G01X17516Y3686D01*
G01X17538Y3733D01*
G01X17550Y3778D01*
G01X17550Y3823D01*
G01X17541Y3871D01*
G01X17521Y3920D01*
G01X17492Y3975D01*
G01X17426Y4086D01*
G01X17920Y4087D01*
G01X18413Y4087D01*
G01X18488Y4130D01*
G01X18507Y4147D01*
G01X18536Y4178D01*
G01X18572Y4222D01*
G01X18614Y4276D01*
G01X18660Y4340D01*
G01X18710Y4409D01*
G01X18761Y4483D01*
G01X18813Y4560D01*
G01X18864Y4636D01*
G01X18913Y4711D01*
G01X18958Y4783D01*
G01X18998Y4848D01*
G01X19031Y4905D01*
G01X19057Y4953D01*
G01X19073Y4988D01*
G01X19078Y5010D01*
G01X19078Y5053D01*
G37*

%LPD*%
G36*
G01X15967Y5053D02*
G01X15579Y5053D01*
G01X15610Y4979D01*
G01X15615Y4971D01*
G01X15623Y4957D01*
G01X15634Y4937D01*
G01X15649Y4913D01*
G01X15667Y4884D01*
G01X15688Y4850D01*
G01X15711Y4812D01*
G01X15738Y4770D01*
G01X15768Y4723D01*
G01X15799Y4673D01*
G01X15833Y4620D01*
G01X15869Y4564D01*
G01X15908Y4504D01*
G01X15947Y4442D01*
G01X15989Y4377D01*
G01X16032Y4310D01*
G01X16076Y4241D01*
G01X16122Y4170D01*
G01X16168Y4098D01*
G01X16216Y4025D01*
G01X16264Y3950D01*
G01X16313Y3875D01*
G01X16411Y3722D01*
G01X16461Y3646D01*
G01X16560Y3494D01*
G01X16609Y3419D01*
G01X16657Y3344D01*
G01X16705Y3271D01*
G01X16752Y3199D01*
G01X16798Y3129D01*
G01X16843Y3060D01*
G01X16886Y2994D01*
G01X16929Y2930D01*
G01X16969Y2868D01*
G01X17008Y2809D01*
G01X17045Y2754D01*
G01X17079Y2701D01*
G01X17112Y2653D01*
G01X17142Y2607D01*
G01X17170Y2566D01*
G01X17195Y2529D01*
G01X17218Y2496D01*
G01X17236Y2468D01*
G01X17253Y2445D01*
G01X17265Y2427D01*
G01X17275Y2415D01*
G01X17356Y2310D01*
G01X17869Y3087D01*
G01X17921Y3167D01*
G01X17972Y3244D01*
G01X18021Y3320D01*
G01X18068Y3392D01*
G01X18113Y3461D01*
G01X18155Y3526D01*
G01X18195Y3587D01*
G01X18231Y3644D01*
G01X18264Y3696D01*
G01X18294Y3743D01*
G01X18320Y3784D01*
G01X18341Y3819D01*
G01X18358Y3848D01*
G01X18371Y3869D01*
G01X18379Y3883D01*
G01X18381Y3890D01*
G01X18364Y3900D01*
G01X18317Y3907D01*
G01X18248Y3913D01*
G01X18164Y3915D01*
G01X17947Y3915D01*
G01X17831Y3779D01*
G01X17804Y3746D01*
G01X17772Y3704D01*
G01X17736Y3656D01*
G01X17697Y3602D01*
G01X17656Y3545D01*
G01X17614Y3485D01*
G01X17574Y3426D01*
G01X17535Y3368D01*
G01X17354Y3093D01*
G01X17261Y3205D01*
G01X17250Y3220D01*
G01X17233Y3243D01*
G01X17213Y3272D01*
G01X17188Y3307D01*
G01X17160Y3348D01*
G01X17129Y3395D01*
G01X17094Y3447D01*
G01X17057Y3503D01*
G01X17018Y3563D01*
G01X16976Y3627D01*
G01X16932Y3694D01*
G01X16887Y3764D01*
G01X16841Y3836D01*
G01X16793Y3910D01*
G01X16745Y3985D01*
G01X16696Y4062D01*
G01X16648Y4138D01*
G01X16599Y4214D01*
G01X16550Y4288D01*
G01X16503Y4361D01*
G01X16456Y4431D01*
G01X16410Y4499D01*
G01X16367Y4563D01*
G01X16325Y4624D01*
G01X16285Y4681D01*
G01X16248Y4734D01*
G01X16214Y4781D01*
G01X16183Y4823D01*
G01X16155Y4860D01*
G01X16131Y4890D01*
G01X16111Y4914D01*
G01X16095Y4930D01*
G01X15967Y5053D01*
G37*

%LPD*%
G54D19*
G01X15919Y13968D02*
G01X18919Y13968D01*
G01X19420Y16968D01*
G01X16420Y16968D01*
G01X15420Y10968D01*
G01X18420Y10968D01*
G01X18919Y13968D01*
G54D20*
G01X13919Y18968D02*
G01X20819Y18968D01*
G01X20819Y8968D01*
G01X13919Y8968D01*
G01X13919Y18968D01*
G54D19*
G01X1919Y13968D02*
G01X4919Y13968D01*
G01X5420Y16968D01*
G01X2420Y16968D01*
G01X1420Y10968D01*
G01X4420Y10968D01*
G01X4919Y13968D01*
G54D20*
G01X-80Y18968D02*
G01X6819Y18968D01*
G01X6819Y8968D01*
G01X-80Y8968D01*
G01X-80Y18968D01*
G54D19*
G01X8919Y13968D02*
G01X11919Y13968D01*
G01X12420Y16968D01*
G01X9420Y16968D01*
G01X8420Y10968D01*
G01X11420Y10968D01*
G01X11919Y13968D01*
G54D20*
G01X6919Y18968D02*
G01X13819Y18968D01*
G01X13819Y8968D01*
G01X6919Y8968D01*
G01X6919Y18968D01*

%LPD*%
G36*
G01X5156Y22135D02*
G01X5026Y22135D01*
G01X5026Y21404D01*
G01X5029Y21374D01*
G01X5039Y21352D01*
G01X5055Y21340D01*
G01X5077Y21335D01*
G01X5099Y21340D01*
G01X5115Y21352D01*
G01X5124Y21374D01*
G01X5128Y21404D01*
G01X5128Y21993D01*
G01X5229Y21848D01*
G01X5229Y21838D01*
G01X5232Y21810D01*
G01X5242Y21789D01*
G01X5258Y21777D01*
G01X5280Y21772D01*
G01X5302Y21777D01*
G01X5318Y21789D01*
G01X5327Y21810D01*
G01X5331Y21838D01*
G01X5331Y21848D01*
G01X5433Y21993D01*
G01X5433Y21404D01*
G01X5436Y21374D01*
G01X5445Y21352D01*
G01X5461Y21340D01*
G01X5483Y21335D01*
G01X5505Y21340D01*
G01X5521Y21352D01*
G01X5531Y21374D01*
G01X5534Y21404D01*
G01X5534Y22135D01*
G01X5405Y22135D01*
G01X5280Y21955D01*
G01X5156Y22135D01*
G37*

%LPD*%
G36*
G01X4526Y22135D02*
G01X4348Y22135D01*
G01X4318Y22132D01*
G01X4296Y22123D01*
G01X4283Y22107D01*
G01X4279Y22085D01*
G01X4283Y22063D01*
G01X4296Y22046D01*
G01X4318Y22037D01*
G01X4348Y22034D01*
G01X4381Y22034D01*
G01X4381Y21437D01*
G01X4348Y21437D01*
G01X4318Y21434D01*
G01X4296Y21424D01*
G01X4283Y21408D01*
G01X4279Y21386D01*
G01X4283Y21364D01*
G01X4296Y21348D01*
G01X4318Y21339D01*
G01X4348Y21335D01*
G01X4516Y21335D01*
G01X4563Y21341D01*
G01X4604Y21357D01*
G01X4636Y21384D01*
G01X4660Y21422D01*
G01X4765Y21630D01*
G01X4775Y21655D01*
G01X4783Y21682D01*
G01X4788Y21710D01*
G01X4790Y21739D01*
G01X4788Y21765D01*
G01X4783Y21790D01*
G01X4775Y21815D01*
G01X4765Y21841D01*
G01X4663Y22046D01*
G01X4638Y22086D01*
G01X4607Y22113D01*
G01X4569Y22130D01*
G01X4526Y22135D01*
G37*

%LPC*%
G36*
G01X4516Y22034D02*
G01X4485Y22034D01*
G01X4485Y21437D01*
G01X4518Y21437D01*
G01X4535Y21439D01*
G01X4550Y21445D01*
G01X4562Y21456D01*
G01X4572Y21470D01*
G01X4673Y21676D01*
G01X4678Y21691D01*
G01X4682Y21706D01*
G01X4685Y21720D01*
G01X4686Y21734D01*
G01X4684Y21750D01*
G01X4681Y21767D01*
G01X4674Y21786D01*
G01X4665Y21805D01*
G01X4569Y22001D01*
G01X4560Y22015D01*
G01X4548Y22026D01*
G01X4533Y22032D01*
G01X4516Y22034D01*
G37*

%LPD*%
G36*
G01X3909Y22135D02*
G01X3665Y22135D01*
G01X3638Y22133D01*
G01X3614Y22127D01*
G01X3592Y22117D01*
G01X3573Y22102D01*
G01X3558Y22086D01*
G01X3546Y22066D01*
G01X3540Y22044D01*
G01X3538Y22018D01*
G01X3539Y21999D01*
G01X3544Y21980D01*
G01X3552Y21962D01*
G01X3563Y21945D01*
G01X3931Y21470D01*
G01X3937Y21463D01*
G01X3941Y21457D01*
G01X3943Y21453D01*
G01X3944Y21450D01*
G01X3943Y21444D01*
G01X3938Y21440D01*
G01X3931Y21438D01*
G01X3921Y21437D01*
G01X3672Y21437D01*
G01X3660Y21439D01*
G01X3650Y21444D01*
G01X3643Y21453D01*
G01X3639Y21465D01*
G01X3634Y21490D01*
G01X3625Y21507D01*
G01X3610Y21518D01*
G01X3591Y21521D01*
G01X3568Y21517D01*
G01X3551Y21506D01*
G01X3541Y21488D01*
G01X3538Y21462D01*
G01X3540Y21438D01*
G01X3548Y21415D01*
G01X3562Y21394D01*
G01X3581Y21373D01*
G01X3602Y21357D01*
G01X3625Y21345D01*
G01X3650Y21338D01*
G01X3677Y21335D01*
G01X3929Y21335D01*
G01X3952Y21338D01*
G01X3974Y21344D01*
G01X3994Y21354D01*
G01X4013Y21368D01*
G01X4027Y21386D01*
G01X4037Y21405D01*
G01X4043Y21427D01*
G01X4046Y21450D01*
G01X4044Y21469D01*
G01X4039Y21488D01*
G01X4030Y21507D01*
G01X4018Y21526D01*
G01X3649Y22001D01*
G01X3645Y22006D01*
G01X3642Y22010D01*
G01X3640Y22015D01*
G01X3639Y22018D01*
G01X3640Y22026D01*
G01X3645Y22030D01*
G01X3652Y22033D01*
G01X3662Y22034D01*
G01X3906Y22034D01*
G01X3921Y22032D01*
G01X3932Y22026D01*
G01X3940Y22017D01*
G01X3944Y22003D01*
G01X3949Y21978D01*
G01X3959Y21960D01*
G01X3975Y21949D01*
G01X3995Y21945D01*
G01X4017Y21949D01*
G01X4033Y21960D01*
G01X4042Y21978D01*
G01X4046Y22003D01*
G01X4043Y22028D01*
G01X4035Y22052D01*
G01X4021Y22074D01*
G01X4003Y22095D01*
G01X3981Y22112D01*
G01X3958Y22125D01*
G01X3934Y22133D01*
G01X3909Y22135D01*
G37*

%LPD*%
G36*
G01X3302Y22135D02*
G01X2847Y22135D01*
G01X2823Y22132D01*
G01X2807Y22121D01*
G01X2797Y22103D01*
G01X2794Y22077D01*
G01X2794Y22046D01*
G01X2797Y22021D01*
G01X2806Y22003D01*
G01X2822Y21992D01*
G01X2844Y21988D01*
G01X2864Y21991D01*
G01X2878Y22000D01*
G01X2889Y22014D01*
G01X2895Y22034D01*
G01X3200Y22034D01*
G01X3200Y21879D01*
G01X3198Y21864D01*
G01X3194Y21849D01*
G01X3187Y21837D01*
G01X3177Y21825D01*
G01X3014Y21686D01*
G01X3007Y21679D01*
G01X3003Y21670D01*
G01X3000Y21660D01*
G01X2999Y21648D01*
G01X2999Y21404D01*
G01X3002Y21374D01*
G01X3012Y21352D01*
G01X3028Y21340D01*
G01X3050Y21335D01*
G01X3072Y21340D01*
G01X3088Y21352D01*
G01X3097Y21374D01*
G01X3101Y21404D01*
G01X3101Y21599D01*
G01X3102Y21612D01*
G01X3105Y21622D01*
G01X3110Y21632D01*
G01X3119Y21640D01*
G01X3284Y21782D01*
G01X3291Y21791D01*
G01X3297Y21801D01*
G01X3300Y21813D01*
G01X3302Y21825D01*
G01X3302Y22135D01*
G37*

%LPD*%
G36*
G01X2453Y22135D02*
G01X2115Y22135D01*
G01X2086Y22132D01*
G01X2066Y22123D01*
G01X2053Y22107D01*
G01X2049Y22085D01*
G01X2053Y22063D01*
G01X2066Y22046D01*
G01X2086Y22037D01*
G01X2115Y22034D01*
G01X2451Y22034D01*
G01X2451Y21848D01*
G01X2447Y21821D01*
G01X2438Y21801D01*
G01X2422Y21789D01*
G01X2400Y21785D01*
G01X2219Y21785D01*
G01X2189Y21782D01*
G01X2168Y21772D01*
G01X2155Y21756D01*
G01X2151Y21734D01*
G01X2155Y21712D01*
G01X2168Y21696D01*
G01X2189Y21687D01*
G01X2219Y21683D01*
G01X2397Y21683D01*
G01X2422Y21680D01*
G01X2439Y21668D01*
G01X2450Y21649D01*
G01X2453Y21622D01*
G01X2453Y21437D01*
G01X2115Y21437D01*
G01X2086Y21434D01*
G01X2066Y21424D01*
G01X2053Y21408D01*
G01X2049Y21386D01*
G01X2053Y21364D01*
G01X2066Y21348D01*
G01X2086Y21339D01*
G01X2115Y21335D01*
G01X2453Y21335D01*
G01X2473Y21337D01*
G01X2493Y21343D01*
G01X2511Y21352D01*
G01X2527Y21366D01*
G01X2540Y21381D01*
G01X2550Y21398D01*
G01X2555Y21417D01*
G01X2557Y21437D01*
G01X2557Y21630D01*
G01X2555Y21659D01*
G01X2547Y21687D01*
G01X2534Y21712D01*
G01X2517Y21734D01*
G01X2533Y21754D01*
G01X2545Y21776D01*
G01X2552Y21799D01*
G01X2555Y21823D01*
G01X2555Y22046D01*
G01X2553Y22064D01*
G01X2547Y22080D01*
G01X2537Y22096D01*
G01X2524Y22110D01*
G01X2508Y22121D01*
G01X2491Y22129D01*
G01X2472Y22134D01*
G01X2453Y22135D01*
G37*

%LPD*%
G36*
G01X1813Y22135D02*
G01X1305Y22135D01*
G01X1305Y22013D01*
G01X1308Y21983D01*
G01X1318Y21962D01*
G01X1334Y21949D01*
G01X1356Y21945D01*
G01X1378Y21949D01*
G01X1394Y21962D01*
G01X1403Y21983D01*
G01X1407Y22013D01*
G01X1407Y22034D01*
G01X1508Y22034D01*
G01X1508Y21404D01*
G01X1511Y21374D01*
G01X1521Y21352D01*
G01X1537Y21340D01*
G01X1559Y21335D01*
G01X1581Y21339D01*
G01X1597Y21350D01*
G01X1606Y21368D01*
G01X1610Y21394D01*
G01X1610Y22034D01*
G01X1711Y22034D01*
G01X1711Y22013D01*
G01X1715Y21983D01*
G01X1725Y21962D01*
G01X1741Y21949D01*
G01X1765Y21945D01*
G01X1786Y21949D01*
G01X1801Y21960D01*
G01X1810Y21978D01*
G01X1813Y22003D01*
G01X1813Y22135D01*
G37*

%LPD*%
G36*
G01X805Y22135D02*
G01X629Y22135D01*
G01X599Y22132D01*
G01X578Y22123D01*
G01X565Y22107D01*
G01X561Y22085D01*
G01X565Y22063D01*
G01X578Y22046D01*
G01X599Y22037D01*
G01X629Y22034D01*
G01X662Y22034D01*
G01X662Y21437D01*
G01X629Y21437D01*
G01X599Y21434D01*
G01X578Y21424D01*
G01X565Y21408D01*
G01X561Y21386D01*
G01X565Y21364D01*
G01X578Y21348D01*
G01X599Y21339D01*
G01X629Y21335D01*
G01X795Y21335D01*
G01X842Y21341D01*
G01X882Y21357D01*
G01X915Y21384D01*
G01X939Y21422D01*
G01X1046Y21630D01*
G01X1056Y21655D01*
G01X1063Y21682D01*
G01X1067Y21710D01*
G01X1069Y21739D01*
G01X1067Y21765D01*
G01X1062Y21790D01*
G01X1054Y21815D01*
G01X1043Y21841D01*
G01X942Y22046D01*
G01X917Y22086D01*
G01X886Y22113D01*
G01X848Y22130D01*
G01X805Y22135D01*
G37*

%LPC*%
G36*
G01X797Y22034D02*
G01X764Y22034D01*
G01X764Y21437D01*
G01X800Y21437D01*
G01X816Y21439D01*
G01X831Y21445D01*
G01X843Y21456D01*
G01X853Y21470D01*
G01X952Y21676D01*
G01X959Y21691D01*
G01X963Y21706D01*
G01X966Y21720D01*
G01X967Y21734D01*
G01X966Y21750D01*
G01X962Y21767D01*
G01X956Y21786D01*
G01X947Y21805D01*
G01X850Y22001D01*
G01X840Y22015D01*
G01X828Y22026D01*
G01X813Y22032D01*
G01X797Y22034D01*
G37*

%LPD*%

%LPD*%
G36*
G01X15052Y4480D02*
G01X14414Y4480D01*
G01X14414Y4328D01*
G01X14418Y4291D01*
G01X14430Y4265D01*
G01X14451Y4249D01*
G01X14480Y4244D01*
G01X14506Y4249D01*
G01X14526Y4265D01*
G01X14537Y4291D01*
G01X14541Y4328D01*
G01X14541Y4353D01*
G01X14668Y4353D01*
G01X14668Y3566D01*
G01X14672Y3529D01*
G01X14684Y3503D01*
G01X14704Y3487D01*
G01X14732Y3482D01*
G01X14759Y3486D01*
G01X14779Y3499D01*
G01X14791Y3521D01*
G01X14795Y3551D01*
G01X14795Y4353D01*
G01X14922Y4353D01*
G01X14922Y4328D01*
G01X14926Y4291D01*
G01X14938Y4265D01*
G01X14959Y4249D01*
G01X14988Y4244D01*
G01X15015Y4248D01*
G01X15036Y4261D01*
G01X15047Y4283D01*
G01X15052Y4313D01*
G01X15052Y4480D01*
G37*

%LPD*%
G36*
G01X11140Y4480D02*
G01X10695Y4480D01*
G01X10695Y3548D01*
G01X10696Y3533D01*
G01X10700Y3521D01*
G01X10705Y3510D01*
G01X10713Y3500D01*
G01X10723Y3492D01*
G01X10734Y3486D01*
G01X10746Y3483D01*
G01X10759Y3482D01*
G01X10786Y3487D01*
G01X10807Y3503D01*
G01X10818Y3529D01*
G01X10822Y3566D01*
G01X10822Y3858D01*
G01X11122Y3858D01*
G01X11169Y3862D01*
G01X11211Y3872D01*
G01X11246Y3889D01*
G01X11277Y3914D01*
G01X11301Y3944D01*
G01X11319Y3980D01*
G01X11329Y4022D01*
G01X11333Y4069D01*
G01X11333Y4277D01*
G01X11329Y4320D01*
G01X11320Y4359D01*
G01X11303Y4394D01*
G01X11280Y4424D01*
G01X11251Y4449D01*
G01X11218Y4466D01*
G01X11181Y4477D01*
G01X11140Y4480D01*
G37*

%LPC*%
G36*
G01X11127Y4353D02*
G01X10822Y4353D01*
G01X10822Y3988D01*
G01X11132Y3988D01*
G01X11163Y3993D01*
G01X11186Y4008D01*
G01X11199Y4033D01*
G01X11203Y4069D01*
G01X11203Y4277D01*
G01X11198Y4310D01*
G01X11184Y4334D01*
G01X11160Y4348D01*
G01X11127Y4353D01*
G37*

%LPD*%
G36*
G01X14036Y4480D02*
G01X13820Y4480D01*
G01X13764Y4473D01*
G01X13716Y4453D01*
G01X13676Y4419D01*
G01X13644Y4371D01*
G01X13512Y4104D01*
G01X13500Y4075D01*
G01X13491Y4045D01*
G01X13486Y4013D01*
G01X13484Y3980D01*
G01X13486Y3946D01*
G01X13491Y3914D01*
G01X13500Y3884D01*
G01X13512Y3855D01*
G01X13644Y3589D01*
G01X13676Y3541D01*
G01X13714Y3506D01*
G01X13760Y3486D01*
G01X13812Y3480D01*
G01X14036Y3480D01*
G01X14073Y3484D01*
G01X14100Y3495D01*
G01X14116Y3515D01*
G01X14122Y3543D01*
G01X14116Y3570D01*
G01X14100Y3590D01*
G01X14073Y3602D01*
G01X14036Y3607D01*
G01X13830Y3607D01*
G01X13806Y3609D01*
G01X13786Y3617D01*
G01X13769Y3631D01*
G01X13756Y3650D01*
G01X13634Y3901D01*
G01X13625Y3920D01*
G01X13619Y3939D01*
G01X13615Y3958D01*
G01X13614Y3977D01*
G01X13615Y3999D01*
G01X13619Y4020D01*
G01X13625Y4040D01*
G01X13634Y4061D01*
G01X13759Y4313D01*
G01X13770Y4330D01*
G01X13785Y4343D01*
G01X13803Y4351D01*
G01X13825Y4353D01*
G01X14036Y4353D01*
G01X14073Y4357D01*
G01X14100Y4369D01*
G01X14116Y4389D01*
G01X14122Y4417D01*
G01X14116Y4444D01*
G01X14100Y4464D01*
G01X14073Y4476D01*
G01X14036Y4480D01*
G37*

%LPD*%
G36*
G01X13088Y4472D02*
G01X13060Y4478D01*
G01X13032Y4472D01*
G01X13012Y4456D01*
G01X13001Y4431D01*
G01X12997Y4394D01*
G01X12997Y3683D01*
G01X12992Y3649D01*
G01X12978Y3625D01*
G01X12955Y3611D01*
G01X12923Y3607D01*
G01X12819Y3607D01*
G01X12785Y3612D01*
G01X12761Y3627D01*
G01X12747Y3652D01*
G01X12743Y3688D01*
G01X12743Y3848D01*
G01X12739Y3884D01*
G01X12727Y3910D01*
G01X12708Y3926D01*
G01X12682Y3932D01*
G01X12653Y3926D01*
G01X12632Y3910D01*
G01X12620Y3884D01*
G01X12616Y3848D01*
G01X12616Y3667D01*
G01X12619Y3628D01*
G01X12630Y3593D01*
G01X12648Y3561D01*
G01X12674Y3533D01*
G01X12704Y3510D01*
G01X12738Y3493D01*
G01X12776Y3483D01*
G01X12819Y3480D01*
G01X12926Y3480D01*
G01X12968Y3483D01*
G01X13006Y3493D01*
G01X13040Y3511D01*
G01X13070Y3535D01*
G01X13094Y3565D01*
G01X13110Y3600D01*
G01X13120Y3639D01*
G01X13124Y3683D01*
G01X13124Y4394D01*
G01X13120Y4431D01*
G01X13108Y4456D01*
G01X13088Y4472D01*
G37*

%LPD*%
G36*
G01X12072Y4480D02*
G01X11625Y4480D01*
G01X11625Y3551D01*
G01X11629Y3519D01*
G01X11641Y3497D01*
G01X11662Y3484D01*
G01X11691Y3480D01*
G01X11719Y3485D01*
G01X11739Y3501D01*
G01X11751Y3528D01*
G01X11755Y3566D01*
G01X11755Y4023D01*
G01X11783Y4023D01*
G01X12133Y3523D01*
G01X12148Y3504D01*
G01X12164Y3490D01*
G01X12180Y3482D01*
G01X12197Y3480D01*
G01X12209Y3481D01*
G01X12220Y3484D01*
G01X12232Y3489D01*
G01X12242Y3497D01*
G01X12251Y3507D01*
G01X12258Y3518D01*
G01X12261Y3529D01*
G01X12263Y3540D01*
G01X12261Y3551D01*
G01X12256Y3564D01*
G01X12248Y3578D01*
G01X12237Y3594D01*
G01X11940Y4023D01*
G01X12062Y4023D01*
G01X12104Y4027D01*
G01X12143Y4037D01*
G01X12177Y4055D01*
G01X12207Y4079D01*
G01X12231Y4108D01*
G01X12248Y4142D01*
G01X12259Y4180D01*
G01X12263Y4221D01*
G01X12263Y4280D01*
G01X12259Y4320D01*
G01X12248Y4357D01*
G01X12231Y4391D01*
G01X12207Y4422D01*
G01X12178Y4447D01*
G01X12146Y4466D01*
G01X12111Y4477D01*
G01X12072Y4480D01*
G37*

%LPC*%
G36*
G01X12054Y4353D02*
G01X11755Y4353D01*
G01X11755Y4150D01*
G01X12054Y4150D01*
G01X12090Y4154D01*
G01X12115Y4168D01*
G01X12131Y4190D01*
G01X12136Y4221D01*
G01X12136Y4272D01*
G01X12131Y4308D01*
G01X12115Y4333D01*
G01X12090Y4348D01*
G01X12054Y4353D01*
G37*

%LPD*%
G36*
G01X8996Y4480D02*
G01X8834Y4480D01*
G01X8834Y3566D01*
G01X8838Y3528D01*
G01X8850Y3501D01*
G01X8871Y3485D01*
G01X8900Y3480D01*
G01X8927Y3485D01*
G01X8947Y3501D01*
G01X8959Y3528D01*
G01X8963Y3566D01*
G01X8963Y4302D01*
G01X9088Y4122D01*
G01X9088Y4109D01*
G01X9092Y4071D01*
G01X9104Y4044D01*
G01X9125Y4028D01*
G01X9154Y4023D01*
G01X9180Y4028D01*
G01X9199Y4044D01*
G01X9211Y4071D01*
G01X9215Y4109D01*
G01X9215Y4122D01*
G01X9344Y4302D01*
G01X9344Y3566D01*
G01X9348Y3528D01*
G01X9359Y3501D01*
G01X9378Y3485D01*
G01X9405Y3480D01*
G01X9434Y3485D01*
G01X9454Y3501D01*
G01X9467Y3528D01*
G01X9471Y3566D01*
G01X9471Y4480D01*
G01X9309Y4480D01*
G01X9154Y4254D01*
G01X8996Y4480D01*
G37*

%LPD*%
G36*
G01X8354Y4480D02*
G01X7907Y4480D01*
G01X7907Y3551D01*
G01X7911Y3519D01*
G01X7922Y3497D01*
G01X7942Y3484D01*
G01X7970Y3480D01*
G01X7997Y3485D01*
G01X8018Y3501D01*
G01X8029Y3528D01*
G01X8034Y3566D01*
G01X8034Y4023D01*
G01X8064Y4023D01*
G01X8412Y3523D01*
G01X8427Y3504D01*
G01X8443Y3490D01*
G01X8460Y3482D01*
G01X8478Y3480D01*
G01X8490Y3481D01*
G01X8502Y3484D01*
G01X8513Y3489D01*
G01X8524Y3497D01*
G01X8531Y3507D01*
G01X8537Y3518D01*
G01X8541Y3529D01*
G01X8542Y3540D01*
G01X8540Y3551D01*
G01X8536Y3564D01*
G01X8528Y3578D01*
G01X8519Y3594D01*
G01X8219Y4023D01*
G01X8341Y4023D01*
G01X8383Y4027D01*
G01X8422Y4037D01*
G01X8456Y4055D01*
G01X8486Y4079D01*
G01X8510Y4108D01*
G01X8527Y4142D01*
G01X8538Y4180D01*
G01X8542Y4221D01*
G01X8542Y4280D01*
G01X8538Y4320D01*
G01X8528Y4357D01*
G01X8512Y4391D01*
G01X8488Y4422D01*
G01X8459Y4447D01*
G01X8427Y4466D01*
G01X8391Y4477D01*
G01X8354Y4480D01*
G37*

%LPC*%
G36*
G01X8336Y4353D02*
G01X8034Y4353D01*
G01X8034Y4150D01*
G01X8336Y4150D01*
G01X8370Y4154D01*
G01X8395Y4168D01*
G01X8409Y4190D01*
G01X8415Y4221D01*
G01X8415Y4272D01*
G01X8409Y4308D01*
G01X8395Y4333D01*
G01X8370Y4348D01*
G01X8336Y4353D01*
G37*

%LPD*%
G36*
G01X7068Y4472D02*
G01X7040Y4478D01*
G01X7012Y4472D01*
G01X6993Y4456D01*
G01X6981Y4431D01*
G01X6977Y4394D01*
G01X6977Y3480D01*
G01X7523Y3480D01*
G01X7561Y3484D01*
G01X7587Y3495D01*
G01X7604Y3515D01*
G01X7609Y3543D01*
G01X7604Y3570D01*
G01X7587Y3590D01*
G01X7561Y3602D01*
G01X7523Y3607D01*
G01X7104Y3607D01*
G01X7104Y4394D01*
G01X7100Y4431D01*
G01X7088Y4456D01*
G01X7068Y4472D01*
G37*

%LPD*%
G36*
G01X6136Y4475D02*
G01X6108Y4480D01*
G01X6080Y4475D01*
G01X6060Y4458D01*
G01X6049Y4432D01*
G01X6045Y4394D01*
G01X6045Y4203D01*
G01X6047Y4189D01*
G01X6049Y4178D01*
G01X6052Y4168D01*
G01X6052Y4165D01*
G01X6053Y4162D01*
G01X6055Y4159D01*
G01X6057Y4155D01*
G01X6304Y3523D01*
G01X6313Y3504D01*
G01X6327Y3490D01*
G01X6344Y3482D01*
G01X6365Y3480D01*
G01X6385Y3482D01*
G01X6401Y3490D01*
G01X6414Y3504D01*
G01X6423Y3523D01*
G01X6670Y4155D01*
G01X6674Y4170D01*
G01X6677Y4186D01*
G01X6679Y4202D01*
G01X6680Y4219D01*
G01X6680Y4396D01*
G01X6676Y4433D01*
G01X6664Y4459D01*
G01X6645Y4475D01*
G01X6619Y4480D01*
G01X6590Y4475D01*
G01X6569Y4459D01*
G01X6557Y4433D01*
G01X6553Y4396D01*
G01X6553Y4211D01*
G01X6362Y3721D01*
G01X6172Y4211D01*
G01X6172Y4394D01*
G01X6168Y4432D01*
G01X6156Y4458D01*
G01X6136Y4475D01*
G37*

%LPD*%

%LPD*%
G36*
G01X18863Y21653D02*
G01X18766Y21653D01*
G01X18755Y21652D01*
G01X18745Y21649D01*
G01X18736Y21645D01*
G01X18721Y21630D01*
G01X18716Y21621D01*
G01X18713Y21611D01*
G01X18713Y21516D01*
G01X18716Y21494D01*
G01X18725Y21477D01*
G01X18741Y21468D01*
G01X18763Y21465D01*
G01X18863Y21465D01*
G01X18885Y21468D01*
G01X18902Y21478D01*
G01X18912Y21495D01*
G01X18916Y21518D01*
G01X18916Y21599D01*
G01X18912Y21623D01*
G01X18902Y21640D01*
G01X18885Y21650D01*
G01X18863Y21653D01*
G37*

%LPD*%
G36*
G01X19770Y22135D02*
G01X19358Y22135D01*
G01X19334Y22132D01*
G01X19318Y22122D01*
G01X19308Y22105D01*
G01X19305Y22082D01*
G01X19305Y21825D01*
G01X19307Y21801D01*
G01X19316Y21784D01*
G01X19331Y21773D01*
G01X19353Y21770D01*
G01X19711Y21770D01*
G01X19711Y21437D01*
G01X19688Y21432D01*
G01X19671Y21422D01*
G01X19661Y21406D01*
G01X19658Y21386D01*
G01X19658Y21376D01*
G01X19661Y21367D01*
G01X19666Y21359D01*
G01X19673Y21350D01*
G01X19680Y21344D01*
G01X19690Y21339D01*
G01X19700Y21336D01*
G01X19711Y21335D01*
G01X19764Y21335D01*
G01X19774Y21336D01*
G01X19783Y21339D01*
G01X19790Y21344D01*
G01X19797Y21350D01*
G01X19804Y21358D01*
G01X19808Y21365D01*
G01X19812Y21374D01*
G01X19813Y21383D01*
G01X19813Y22082D01*
G01X19812Y22093D01*
G01X19808Y22103D01*
G01X19804Y22112D01*
G01X19797Y22120D01*
G01X19789Y22127D01*
G01X19780Y22132D01*
G01X19770Y22135D01*
G37*

%LPC*%
G36*
G01X19711Y22034D02*
G01X19406Y22034D01*
G01X19406Y21871D01*
G01X19711Y21871D01*
G01X19711Y22034D01*
G37*

%LPD*%
G36*
G01X18222Y22135D02*
G01X17918Y22135D01*
G01X17898Y22134D01*
G01X17880Y22128D01*
G01X17862Y22119D01*
G01X17847Y22105D01*
G01X17833Y22090D01*
G01X17823Y22073D01*
G01X17818Y22055D01*
G01X17816Y22034D01*
G01X17816Y21437D01*
G01X17818Y21418D01*
G01X17823Y21399D01*
G01X17831Y21382D01*
G01X17844Y21366D01*
G01X17859Y21352D01*
G01X17876Y21343D01*
G01X17894Y21337D01*
G01X17913Y21335D01*
G01X18222Y21335D01*
G01X18242Y21337D01*
G01X18261Y21342D01*
G01X18277Y21351D01*
G01X18294Y21363D01*
G01X18307Y21379D01*
G01X18316Y21395D01*
G01X18322Y21412D01*
G01X18324Y21429D01*
G01X18324Y22029D01*
G01X18322Y22051D01*
G01X18316Y22071D01*
G01X18307Y22089D01*
G01X18294Y22105D01*
G01X18278Y22119D01*
G01X18262Y22128D01*
G01X18243Y22134D01*
G01X18222Y22135D01*
G37*

%LPC*%
G36*
G01X18222Y22034D02*
G01X17918Y22034D01*
G01X17918Y21437D01*
G01X18222Y21437D01*
G01X18222Y22034D01*
G37*

%LPD*%
G36*
G01X17146Y21888D02*
G01X17133Y21889D01*
G01X17111Y21885D01*
G01X17096Y21872D01*
G01X17087Y21849D01*
G01X17085Y21818D01*
G01X17085Y21749D01*
G01X17086Y21745D01*
G01X17089Y21737D01*
G01X17094Y21725D01*
G01X17102Y21709D01*
G01X17247Y21386D01*
G01X17259Y21364D01*
G01X17272Y21348D01*
G01X17285Y21339D01*
G01X17300Y21335D01*
G01X17351Y21335D01*
G01X17366Y21339D01*
G01X17380Y21348D01*
G01X17392Y21364D01*
G01X17405Y21386D01*
G01X17549Y21709D01*
G01X17557Y21727D01*
G01X17563Y21743D01*
G01X17566Y21754D01*
G01X17567Y21762D01*
G01X17567Y21818D01*
G01X17564Y21849D01*
G01X17555Y21871D01*
G01X17540Y21885D01*
G01X17519Y21889D01*
G01X17508Y21888D01*
G01X17497Y21885D01*
G01X17487Y21879D01*
G01X17478Y21871D01*
G01X17475Y21863D01*
G01X17472Y21849D01*
G01X17471Y21831D01*
G01X17471Y21767D01*
G01X17326Y21439D01*
G01X17181Y21767D01*
G01X17181Y21830D01*
G01X17180Y21847D01*
G01X17178Y21859D01*
G01X17176Y21866D01*
G01X17167Y21876D01*
G01X17157Y21883D01*
G01X17146Y21888D01*
G37*

%LPD*%
M00*
M02*
